%TF.GenerationSoftware,KiCad,Pcbnew,9.0.6*%
%TF.CreationDate,2025-11-23T17:05:16+00:00*%
%TF.ProjectId,sr-crt,73722d63-7274-42e6-9b69-6361645f7063,rev?*%
%TF.SameCoordinates,Original*%
%TF.FileFunction,Soldermask,Top*%
%TF.FilePolarity,Negative*%
%FSLAX46Y46*%
G04 Gerber Fmt 4.6, Leading zero omitted, Abs format (unit mm)*
G04 Created by KiCad (PCBNEW 9.0.6) date 2025-11-23 17:05:16*
%MOMM*%
%LPD*%
G01*
G04 APERTURE LIST*
G04 Aperture macros list*
%AMRoundRect*
0 Rectangle with rounded corners*
0 $1 Rounding radius*
0 $2 $3 $4 $5 $6 $7 $8 $9 X,Y pos of 4 corners*
0 Add a 4 corners polygon primitive as box body*
4,1,4,$2,$3,$4,$5,$6,$7,$8,$9,$2,$3,0*
0 Add four circle primitives for the rounded corners*
1,1,$1+$1,$2,$3*
1,1,$1+$1,$4,$5*
1,1,$1+$1,$6,$7*
1,1,$1+$1,$8,$9*
0 Add four rect primitives between the rounded corners*
20,1,$1+$1,$2,$3,$4,$5,0*
20,1,$1+$1,$4,$5,$6,$7,0*
20,1,$1+$1,$6,$7,$8,$9,0*
20,1,$1+$1,$8,$9,$2,$3,0*%
G04 Aperture macros list end*
%ADD10RoundRect,0.250000X-0.350000X-0.350000X0.350000X-0.350000X0.350000X0.350000X-0.350000X0.350000X0*%
%ADD11C,1.200000*%
%ADD12RoundRect,0.225000X0.250000X-0.225000X0.250000X0.225000X-0.250000X0.225000X-0.250000X-0.225000X0*%
%ADD13RoundRect,0.200000X-0.275000X0.200000X-0.275000X-0.200000X0.275000X-0.200000X0.275000X0.200000X0*%
%ADD14C,2.540000*%
%ADD15C,2.600000*%
%ADD16C,3.500000*%
%ADD17RoundRect,0.150000X0.512500X0.150000X-0.512500X0.150000X-0.512500X-0.150000X0.512500X-0.150000X0*%
%ADD18R,3.500000X3.500000*%
%ADD19RoundRect,0.750000X0.750000X1.000000X-0.750000X1.000000X-0.750000X-1.000000X0.750000X-1.000000X0*%
%ADD20RoundRect,0.875000X0.875000X0.875000X-0.875000X0.875000X-0.875000X-0.875000X0.875000X-0.875000X0*%
%ADD21RoundRect,0.200000X0.200000X0.275000X-0.200000X0.275000X-0.200000X-0.275000X0.200000X-0.275000X0*%
%ADD22RoundRect,0.200000X-0.200000X-0.275000X0.200000X-0.275000X0.200000X0.275000X-0.200000X0.275000X0*%
%ADD23RoundRect,0.250000X0.350000X0.350000X-0.350000X0.350000X-0.350000X-0.350000X0.350000X-0.350000X0*%
%ADD24RoundRect,0.250000X-0.600000X-0.600000X0.600000X-0.600000X0.600000X0.600000X-0.600000X0.600000X0*%
%ADD25C,1.700000*%
%ADD26RoundRect,0.150000X-0.825000X-0.150000X0.825000X-0.150000X0.825000X0.150000X-0.825000X0.150000X0*%
G04 APERTURE END LIST*
D10*
%TO.C,C1*%
X48750000Y-27250000D03*
D11*
X50750000Y-27250000D03*
%TD*%
D12*
%TO.C,C4*%
X50387500Y-54500000D03*
X50387500Y-52950000D03*
%TD*%
%TO.C,C8*%
X65750000Y-37750000D03*
X65750000Y-36200000D03*
%TD*%
%TO.C,C5*%
X56000000Y-37775000D03*
X56000000Y-36225000D03*
%TD*%
D13*
%TO.C,R1*%
X65750000Y-41675000D03*
X65750000Y-43325000D03*
%TD*%
D14*
%TO.C,J3*%
X74000000Y-54250000D03*
X71000000Y-51750000D03*
X68500000Y-46750000D03*
X71000000Y-41750000D03*
X74000000Y-39250000D03*
X73500000Y-46750000D03*
X83500000Y-51750000D03*
X83500000Y-41750000D03*
%TD*%
D15*
%TO.C,H2*%
X63750000Y-53750000D03*
D16*
X63750000Y-53750000D03*
%TD*%
D17*
%TO.C,U1*%
X55387500Y-54500000D03*
X55387500Y-53550000D03*
X55387500Y-52600000D03*
X53112500Y-52600000D03*
X53112500Y-54500000D03*
%TD*%
D18*
%TO.C,J2*%
X72000000Y-31207500D03*
D19*
X78000000Y-31207500D03*
D20*
X75000000Y-26507500D03*
%TD*%
D12*
%TO.C,C6*%
X58000000Y-37775000D03*
X58000000Y-36225000D03*
%TD*%
D21*
%TO.C,R3*%
X55075000Y-50475000D03*
X53425000Y-50475000D03*
%TD*%
D22*
%TO.C,R2*%
X63925000Y-45250000D03*
X65575000Y-45250000D03*
%TD*%
D23*
%TO.C,C2*%
X67000000Y-27250000D03*
D11*
X65000000Y-27250000D03*
%TD*%
D24*
%TO.C,J1*%
X48710000Y-36500000D03*
D25*
X51250000Y-36500000D03*
X48710000Y-39040000D03*
X51250000Y-39040000D03*
X48710000Y-41580000D03*
X51250000Y-41580000D03*
%TD*%
D26*
%TO.C,U3*%
X58525000Y-39595000D03*
X58525000Y-40865000D03*
X58525000Y-42135000D03*
X58525000Y-43405000D03*
X63475000Y-43405000D03*
X63475000Y-42135000D03*
X63475000Y-40865000D03*
X63475000Y-39595000D03*
%TD*%
D17*
%TO.C,U2*%
X48025000Y-54500000D03*
X48025000Y-53550000D03*
X48025000Y-52600000D03*
X45750000Y-52600000D03*
X45750000Y-54500000D03*
%TD*%
D12*
%TO.C,C3*%
X57750000Y-54500000D03*
X57750000Y-52950000D03*
%TD*%
%TO.C,C7*%
X63750000Y-37750000D03*
X63750000Y-36200000D03*
%TD*%
D15*
%TO.C,H1*%
X56500000Y-27500000D03*
D16*
X56500000Y-27500000D03*
%TD*%
D21*
%TO.C,R4*%
X47712500Y-50475000D03*
X46062500Y-50475000D03*
%TD*%
M02*
