%TF.GenerationSoftware,KiCad,Pcbnew,9.0.6*%
%TF.CreationDate,2025-11-23T17:05:16+00:00*%
%TF.ProjectId,sr-crt,73722d63-7274-42e6-9b69-6361645f7063,rev?*%
%TF.SameCoordinates,Original*%
%TF.FileFunction,Copper,L1,Top*%
%TF.FilePolarity,Positive*%
%FSLAX46Y46*%
G04 Gerber Fmt 4.6, Leading zero omitted, Abs format (unit mm)*
G04 Created by KiCad (PCBNEW 9.0.6) date 2025-11-23 17:05:16*
%MOMM*%
%LPD*%
G01*
G04 APERTURE LIST*
G04 Aperture macros list*
%AMRoundRect*
0 Rectangle with rounded corners*
0 $1 Rounding radius*
0 $2 $3 $4 $5 $6 $7 $8 $9 X,Y pos of 4 corners*
0 Add a 4 corners polygon primitive as box body*
4,1,4,$2,$3,$4,$5,$6,$7,$8,$9,$2,$3,0*
0 Add four circle primitives for the rounded corners*
1,1,$1+$1,$2,$3*
1,1,$1+$1,$4,$5*
1,1,$1+$1,$6,$7*
1,1,$1+$1,$8,$9*
0 Add four rect primitives between the rounded corners*
20,1,$1+$1,$2,$3,$4,$5,0*
20,1,$1+$1,$4,$5,$6,$7,0*
20,1,$1+$1,$6,$7,$8,$9,0*
20,1,$1+$1,$8,$9,$2,$3,0*%
G04 Aperture macros list end*
%TA.AperFunction,ComponentPad*%
%ADD10RoundRect,0.250000X-0.350000X-0.350000X0.350000X-0.350000X0.350000X0.350000X-0.350000X0.350000X0*%
%TD*%
%TA.AperFunction,ComponentPad*%
%ADD11C,1.200000*%
%TD*%
%TA.AperFunction,SMDPad,CuDef*%
%ADD12RoundRect,0.225000X0.250000X-0.225000X0.250000X0.225000X-0.250000X0.225000X-0.250000X-0.225000X0*%
%TD*%
%TA.AperFunction,SMDPad,CuDef*%
%ADD13RoundRect,0.200000X-0.275000X0.200000X-0.275000X-0.200000X0.275000X-0.200000X0.275000X0.200000X0*%
%TD*%
%TA.AperFunction,ComponentPad*%
%ADD14C,2.540000*%
%TD*%
%TA.AperFunction,ComponentPad*%
%ADD15C,2.600000*%
%TD*%
%TA.AperFunction,ConnectorPad*%
%ADD16C,3.500000*%
%TD*%
%TA.AperFunction,SMDPad,CuDef*%
%ADD17RoundRect,0.150000X0.512500X0.150000X-0.512500X0.150000X-0.512500X-0.150000X0.512500X-0.150000X0*%
%TD*%
%TA.AperFunction,ComponentPad*%
%ADD18R,3.500000X3.500000*%
%TD*%
%TA.AperFunction,ComponentPad*%
%ADD19RoundRect,0.750000X0.750000X1.000000X-0.750000X1.000000X-0.750000X-1.000000X0.750000X-1.000000X0*%
%TD*%
%TA.AperFunction,ComponentPad*%
%ADD20RoundRect,0.875000X0.875000X0.875000X-0.875000X0.875000X-0.875000X-0.875000X0.875000X-0.875000X0*%
%TD*%
%TA.AperFunction,SMDPad,CuDef*%
%ADD21RoundRect,0.200000X0.200000X0.275000X-0.200000X0.275000X-0.200000X-0.275000X0.200000X-0.275000X0*%
%TD*%
%TA.AperFunction,SMDPad,CuDef*%
%ADD22RoundRect,0.200000X-0.200000X-0.275000X0.200000X-0.275000X0.200000X0.275000X-0.200000X0.275000X0*%
%TD*%
%TA.AperFunction,ComponentPad*%
%ADD23RoundRect,0.250000X0.350000X0.350000X-0.350000X0.350000X-0.350000X-0.350000X0.350000X-0.350000X0*%
%TD*%
%TA.AperFunction,ComponentPad*%
%ADD24RoundRect,0.250000X-0.600000X-0.600000X0.600000X-0.600000X0.600000X0.600000X-0.600000X0.600000X0*%
%TD*%
%TA.AperFunction,ComponentPad*%
%ADD25C,1.700000*%
%TD*%
%TA.AperFunction,SMDPad,CuDef*%
%ADD26RoundRect,0.150000X-0.825000X-0.150000X0.825000X-0.150000X0.825000X0.150000X-0.825000X0.150000X0*%
%TD*%
%TA.AperFunction,ViaPad*%
%ADD27C,0.600000*%
%TD*%
%TA.AperFunction,Conductor*%
%ADD28C,0.300000*%
%TD*%
%TA.AperFunction,Conductor*%
%ADD29C,0.200000*%
%TD*%
G04 APERTURE END LIST*
D10*
%TO.P,C1,1*%
%TO.N,GND3_3*%
X48750000Y-27250000D03*
D11*
%TO.P,C1,2*%
%TO.N,VDD3_3*%
X50750000Y-27250000D03*
%TD*%
D12*
%TO.P,C4,1*%
%TO.N,VDD3_3*%
X50387500Y-54500000D03*
%TO.P,C4,2*%
%TO.N,GND3_3*%
X50387500Y-52950000D03*
%TD*%
%TO.P,C8,1*%
%TO.N,VDD5*%
X65750000Y-37750000D03*
%TO.P,C8,2*%
%TO.N,GND5*%
X65750000Y-36200000D03*
%TD*%
%TO.P,C5,1*%
%TO.N,VDD3_3*%
X56000000Y-37775000D03*
%TO.P,C5,2*%
%TO.N,GND3_3*%
X56000000Y-36225000D03*
%TD*%
D13*
%TO.P,R1,1*%
%TO.N,/SYNC_TTL*%
X65750000Y-41675000D03*
%TO.P,R1,2*%
%TO.N,Net-(J3-Pad4)*%
X65750000Y-43325000D03*
%TD*%
D14*
%TO.P,J3,1*%
%TO.N,unconnected-(J3-Pad1)*%
X74000000Y-54250000D03*
%TO.P,J3,2*%
%TO.N,unconnected-(J3-Pad2)*%
X71000000Y-51750000D03*
%TO.P,J3,3*%
%TO.N,unconnected-(J3-Pad3)*%
X68500000Y-46750000D03*
%TO.P,J3,4*%
%TO.N,Net-(J3-Pad4)*%
X71000000Y-41750000D03*
%TO.P,J3,5*%
%TO.N,GND5*%
X74000000Y-39250000D03*
%TO.P,J3,6*%
%TO.N,Net-(J3-Pad6)*%
X73500000Y-46750000D03*
%TO.P,J3,7*%
%TO.N,GND5*%
X83500000Y-51750000D03*
X83500000Y-41750000D03*
%TD*%
D15*
%TO.P,H2,1*%
%TO.N,N/C*%
X63750000Y-53750000D03*
D16*
X63750000Y-53750000D03*
%TD*%
D17*
%TO.P,U1,1,V_{CC}*%
%TO.N,VDD3_3*%
X55387500Y-54500000D03*
%TO.P,U1,2,GND*%
%TO.N,GND3_3*%
X55387500Y-53550000D03*
%TO.P,U1,3,A*%
%TO.N,/SYNC+*%
X55387500Y-52600000D03*
%TO.P,U1,4,B*%
%TO.N,/SYNC-*%
X53112500Y-52600000D03*
%TO.P,U1,5,R*%
%TO.N,/SYNC*%
X53112500Y-54500000D03*
%TD*%
D18*
%TO.P,J2,1*%
%TO.N,VDD5*%
X72000000Y-31207500D03*
D19*
%TO.P,J2,2*%
%TO.N,GND5*%
X78000000Y-31207500D03*
D20*
%TO.P,J2,3,MountPin*%
X75000000Y-26507500D03*
%TD*%
D12*
%TO.P,C6,1*%
%TO.N,VDD3_3*%
X58000000Y-37775000D03*
%TO.P,C6,2*%
%TO.N,GND3_3*%
X58000000Y-36225000D03*
%TD*%
D21*
%TO.P,R3,1*%
%TO.N,/SYNC+*%
X55075000Y-50475000D03*
%TO.P,R3,2*%
%TO.N,/SYNC-*%
X53425000Y-50475000D03*
%TD*%
D22*
%TO.P,R2,1*%
%TO.N,/PIXEL_TTL*%
X63925000Y-45250000D03*
%TO.P,R2,2*%
%TO.N,Net-(J3-Pad6)*%
X65575000Y-45250000D03*
%TD*%
D23*
%TO.P,C2,1*%
%TO.N,GND5*%
X67000000Y-27250000D03*
D11*
%TO.P,C2,2*%
%TO.N,VDD5*%
X65000000Y-27250000D03*
%TD*%
D24*
%TO.P,J1,1,Pin_1*%
%TO.N,GND3_3*%
X48710000Y-36500000D03*
D25*
%TO.P,J1,2,Pin_2*%
%TO.N,/SYNC+*%
X51250000Y-36500000D03*
%TO.P,J1,3,Pin_3*%
%TO.N,/SYNC-*%
X48710000Y-39040000D03*
%TO.P,J1,4,Pin_4*%
%TO.N,/PIXEL+*%
X51250000Y-39040000D03*
%TO.P,J1,5,Pin_5*%
%TO.N,/PIXEL-*%
X48710000Y-41580000D03*
%TO.P,J1,6,Pin_6*%
%TO.N,VDD3_3*%
X51250000Y-41580000D03*
%TD*%
D26*
%TO.P,U3,1,VDD1*%
%TO.N,VDD3_3*%
X58525000Y-39595000D03*
%TO.P,U3,2,VIA*%
%TO.N,/SYNC*%
X58525000Y-40865000D03*
%TO.P,U3,3,VIB*%
%TO.N,/PIXEL*%
X58525000Y-42135000D03*
%TO.P,U3,4,GND1*%
%TO.N,GND3_3*%
X58525000Y-43405000D03*
%TO.P,U3,5,GND2*%
%TO.N,GND5*%
X63475000Y-43405000D03*
%TO.P,U3,6,VOB*%
%TO.N,/PIXEL_TTL*%
X63475000Y-42135000D03*
%TO.P,U3,7,VOA*%
%TO.N,/SYNC_TTL*%
X63475000Y-40865000D03*
%TO.P,U3,8,VDD2*%
%TO.N,VDD5*%
X63475000Y-39595000D03*
%TD*%
D17*
%TO.P,U2,1,V_{CC}*%
%TO.N,VDD3_3*%
X48025000Y-54500000D03*
%TO.P,U2,2,GND*%
%TO.N,GND3_3*%
X48025000Y-53550000D03*
%TO.P,U2,3,A*%
%TO.N,/PIXEL+*%
X48025000Y-52600000D03*
%TO.P,U2,4,B*%
%TO.N,/PIXEL-*%
X45750000Y-52600000D03*
%TO.P,U2,5,R*%
%TO.N,/PIXEL*%
X45750000Y-54500000D03*
%TD*%
D12*
%TO.P,C3,1*%
%TO.N,VDD3_3*%
X57750000Y-54500000D03*
%TO.P,C3,2*%
%TO.N,GND3_3*%
X57750000Y-52950000D03*
%TD*%
%TO.P,C7,1*%
%TO.N,VDD5*%
X63750000Y-37750000D03*
%TO.P,C7,2*%
%TO.N,GND5*%
X63750000Y-36200000D03*
%TD*%
D15*
%TO.P,H1,1*%
%TO.N,N/C*%
X56500000Y-27500000D03*
D16*
X56500000Y-27500000D03*
%TD*%
D21*
%TO.P,R4,1*%
%TO.N,/PIXEL+*%
X47712500Y-50475000D03*
%TO.P,R4,2*%
%TO.N,/PIXEL-*%
X46062500Y-50475000D03*
%TD*%
D27*
%TO.N,GND3_3*%
X51650000Y-53550000D03*
X59500000Y-38350000D03*
X59750000Y-25250000D03*
%TO.N,GND5*%
X70950000Y-46200000D03*
X70250000Y-44050000D03*
X62450000Y-38450000D03*
X62500000Y-25250000D03*
X84500000Y-25650000D03*
X85100000Y-56350000D03*
X62450000Y-45800000D03*
X62500000Y-56400000D03*
%TO.N,GND3_3*%
X50500000Y-44500000D03*
X58500000Y-44500000D03*
X55375000Y-56675000D03*
X56650000Y-53550000D03*
X49250000Y-53500000D03*
X56000000Y-35000000D03*
X58000000Y-35000000D03*
X55750000Y-42750000D03*
%TO.N,VDD3_3*%
X56650000Y-54500000D03*
X49250000Y-54500000D03*
X57000000Y-39500000D03*
%TO.N,VDD5*%
X65125000Y-39125000D03*
%TO.N,GND5*%
X64550000Y-44000000D03*
X63750000Y-35000000D03*
X65750000Y-35000000D03*
%TD*%
D28*
%TO.N,VDD3_3*%
X56650000Y-54500000D02*
X55387500Y-54500000D01*
X50387500Y-54500000D02*
X49250000Y-54500000D01*
X58000000Y-37775000D02*
X57000000Y-37775000D01*
X58525000Y-39595000D02*
X57095000Y-39595000D01*
X57000000Y-37775000D02*
X56000000Y-37775000D01*
X57750000Y-54500000D02*
X56650000Y-54500000D01*
X57000000Y-37775000D02*
X57000000Y-39500000D01*
X49250000Y-54500000D02*
X48025000Y-54500000D01*
X57095000Y-39595000D02*
X57000000Y-39500000D01*
%TO.N,VDD5*%
X63475000Y-39595000D02*
X63905000Y-39595000D01*
X64750000Y-38750000D02*
X65125000Y-39125000D01*
X64750000Y-37750000D02*
X65750000Y-37750000D01*
X63750000Y-37750000D02*
X64750000Y-37750000D01*
X63905000Y-39595000D02*
X64750000Y-38750000D01*
X64750000Y-37750000D02*
X64750000Y-38750000D01*
D29*
%TO.N,/SYNC-*%
X51726760Y-37889000D02*
X49861000Y-37889000D01*
X54025000Y-47992188D02*
X54025000Y-47800000D01*
X53112500Y-51650000D02*
X53112500Y-52600000D01*
X54025000Y-49875000D02*
X54025000Y-49000000D01*
X54025000Y-45000344D02*
X54025000Y-40187240D01*
X53425000Y-51337500D02*
X53112500Y-51650000D01*
X53617188Y-48592188D02*
X53617188Y-48400000D01*
X54025000Y-40187240D02*
X51726760Y-37889000D01*
X53425000Y-50475000D02*
X54025000Y-49875000D01*
X53425000Y-50475000D02*
X53425000Y-51337500D01*
X54025000Y-47800000D02*
X54025000Y-45000344D01*
X49861000Y-37889000D02*
X48710000Y-39040000D01*
X54025000Y-49000000D02*
G75*
G03*
X53821094Y-48796100I-203900J0D01*
G01*
X53821094Y-48796094D02*
G75*
G02*
X53617206Y-48592188I6J203894D01*
G01*
X53617188Y-48400000D02*
G75*
G02*
X53821094Y-48196088I203912J0D01*
G01*
X53821094Y-48196094D02*
G75*
G03*
X54024994Y-47992188I6J203894D01*
G01*
%TO.N,/PIXEL+*%
X47112500Y-43813896D02*
X47489760Y-43436636D01*
X48025000Y-51775000D02*
X48025000Y-52600000D01*
X47712500Y-50475000D02*
X47712500Y-51462500D01*
X47712500Y-51462500D02*
X48025000Y-51775000D01*
X47706435Y-48160000D02*
X47352500Y-48160000D01*
X49861000Y-42056760D02*
X49861000Y-40429000D01*
X47946435Y-47320000D02*
X47946435Y-47200000D01*
X47352500Y-48760000D02*
X47706435Y-48760000D01*
X47112500Y-47920000D02*
X47112500Y-47800000D01*
X47112500Y-46720000D02*
X47112500Y-46600000D01*
X47946448Y-46120000D02*
X47946448Y-46000000D01*
X47946435Y-48520000D02*
X47946435Y-48400000D01*
X47112500Y-45400000D02*
X47112500Y-43813896D01*
X47706435Y-46960000D02*
X47352500Y-46960000D01*
X47352500Y-46360000D02*
X47706448Y-46360000D01*
X49186760Y-42731000D02*
X49861000Y-42056760D01*
X47112500Y-49875000D02*
X47112500Y-49000000D01*
X47712500Y-50475000D02*
X47112500Y-49875000D01*
X47112500Y-45520000D02*
X47112500Y-45400000D01*
X47706448Y-45760000D02*
X47352500Y-45760000D01*
X47489760Y-43436636D02*
X48195396Y-42731000D01*
X47352500Y-47560000D02*
X47706435Y-47560000D01*
X49861000Y-40429000D02*
X51250000Y-39040000D01*
X48195396Y-42731000D02*
X49186760Y-42731000D01*
X47946448Y-46000000D02*
G75*
G03*
X47706448Y-45759952I-240048J0D01*
G01*
X47706448Y-46360000D02*
G75*
G03*
X47946400Y-46120000I-48J240000D01*
G01*
X47706435Y-47560000D02*
G75*
G03*
X47946400Y-47320000I-35J240000D01*
G01*
X47352500Y-45760000D02*
G75*
G02*
X47112500Y-45520000I0J240000D01*
G01*
X47112500Y-47800000D02*
G75*
G02*
X47352500Y-47560000I240000J0D01*
G01*
X47946435Y-48400000D02*
G75*
G03*
X47706435Y-48159965I-240035J0D01*
G01*
X47352500Y-46960000D02*
G75*
G02*
X47112500Y-46720000I0J240000D01*
G01*
X47352500Y-48160000D02*
G75*
G02*
X47112500Y-47920000I0J240000D01*
G01*
X47112500Y-46600000D02*
G75*
G02*
X47352500Y-46360000I240000J0D01*
G01*
X47112500Y-49000000D02*
G75*
G02*
X47352500Y-48760000I240000J0D01*
G01*
X47946435Y-47200000D02*
G75*
G03*
X47706435Y-46959965I-240035J0D01*
G01*
X47706435Y-48760000D02*
G75*
G03*
X47946400Y-48520000I-35J240000D01*
G01*
%TO.N,/SYNC+*%
X55387500Y-52600000D02*
X55387500Y-52525000D01*
X54475000Y-39725000D02*
X51250000Y-36500000D01*
X55075000Y-50475000D02*
X55075000Y-51325000D01*
X55208812Y-48520000D02*
X55208812Y-48400000D01*
X54968837Y-46960000D02*
X54715000Y-46960000D01*
X54715000Y-48760000D02*
X54968812Y-48760000D01*
X54968812Y-48160000D02*
X54715000Y-48160000D01*
X54475000Y-43803468D02*
X54475000Y-39725000D01*
X54475000Y-47920000D02*
X54475000Y-47800000D01*
X55387500Y-51637500D02*
X55387500Y-52600000D01*
X55208837Y-47320000D02*
X55208837Y-47200000D01*
X54475000Y-46600000D02*
X54475000Y-43803468D01*
X55075000Y-50475000D02*
X54475000Y-49875000D01*
X54475000Y-46720000D02*
X54475000Y-46600000D01*
X55075000Y-51325000D02*
X55387500Y-51637500D01*
X54475000Y-49875000D02*
X54475000Y-49000000D01*
X54715000Y-47560000D02*
X54968837Y-47560000D01*
X54475000Y-47800000D02*
G75*
G02*
X54715000Y-47560000I240000J0D01*
G01*
X54475000Y-49000000D02*
G75*
G02*
X54715000Y-48760000I240000J0D01*
G01*
X54968837Y-47560000D02*
G75*
G03*
X55208800Y-47320000I-37J240000D01*
G01*
X55208837Y-47200000D02*
G75*
G03*
X54968837Y-46959963I-240037J0D01*
G01*
X54715000Y-46960000D02*
G75*
G02*
X54475000Y-46720000I0J240000D01*
G01*
X55208812Y-48400000D02*
G75*
G03*
X54968812Y-48159988I-240012J0D01*
G01*
X54715000Y-48160000D02*
G75*
G02*
X54475000Y-47920000I0J240000D01*
G01*
X54968812Y-48760000D02*
G75*
G03*
X55208800Y-48520000I-12J240000D01*
G01*
%TO.N,/PIXEL-*%
X47885796Y-42404207D02*
X47970649Y-42319351D01*
X46662500Y-49875000D02*
X46662500Y-49002560D01*
X46662500Y-47922560D02*
X46662500Y-47802560D01*
X46662500Y-45522560D02*
X46662500Y-45402560D01*
X46767536Y-42134475D02*
X46852390Y-42049622D01*
X46662500Y-44202560D02*
X46662500Y-43627500D01*
X46662500Y-44322560D02*
X46662500Y-44202560D01*
X46062500Y-50475000D02*
X46662500Y-49875000D01*
X45681043Y-44922560D02*
X45681043Y-44802560D01*
X47970649Y-42319351D02*
X48430268Y-41859731D01*
X46422500Y-45162560D02*
X45921043Y-45162560D01*
X45681043Y-47322560D02*
X45681043Y-47202560D01*
X45921043Y-45762560D02*
X46422500Y-45762560D01*
X45921043Y-44562560D02*
X46422500Y-44562560D01*
X46422500Y-46362560D02*
X45921043Y-46362560D01*
X46422500Y-48762560D02*
X45921031Y-48762560D01*
X46062500Y-51437500D02*
X45750000Y-51750000D01*
X47191802Y-42049622D02*
X47546386Y-42404206D01*
X45681031Y-48522560D02*
X45681031Y-48402560D01*
X46662500Y-46722560D02*
X46662500Y-46602560D01*
X46422500Y-47562560D02*
X45921043Y-47562560D01*
X46662500Y-43627500D02*
X47122119Y-43167880D01*
X45921031Y-48162560D02*
X46422500Y-48162560D01*
X48430268Y-41859731D02*
X48710000Y-41580000D01*
X47122120Y-42828468D02*
X46767537Y-42473885D01*
X45750000Y-51750000D02*
X45750000Y-52600000D01*
X45681043Y-46122560D02*
X45681043Y-46002560D01*
X46062500Y-50475000D02*
X46062500Y-51437500D01*
X45921043Y-46962560D02*
X46422500Y-46962560D01*
X47122119Y-43167880D02*
G75*
G03*
X47122094Y-42828494I-169719J169680D01*
G01*
X46662500Y-46602560D02*
G75*
G03*
X46422500Y-46362600I-240000J-40D01*
G01*
X46422500Y-44562560D02*
G75*
G03*
X46662460Y-44322560I0J239960D01*
G01*
X45681043Y-46002560D02*
G75*
G02*
X45921043Y-45762643I239957J-40D01*
G01*
X46422500Y-46962560D02*
G75*
G03*
X46662460Y-46722560I0J239960D01*
G01*
X46422500Y-48162560D02*
G75*
G03*
X46662460Y-47922560I0J239960D01*
G01*
X46662500Y-45402560D02*
G75*
G03*
X46422500Y-45162600I-240000J-40D01*
G01*
X45681031Y-48402560D02*
G75*
G02*
X45921031Y-48162631I239969J-40D01*
G01*
X45681043Y-44802560D02*
G75*
G02*
X45921043Y-44562643I239957J-40D01*
G01*
X47546386Y-42404206D02*
G75*
G03*
X47885804Y-42404216I169714J169706D01*
G01*
X45921043Y-47562560D02*
G75*
G02*
X45681040Y-47322560I-43J239960D01*
G01*
X46662500Y-49002560D02*
G75*
G03*
X46422500Y-48762600I-240000J-40D01*
G01*
X45921043Y-45162560D02*
G75*
G02*
X45681040Y-44922560I-43J239960D01*
G01*
X46662500Y-47802560D02*
G75*
G03*
X46422500Y-47562600I-240000J-40D01*
G01*
X45921031Y-48762560D02*
G75*
G02*
X45681040Y-48522560I-31J239960D01*
G01*
X46422500Y-45762560D02*
G75*
G03*
X46662460Y-45522560I0J239960D01*
G01*
X45681043Y-47202560D02*
G75*
G02*
X45921043Y-46962643I239957J-40D01*
G01*
X45921043Y-46362560D02*
G75*
G02*
X45681040Y-46122560I-43J239960D01*
G01*
X46852390Y-42049622D02*
G75*
G02*
X47191802Y-42049622I169706J-169708D01*
G01*
X46767537Y-42473885D02*
G75*
G02*
X46767556Y-42134496I169663J169685D01*
G01*
%TO.N,/PIXEL_TTL*%
X63464774Y-45011742D02*
X63703032Y-45250000D01*
X62476516Y-44613436D02*
X62605803Y-44742723D01*
X63325044Y-44872012D02*
X63464774Y-45011742D01*
X63195756Y-44742723D02*
X63325044Y-44872012D01*
X62199000Y-43745968D02*
X62476516Y-44023484D01*
X63475000Y-42135000D02*
X62500001Y-42135000D01*
X62500001Y-42135000D02*
X62199000Y-42436001D01*
X62199000Y-42436001D02*
X62199000Y-43745968D01*
X63703032Y-45250000D02*
X63925000Y-45250000D01*
X62476516Y-44023484D02*
G75*
G02*
X62476544Y-44318488I-147516J-147516D01*
G01*
X62605803Y-44742723D02*
G75*
G03*
X62900780Y-44742723I147488J147491D01*
G01*
X62900780Y-44742723D02*
G75*
G02*
X63195756Y-44742723I147488J-147486D01*
G01*
X62476516Y-44318460D02*
G75*
G03*
X62476564Y-44613388I147484J-147440D01*
G01*
%TO.N,Net-(J3-Pad6)*%
X69473004Y-45179000D02*
X69593004Y-45179000D01*
X68633004Y-44939000D02*
X68633004Y-44503962D01*
X68873004Y-44263962D02*
X68993004Y-44263962D01*
X65646000Y-45179000D02*
X68393004Y-45179000D01*
X71042035Y-45179000D02*
X71929000Y-45179000D01*
X69593004Y-45179000D02*
X71042035Y-45179000D01*
X65575000Y-45250000D02*
X65646000Y-45179000D01*
X69233004Y-44503962D02*
X69233004Y-44939000D01*
X71929000Y-45179000D02*
X73500000Y-46750000D01*
X68393004Y-45179000D02*
G75*
G03*
X68633000Y-44939000I-4J240000D01*
G01*
X68633004Y-44503962D02*
G75*
G02*
X68873004Y-44264004I239996J-38D01*
G01*
X69233004Y-44939000D02*
G75*
G03*
X69473004Y-45178996I239996J0D01*
G01*
X68993004Y-44263962D02*
G75*
G02*
X69233038Y-44503962I-4J-240038D01*
G01*
%TO.N,/SYNC_TTL*%
X65750000Y-41500000D02*
X65375000Y-41125000D01*
X63750000Y-40250000D02*
X63475000Y-40525000D01*
X65709916Y-39998122D02*
X65092156Y-40615881D01*
X64809314Y-40559314D02*
X64500000Y-40250000D01*
X63475000Y-40525000D02*
X63475000Y-40865000D01*
X65750000Y-41675000D02*
X65750000Y-41500000D01*
X65992759Y-40054691D02*
X65936190Y-39998122D01*
X65375000Y-40898725D02*
X65992759Y-40280965D01*
X64500000Y-40250000D02*
X63750000Y-40250000D01*
X64865882Y-40615881D02*
X64809314Y-40559314D01*
X65092156Y-40615881D02*
G75*
G02*
X64865882Y-40615881I-113137J113137D01*
G01*
X65375000Y-41125000D02*
G75*
G02*
X65375037Y-40898763I113100J113100D01*
G01*
X65936190Y-39998122D02*
G75*
G03*
X65709916Y-39998122I-113137J-113137D01*
G01*
X65992759Y-40280965D02*
G75*
G03*
X65992787Y-40054663I-113159J113165D01*
G01*
%TO.N,Net-(J3-Pad4)*%
X68656652Y-43325000D02*
X69425000Y-43325000D01*
X66712143Y-43085000D02*
X66712143Y-42565000D01*
X66952143Y-42325000D02*
X67072143Y-42325000D01*
X69425000Y-43325000D02*
X71000000Y-41750000D01*
X68272143Y-43325000D02*
X68656652Y-43325000D01*
X68152143Y-43325000D02*
X68272143Y-43325000D01*
X67312143Y-43565000D02*
X67312143Y-44085000D01*
X67552143Y-44325000D02*
X67672143Y-44325000D01*
X67312143Y-42565000D02*
X67312143Y-43085000D01*
X67912143Y-44085000D02*
X67912143Y-43565000D01*
X67312143Y-43085000D02*
X67312143Y-43565000D01*
X65750000Y-43325000D02*
X66472143Y-43325000D01*
X67312143Y-44085000D02*
G75*
G03*
X67552143Y-44324957I239957J0D01*
G01*
X66472143Y-43325000D02*
G75*
G03*
X66712100Y-43085000I-43J240000D01*
G01*
X67072143Y-42325000D02*
G75*
G02*
X67312100Y-42565000I-43J-240000D01*
G01*
X67912143Y-43565000D02*
G75*
G02*
X68152143Y-43325043I239957J0D01*
G01*
X67672143Y-44325000D02*
G75*
G03*
X67912100Y-44085000I-43J240000D01*
G01*
X66712143Y-42565000D02*
G75*
G02*
X66952143Y-42325043I239957J0D01*
G01*
%TO.N,/SYNC*%
X58750000Y-47908806D02*
X58750000Y-47413368D01*
X59157509Y-48868806D02*
X58750000Y-48868806D01*
X57802516Y-49828806D02*
X57802516Y-49708806D01*
X57550001Y-40865000D02*
X58525000Y-40865000D01*
X57199000Y-41216001D02*
X57550001Y-40865000D01*
X58244822Y-55301000D02*
X58750000Y-54795822D01*
X58510000Y-48868806D02*
X58042516Y-48868806D01*
X59397478Y-51628806D02*
X59397478Y-51508806D01*
X59157478Y-50068806D02*
X58750000Y-50068806D01*
X58750000Y-54795822D02*
X58750000Y-52108806D01*
X58042516Y-49468806D02*
X58750000Y-49468806D01*
X58750000Y-51268806D02*
X58042516Y-51268806D01*
X59397509Y-49228806D02*
X59397509Y-49108806D01*
X53913500Y-55301000D02*
X58244822Y-55301000D01*
X58750000Y-50668806D02*
X59157478Y-50668806D01*
X53112500Y-54500000D02*
X53913500Y-55301000D01*
X58990000Y-51868806D02*
X59157478Y-51868806D01*
X58990000Y-51268806D02*
X58750000Y-51268806D01*
X58750000Y-50068806D02*
X58042516Y-50068806D01*
X57802516Y-51028806D02*
X57802516Y-50908806D01*
X58042516Y-48268806D02*
X58510000Y-48268806D01*
X59397478Y-50428806D02*
X59397478Y-50308806D01*
X58750000Y-49468806D02*
X59157509Y-49468806D01*
X58750000Y-48868806D02*
X58510000Y-48868806D01*
X58750000Y-46250000D02*
X57199000Y-44699000D01*
X57199000Y-44699000D02*
X57199000Y-41216001D01*
X58750000Y-47413368D02*
X58750000Y-46250000D01*
X59157478Y-51268806D02*
X58990000Y-51268806D01*
X58042516Y-50668806D02*
X58750000Y-50668806D01*
X58750000Y-48028806D02*
X58750000Y-47908806D01*
X57802516Y-48628806D02*
X57802516Y-48508806D01*
X59157509Y-49468806D02*
G75*
G03*
X59397506Y-49228806I-9J240006D01*
G01*
X58042516Y-48868806D02*
G75*
G02*
X57802494Y-48628806I-16J240006D01*
G01*
X57802516Y-48508806D02*
G75*
G02*
X58042516Y-48268816I239984J6D01*
G01*
X57802516Y-50908806D02*
G75*
G02*
X58042516Y-50668816I239984J6D01*
G01*
X59397509Y-49108806D02*
G75*
G03*
X59157509Y-48868791I-240009J6D01*
G01*
X58510000Y-48268806D02*
G75*
G03*
X58750006Y-48028806I0J240006D01*
G01*
X59397478Y-51508806D02*
G75*
G03*
X59157478Y-51268822I-239978J6D01*
G01*
X59397478Y-50308806D02*
G75*
G03*
X59157478Y-50068822I-239978J6D01*
G01*
X59157478Y-51868806D02*
G75*
G03*
X59397506Y-51628806I22J240006D01*
G01*
X58042516Y-50068806D02*
G75*
G02*
X57802494Y-49828806I-16J240006D01*
G01*
X57802516Y-49708806D02*
G75*
G02*
X58042516Y-49468816I239984J6D01*
G01*
X59157478Y-50668806D02*
G75*
G03*
X59397506Y-50428806I22J240006D01*
G01*
X58042516Y-51268806D02*
G75*
G02*
X57802494Y-51028806I-16J240006D01*
G01*
X58750000Y-52108806D02*
G75*
G02*
X58990000Y-51868800I240000J6D01*
G01*
%TO.N,/PIXEL*%
X58010000Y-55990000D02*
X58010000Y-56172962D01*
X58525000Y-42135000D02*
X58942678Y-42135000D01*
X57410000Y-56172962D02*
X57410000Y-55990000D01*
X58942678Y-42135000D02*
X59851000Y-43043322D01*
X47000000Y-55750000D02*
X45750000Y-54500000D01*
X57170000Y-55750000D02*
X57050000Y-55750000D01*
X57770000Y-56412962D02*
X57650000Y-56412962D01*
X58500000Y-55750000D02*
X58250000Y-55750000D01*
X55850000Y-55750000D02*
X52763618Y-55750000D01*
X56570000Y-56412962D02*
X56450000Y-56412962D01*
X56810000Y-55990000D02*
X56810000Y-56172962D01*
X59851000Y-54399000D02*
X58500000Y-55750000D01*
X55970000Y-55750000D02*
X55850000Y-55750000D01*
X56210000Y-56172962D02*
X56210000Y-55990000D01*
X52763618Y-55750000D02*
X47000000Y-55750000D01*
X59851000Y-43043322D02*
X59851000Y-54399000D01*
X56810000Y-56172962D02*
G75*
G02*
X56570000Y-56413000I-240000J-38D01*
G01*
X57650000Y-56412962D02*
G75*
G02*
X57410038Y-56172962I0J239962D01*
G01*
X58250000Y-55750000D02*
G75*
G03*
X58010000Y-55990000I0J-240000D01*
G01*
X56450000Y-56412962D02*
G75*
G02*
X56210038Y-56172962I0J239962D01*
G01*
X56210000Y-55990000D02*
G75*
G03*
X55970000Y-55750000I-240000J0D01*
G01*
X57050000Y-55750000D02*
G75*
G03*
X56810000Y-55990000I0J-240000D01*
G01*
X57410000Y-55990000D02*
G75*
G03*
X57170000Y-55750000I-240000J0D01*
G01*
X58010000Y-56172962D02*
G75*
G02*
X57770000Y-56413000I-240000J-38D01*
G01*
%TD*%
%TA.AperFunction,Conductor*%
%TO.N,GND3_3*%
G36*
X60175500Y-24770462D02*
G01*
X60230038Y-24825000D01*
X60250000Y-24899500D01*
X60250000Y-39164277D01*
X60230038Y-39238777D01*
X60175500Y-39293315D01*
X60101000Y-39313277D01*
X60026500Y-39293315D01*
X59971962Y-39238777D01*
X59957917Y-39205849D01*
X59957042Y-39202839D01*
X59951744Y-39184602D01*
X59868081Y-39043135D01*
X59751865Y-38926919D01*
X59610398Y-38843256D01*
X59544279Y-38824046D01*
X59452571Y-38797402D01*
X59452572Y-38797402D01*
X59441506Y-38796531D01*
X59415694Y-38794500D01*
X59415687Y-38794500D01*
X58841230Y-38794500D01*
X58766730Y-38774538D01*
X58712192Y-38720000D01*
X58692230Y-38645500D01*
X58712192Y-38571000D01*
X58735871Y-38540141D01*
X58754430Y-38521582D01*
X58822968Y-38453044D01*
X58912003Y-38308697D01*
X58965349Y-38147708D01*
X58975500Y-38048345D01*
X58975499Y-37501656D01*
X58965349Y-37402292D01*
X58912003Y-37241303D01*
X58822968Y-37096956D01*
X58703044Y-36977032D01*
X58628076Y-36930791D01*
X58558699Y-36887998D01*
X58558698Y-36887997D01*
X58558697Y-36887997D01*
X58397708Y-36834651D01*
X58298345Y-36824500D01*
X58298340Y-36824500D01*
X57701660Y-36824500D01*
X57602291Y-36834651D01*
X57441300Y-36887998D01*
X57296955Y-36977032D01*
X57193129Y-37080859D01*
X57176141Y-37090666D01*
X57162270Y-37104538D01*
X57143321Y-37109615D01*
X57126334Y-37119423D01*
X57087770Y-37124500D01*
X56912230Y-37124500D01*
X56837730Y-37104538D01*
X56806871Y-37080859D01*
X56703044Y-36977032D01*
X56558699Y-36887998D01*
X56558698Y-36887997D01*
X56558697Y-36887997D01*
X56397708Y-36834651D01*
X56298345Y-36824500D01*
X56298340Y-36824500D01*
X55701660Y-36824500D01*
X55602291Y-36834651D01*
X55441300Y-36887998D01*
X55296955Y-36977032D01*
X55177032Y-37096955D01*
X55087998Y-37241300D01*
X55034651Y-37402291D01*
X55024500Y-37501659D01*
X55024500Y-38048339D01*
X55024501Y-38048344D01*
X55034651Y-38147708D01*
X55087997Y-38308697D01*
X55177032Y-38453044D01*
X55296956Y-38572968D01*
X55441303Y-38662003D01*
X55602292Y-38715349D01*
X55701655Y-38725500D01*
X56200500Y-38725499D01*
X56275000Y-38745461D01*
X56329538Y-38799999D01*
X56349500Y-38874499D01*
X56349500Y-38987481D01*
X56329538Y-39061981D01*
X56324389Y-39070260D01*
X56290611Y-39120811D01*
X56290602Y-39120829D01*
X56230263Y-39266501D01*
X56230262Y-39266505D01*
X56199500Y-39421157D01*
X56199500Y-39578842D01*
X56230262Y-39733494D01*
X56230263Y-39733498D01*
X56290604Y-39879176D01*
X56290605Y-39879178D01*
X56290606Y-39879179D01*
X56378211Y-40010289D01*
X56489711Y-40121789D01*
X56620821Y-40209394D01*
X56766503Y-40269737D01*
X56921158Y-40300500D01*
X56928337Y-40301928D01*
X56928087Y-40303182D01*
X56932473Y-40304833D01*
X56944854Y-40304833D01*
X56968028Y-40318212D01*
X56993070Y-40327636D01*
X57000924Y-40337205D01*
X57011649Y-40343397D01*
X57025029Y-40366572D01*
X57042004Y-40387253D01*
X57044021Y-40399468D01*
X57050213Y-40410192D01*
X57050213Y-40436949D01*
X57054574Y-40463350D01*
X57050213Y-40474938D01*
X57050213Y-40487320D01*
X57036833Y-40510494D01*
X57027410Y-40535536D01*
X57011649Y-40554115D01*
X56830286Y-40735479D01*
X56718480Y-40847284D01*
X56718479Y-40847286D01*
X56704106Y-40872182D01*
X56704104Y-40872185D01*
X56639423Y-40984213D01*
X56598499Y-41136943D01*
X56598499Y-41307062D01*
X56598500Y-41307075D01*
X56598500Y-44610797D01*
X56598499Y-44610815D01*
X56598499Y-44619943D01*
X56598499Y-44778057D01*
X56639423Y-44930785D01*
X56639424Y-44930786D01*
X56658420Y-44963688D01*
X56658421Y-44963690D01*
X56718480Y-45067716D01*
X56838774Y-45188010D01*
X56838780Y-45188015D01*
X58105859Y-46455094D01*
X58144423Y-46521889D01*
X58149500Y-46560453D01*
X58149500Y-47519306D01*
X58139697Y-47555892D01*
X58129546Y-47593792D01*
X58129540Y-47593797D01*
X58129538Y-47593806D01*
X58102280Y-47621064D01*
X58075014Y-47648336D01*
X58075005Y-47648338D01*
X58075000Y-47648344D01*
X58000516Y-47668306D01*
X57963459Y-47668306D01*
X57963444Y-47668309D01*
X57959775Y-47668310D01*
X57959774Y-47668310D01*
X57797379Y-47700603D01*
X57797377Y-47700603D01*
X57644415Y-47763954D01*
X57644414Y-47763954D01*
X57506742Y-47855937D01*
X57506735Y-47855942D01*
X57389666Y-47973006D01*
X57389663Y-47973010D01*
X57389661Y-47973013D01*
X57297674Y-48110679D01*
X57297672Y-48110681D01*
X57297670Y-48110686D01*
X57234316Y-48263637D01*
X57234311Y-48263654D01*
X57202015Y-48426028D01*
X57202014Y-48426040D01*
X57202016Y-48500090D01*
X57202016Y-48548539D01*
X57202015Y-48548561D01*
X57202015Y-48567083D01*
X57201993Y-48567165D01*
X57201995Y-48711599D01*
X57201996Y-48711608D01*
X57234301Y-48873993D01*
X57234302Y-48873994D01*
X57297667Y-49026955D01*
X57337147Y-49086038D01*
X57361941Y-49159072D01*
X57346896Y-49234719D01*
X57337149Y-49251601D01*
X57297671Y-49310683D01*
X57234316Y-49463637D01*
X57234311Y-49463654D01*
X57202015Y-49626028D01*
X57202014Y-49626040D01*
X57202016Y-49696135D01*
X57202016Y-49748539D01*
X57202015Y-49748561D01*
X57202015Y-49767083D01*
X57201993Y-49767165D01*
X57201995Y-49911599D01*
X57201996Y-49911608D01*
X57234301Y-50073993D01*
X57234302Y-50073994D01*
X57297667Y-50226955D01*
X57337147Y-50286038D01*
X57361941Y-50359072D01*
X57346896Y-50434719D01*
X57337149Y-50451601D01*
X57297671Y-50510683D01*
X57234316Y-50663637D01*
X57234311Y-50663654D01*
X57202015Y-50826028D01*
X57202014Y-50826040D01*
X57202016Y-50896135D01*
X57202016Y-50948539D01*
X57202015Y-50948561D01*
X57202015Y-50967083D01*
X57201993Y-50967165D01*
X57201995Y-51111599D01*
X57201996Y-51111608D01*
X57234301Y-51273991D01*
X57297667Y-51426956D01*
X57389654Y-51564614D01*
X57389663Y-51564625D01*
X57506731Y-51681683D01*
X57506745Y-51681694D01*
X57644405Y-51773665D01*
X57644408Y-51773666D01*
X57644411Y-51773668D01*
X57797381Y-51837020D01*
X57959771Y-51869311D01*
X58000531Y-51869308D01*
X58000569Y-51869318D01*
X58000608Y-51869308D01*
X58000612Y-51869308D01*
X58037844Y-51879304D01*
X58075030Y-51889266D01*
X58075059Y-51889295D01*
X58075101Y-51889307D01*
X58102349Y-51916582D01*
X58129571Y-51943800D01*
X58129581Y-51943840D01*
X58129612Y-51943871D01*
X58129704Y-51944299D01*
X58149538Y-52018299D01*
X58149538Y-52018381D01*
X58149534Y-52025855D01*
X58149498Y-52026038D01*
X58149500Y-52096066D01*
X58149500Y-53400500D01*
X58129538Y-53475000D01*
X58075000Y-53529538D01*
X58000500Y-53549500D01*
X57451660Y-53549500D01*
X57352291Y-53559651D01*
X57191300Y-53612998D01*
X57046952Y-53702034D01*
X57040146Y-53707416D01*
X57038772Y-53705678D01*
X56982700Y-53738041D01*
X56905572Y-53738031D01*
X56887136Y-53731770D01*
X56883497Y-53730263D01*
X56883495Y-53730262D01*
X56728842Y-53699500D01*
X56571158Y-53699500D01*
X56416505Y-53730262D01*
X56416501Y-53730263D01*
X56316779Y-53771569D01*
X56240310Y-53781636D01*
X56183915Y-53762163D01*
X56160401Y-53748257D01*
X56141463Y-53742755D01*
X56103650Y-53731769D01*
X56002571Y-53702402D01*
X56002572Y-53702402D01*
X55991506Y-53701531D01*
X55965694Y-53699500D01*
X54809306Y-53699500D01*
X54784722Y-53701434D01*
X54772428Y-53702402D01*
X54614599Y-53748257D01*
X54473136Y-53831918D01*
X54473133Y-53831920D01*
X54355359Y-53949695D01*
X54288564Y-53988259D01*
X54211436Y-53988259D01*
X54144641Y-53949695D01*
X54026866Y-53831920D01*
X54026865Y-53831919D01*
X53924818Y-53771569D01*
X53885400Y-53748257D01*
X53885399Y-53748256D01*
X53885398Y-53748256D01*
X53819279Y-53729046D01*
X53727571Y-53702402D01*
X53727572Y-53702402D01*
X53716506Y-53701531D01*
X53690694Y-53699500D01*
X52534306Y-53699500D01*
X52509722Y-53701434D01*
X52497428Y-53702402D01*
X52339599Y-53748257D01*
X52198136Y-53831918D01*
X52198133Y-53831920D01*
X52081920Y-53948133D01*
X52081918Y-53948136D01*
X51998257Y-54089599D01*
X51952402Y-54247428D01*
X51952402Y-54247431D01*
X51949500Y-54284306D01*
X51949500Y-54715694D01*
X51951757Y-54744374D01*
X51952402Y-54752571D01*
X51998256Y-54910399D01*
X52006687Y-54924654D01*
X52027427Y-54998942D01*
X52008245Y-55073646D01*
X51954281Y-55128752D01*
X51879993Y-55149492D01*
X51878435Y-55149500D01*
X51467470Y-55149500D01*
X51392970Y-55129538D01*
X51338432Y-55075000D01*
X51318470Y-55000500D01*
X51326032Y-54953635D01*
X51352849Y-54872708D01*
X51363000Y-54773345D01*
X51362999Y-54226656D01*
X51352849Y-54127292D01*
X51299503Y-53966303D01*
X51210468Y-53821956D01*
X51090544Y-53702032D01*
X50946197Y-53612997D01*
X50785208Y-53559651D01*
X50685845Y-53549500D01*
X50685840Y-53549500D01*
X50089160Y-53549500D01*
X49989791Y-53559651D01*
X49828800Y-53612998D01*
X49684454Y-53702033D01*
X49676028Y-53710459D01*
X49609232Y-53749020D01*
X49532104Y-53749018D01*
X49513664Y-53742758D01*
X49483497Y-53730263D01*
X49483496Y-53730262D01*
X49483492Y-53730261D01*
X49328842Y-53699500D01*
X49171158Y-53699500D01*
X49016505Y-53730262D01*
X48938831Y-53762435D01*
X48862363Y-53772501D01*
X48805968Y-53753028D01*
X48797901Y-53748257D01*
X48778963Y-53742755D01*
X48741150Y-53731769D01*
X48640071Y-53702402D01*
X48640072Y-53702402D01*
X48629006Y-53701531D01*
X48603194Y-53699500D01*
X47446806Y-53699500D01*
X47422222Y-53701434D01*
X47409928Y-53702402D01*
X47252099Y-53748257D01*
X47110636Y-53831918D01*
X47110633Y-53831920D01*
X46992859Y-53949695D01*
X46926064Y-53988259D01*
X46848936Y-53988259D01*
X46782141Y-53949695D01*
X46664366Y-53831920D01*
X46664365Y-53831919D01*
X46562318Y-53771569D01*
X46522900Y-53748257D01*
X46522899Y-53748256D01*
X46522898Y-53748256D01*
X46456779Y-53729046D01*
X46365071Y-53702402D01*
X46365072Y-53702402D01*
X46354006Y-53701531D01*
X46328194Y-53699500D01*
X45171806Y-53699500D01*
X45147222Y-53701434D01*
X45134928Y-53702402D01*
X44977099Y-53748257D01*
X44835636Y-53831918D01*
X44835633Y-53831920D01*
X44719420Y-53948133D01*
X44719418Y-53948136D01*
X44635757Y-54089599D01*
X44589902Y-54247428D01*
X44589902Y-54247431D01*
X44587000Y-54284306D01*
X44587000Y-54715694D01*
X44589257Y-54744374D01*
X44589902Y-54752571D01*
X44595938Y-54773345D01*
X44635756Y-54910398D01*
X44719419Y-55051865D01*
X44835635Y-55168081D01*
X44977102Y-55251744D01*
X45134928Y-55297597D01*
X45134927Y-55297597D01*
X45134931Y-55297598D01*
X45171806Y-55300500D01*
X45639547Y-55300500D01*
X45714047Y-55320462D01*
X45744906Y-55344141D01*
X46519478Y-56118713D01*
X46519480Y-56118716D01*
X46631284Y-56230520D01*
X46696545Y-56268198D01*
X46707593Y-56274576D01*
X46707596Y-56274579D01*
X46768212Y-56309576D01*
X46768214Y-56309576D01*
X46768215Y-56309577D01*
X46920943Y-56350501D01*
X46920948Y-56350501D01*
X47088186Y-56350501D01*
X47088202Y-56350500D01*
X52684561Y-56350500D01*
X55514263Y-56350500D01*
X55588763Y-56370462D01*
X55643301Y-56425000D01*
X55651924Y-56442489D01*
X55705149Y-56571027D01*
X55705150Y-56571029D01*
X55705152Y-56571033D01*
X55797120Y-56708701D01*
X55797123Y-56708705D01*
X55824350Y-56735937D01*
X55833562Y-56745150D01*
X55872120Y-56811948D01*
X55872114Y-56889076D01*
X55833544Y-56955868D01*
X55766746Y-56994426D01*
X55728194Y-56999500D01*
X46254878Y-56999500D01*
X46245133Y-56999181D01*
X45998757Y-56983032D01*
X45979434Y-56980488D01*
X45742074Y-56933275D01*
X45723247Y-56928230D01*
X45494067Y-56850433D01*
X45476061Y-56842975D01*
X45259009Y-56735937D01*
X45242130Y-56726192D01*
X45040899Y-56591733D01*
X45025437Y-56579869D01*
X45015382Y-56571051D01*
X44843471Y-56420289D01*
X44829710Y-56406528D01*
X44670126Y-56224557D01*
X44658266Y-56209100D01*
X44523807Y-56007869D01*
X44514062Y-55990990D01*
X44407024Y-55773938D01*
X44399566Y-55755932D01*
X44321769Y-55526752D01*
X44316726Y-55507934D01*
X44269510Y-55270562D01*
X44266967Y-55251242D01*
X44261516Y-55168081D01*
X44250819Y-55004866D01*
X44250500Y-54995121D01*
X44250500Y-52384306D01*
X44587000Y-52384306D01*
X44587000Y-52815694D01*
X44589257Y-52844374D01*
X44589902Y-52852571D01*
X44612500Y-52930351D01*
X44635756Y-53010398D01*
X44719419Y-53151865D01*
X44835635Y-53268081D01*
X44977102Y-53351744D01*
X45134928Y-53397597D01*
X45134927Y-53397597D01*
X45134931Y-53397598D01*
X45171806Y-53400500D01*
X45171813Y-53400500D01*
X46328187Y-53400500D01*
X46328194Y-53400500D01*
X46365069Y-53397598D01*
X46522898Y-53351744D01*
X46664365Y-53268081D01*
X46780581Y-53151865D01*
X46780581Y-53151864D01*
X46782141Y-53150305D01*
X46848936Y-53111741D01*
X46926064Y-53111741D01*
X46992859Y-53150305D01*
X46994419Y-53151865D01*
X47110635Y-53268081D01*
X47252102Y-53351744D01*
X47409928Y-53397597D01*
X47409927Y-53397597D01*
X47409931Y-53397598D01*
X47446806Y-53400500D01*
X47446813Y-53400500D01*
X48603187Y-53400500D01*
X48603194Y-53400500D01*
X48640069Y-53397598D01*
X48797898Y-53351744D01*
X48939365Y-53268081D01*
X49055581Y-53151865D01*
X49139244Y-53010398D01*
X49185098Y-52852569D01*
X49188000Y-52815694D01*
X49188000Y-52384306D01*
X49185098Y-52347431D01*
X49139244Y-52189602D01*
X49055581Y-52048135D01*
X48939365Y-51931919D01*
X48867312Y-51889307D01*
X48797897Y-51848255D01*
X48732930Y-51829380D01*
X48666957Y-51789425D01*
X48629802Y-51721837D01*
X48627823Y-51705492D01*
X48626776Y-51705630D01*
X48625501Y-51695950D01*
X48625501Y-51695943D01*
X48584577Y-51543216D01*
X48505520Y-51406284D01*
X48480679Y-51381443D01*
X48442115Y-51314648D01*
X48442115Y-51237520D01*
X48464150Y-51193406D01*
X48463309Y-51192898D01*
X48469624Y-51182452D01*
X48555978Y-51039606D01*
X48606586Y-50877196D01*
X48613000Y-50806616D01*
X48613000Y-50143384D01*
X48606586Y-50072804D01*
X48555978Y-49910394D01*
X48467972Y-49764815D01*
X48347685Y-49644528D01*
X48347684Y-49644527D01*
X48299158Y-49615192D01*
X48202106Y-49556522D01*
X48202100Y-49556520D01*
X48202098Y-49556519D01*
X48135578Y-49535791D01*
X48070390Y-49494569D01*
X48034547Y-49426276D01*
X48037653Y-49349210D01*
X48078875Y-49284022D01*
X48099052Y-49269680D01*
X48098531Y-49268900D01*
X48104615Y-49264833D01*
X48104617Y-49264833D01*
X48242263Y-49172842D01*
X48359320Y-49055768D01*
X48451291Y-48918109D01*
X48514640Y-48765153D01*
X48546936Y-48602778D01*
X48546935Y-48520000D01*
X48546935Y-48447086D01*
X48546935Y-48320943D01*
X48546903Y-48320828D01*
X48546903Y-48317244D01*
X48546901Y-48317233D01*
X48546900Y-48317232D01*
X48546901Y-48317226D01*
X48514607Y-48154857D01*
X48451260Y-48001908D01*
X48411771Y-47942802D01*
X48386984Y-47869767D01*
X48402036Y-47794122D01*
X48411774Y-47777256D01*
X48413161Y-47775181D01*
X48451291Y-47718109D01*
X48514640Y-47565153D01*
X48546936Y-47402778D01*
X48546935Y-47320000D01*
X48546935Y-47247086D01*
X48546935Y-47120943D01*
X48546903Y-47120828D01*
X48546903Y-47117244D01*
X48546901Y-47117233D01*
X48546900Y-47117232D01*
X48546901Y-47117226D01*
X48514607Y-46954857D01*
X48451260Y-46801908D01*
X48411778Y-46742813D01*
X48386992Y-46669781D01*
X48402042Y-46594136D01*
X48411769Y-46577287D01*
X48451309Y-46518102D01*
X48477360Y-46455201D01*
X48514652Y-46365155D01*
X48514653Y-46365152D01*
X48514655Y-46365148D01*
X48546949Y-46202776D01*
X48546948Y-46120000D01*
X48546948Y-46047086D01*
X48546948Y-45920943D01*
X48546903Y-45920780D01*
X48546903Y-45917252D01*
X48546901Y-45917236D01*
X48546900Y-45917235D01*
X48546901Y-45917228D01*
X48514609Y-45754865D01*
X48451266Y-45601920D01*
X48402219Y-45528503D01*
X48359312Y-45464277D01*
X48359308Y-45464272D01*
X48359306Y-45464269D01*
X48242261Y-45347201D01*
X48242260Y-45347200D01*
X48242259Y-45347199D01*
X48104629Y-45255213D01*
X48104624Y-45255210D01*
X47951700Y-45191841D01*
X47951690Y-45191838D01*
X47859278Y-45173439D01*
X47832904Y-45168188D01*
X47763737Y-45134064D01*
X47720899Y-45069926D01*
X47713000Y-45022057D01*
X47713000Y-44124349D01*
X47732962Y-44049849D01*
X47756641Y-44018990D01*
X48400490Y-43375141D01*
X48467285Y-43336577D01*
X48505849Y-43331500D01*
X49098558Y-43331500D01*
X49098574Y-43331501D01*
X49107703Y-43331501D01*
X49265812Y-43331501D01*
X49265817Y-43331501D01*
X49418545Y-43290577D01*
X49418547Y-43290576D01*
X49473609Y-43258786D01*
X49473610Y-43258785D01*
X49473619Y-43258780D01*
X49555476Y-43211520D01*
X49667280Y-43099716D01*
X49667280Y-43099714D01*
X49679542Y-43087453D01*
X49679546Y-43087448D01*
X50158190Y-42608804D01*
X50224985Y-42570240D01*
X50302113Y-42570240D01*
X50365367Y-42606760D01*
X50365758Y-42606303D01*
X50368223Y-42608408D01*
X50368908Y-42608804D01*
X50370208Y-42610104D01*
X50542184Y-42735051D01*
X50731588Y-42831557D01*
X50933757Y-42897246D01*
X51143713Y-42930500D01*
X51143718Y-42930500D01*
X51356282Y-42930500D01*
X51356287Y-42930500D01*
X51566243Y-42897246D01*
X51768412Y-42831557D01*
X51957816Y-42735051D01*
X52129792Y-42610104D01*
X52280104Y-42459792D01*
X52405051Y-42287816D01*
X52501557Y-42098412D01*
X52567246Y-41896243D01*
X52600500Y-41686287D01*
X52600500Y-41473713D01*
X52567246Y-41263757D01*
X52501557Y-41061588D01*
X52405051Y-40872184D01*
X52280104Y-40700208D01*
X52129792Y-40549896D01*
X51965517Y-40430544D01*
X51916979Y-40370604D01*
X51904913Y-40294426D01*
X51932553Y-40222420D01*
X51965517Y-40189456D01*
X52014109Y-40154152D01*
X52129792Y-40070104D01*
X52280104Y-39919792D01*
X52405051Y-39747816D01*
X52423770Y-39711077D01*
X52475375Y-39653762D01*
X52548728Y-39629926D01*
X52624171Y-39645961D01*
X52661888Y-39673363D01*
X53380859Y-40392334D01*
X53419423Y-40459129D01*
X53424500Y-40497693D01*
X53424500Y-47617899D01*
X53404538Y-47692399D01*
X53358283Y-47741786D01*
X53308310Y-47775178D01*
X53308305Y-47775182D01*
X53196267Y-47887224D01*
X53196264Y-47887227D01*
X53108238Y-48018971D01*
X53108236Y-48018975D01*
X53047601Y-48165362D01*
X53047599Y-48165366D01*
X53016688Y-48320773D01*
X53016688Y-48671246D01*
X53016702Y-48671352D01*
X53016702Y-48671380D01*
X53016712Y-48671434D01*
X53016917Y-48672983D01*
X53017607Y-48675935D01*
X53035848Y-48767665D01*
X53047606Y-48826791D01*
X53047608Y-48826797D01*
X53108233Y-48973183D01*
X53108235Y-48973186D01*
X53108236Y-48973188D01*
X53196263Y-49104942D01*
X53196266Y-49104945D01*
X53196266Y-49104946D01*
X53308302Y-49216992D01*
X53308304Y-49216994D01*
X53322700Y-49226613D01*
X53373553Y-49284602D01*
X53388598Y-49360249D01*
X53363804Y-49433283D01*
X53305815Y-49484136D01*
X53239917Y-49499500D01*
X53168384Y-49499500D01*
X53106626Y-49505112D01*
X53097803Y-49505914D01*
X52935396Y-49556521D01*
X52935391Y-49556524D01*
X52789815Y-49644527D01*
X52669527Y-49764815D01*
X52581524Y-49910391D01*
X52581521Y-49910396D01*
X52530914Y-50072803D01*
X52530914Y-50072804D01*
X52524500Y-50143384D01*
X52524500Y-50806616D01*
X52530914Y-50877196D01*
X52581522Y-51039606D01*
X52581526Y-51039612D01*
X52633156Y-51125021D01*
X52633586Y-51126507D01*
X52634681Y-51127602D01*
X52644287Y-51163452D01*
X52654614Y-51199104D01*
X52654243Y-51200606D01*
X52654644Y-51202101D01*
X52645036Y-51237959D01*
X52636155Y-51273991D01*
X52634683Y-51276602D01*
X52631980Y-51281284D01*
X52594432Y-51346321D01*
X52593542Y-51347862D01*
X52593540Y-51347864D01*
X52552923Y-51418212D01*
X52511999Y-51570942D01*
X52511999Y-51686297D01*
X52492037Y-51760797D01*
X52437499Y-51815335D01*
X52404570Y-51829380D01*
X52339602Y-51848255D01*
X52198136Y-51931918D01*
X52198133Y-51931920D01*
X52081920Y-52048133D01*
X52081918Y-52048136D01*
X51998257Y-52189599D01*
X51952402Y-52347428D01*
X51952402Y-52347431D01*
X51949500Y-52384306D01*
X51949500Y-52815694D01*
X51951757Y-52844374D01*
X51952402Y-52852571D01*
X51975000Y-52930351D01*
X51998256Y-53010398D01*
X52081919Y-53151865D01*
X52198135Y-53268081D01*
X52339602Y-53351744D01*
X52497428Y-53397597D01*
X52497427Y-53397597D01*
X52497431Y-53397598D01*
X52534306Y-53400500D01*
X52534313Y-53400500D01*
X53690687Y-53400500D01*
X53690694Y-53400500D01*
X53727569Y-53397598D01*
X53885398Y-53351744D01*
X54026865Y-53268081D01*
X54143081Y-53151865D01*
X54143081Y-53151864D01*
X54144641Y-53150305D01*
X54211436Y-53111741D01*
X54288564Y-53111741D01*
X54355359Y-53150305D01*
X54356919Y-53151865D01*
X54473135Y-53268081D01*
X54614602Y-53351744D01*
X54772428Y-53397597D01*
X54772427Y-53397597D01*
X54772431Y-53397598D01*
X54809306Y-53400500D01*
X54809313Y-53400500D01*
X55965687Y-53400500D01*
X55965694Y-53400500D01*
X56002569Y-53397598D01*
X56160398Y-53351744D01*
X56301865Y-53268081D01*
X56418081Y-53151865D01*
X56501744Y-53010398D01*
X56547598Y-52852569D01*
X56550500Y-52815694D01*
X56550500Y-52384306D01*
X56547598Y-52347431D01*
X56501744Y-52189602D01*
X56418081Y-52048135D01*
X56301865Y-51931919D01*
X56229812Y-51889307D01*
X56160397Y-51848255D01*
X56095430Y-51829380D01*
X56029457Y-51789425D01*
X55992302Y-51721837D01*
X55988001Y-51686297D01*
X55988001Y-51558447D01*
X55988001Y-51558443D01*
X55947077Y-51405716D01*
X55869007Y-51270494D01*
X55849046Y-51195996D01*
X55869008Y-51121496D01*
X55870508Y-51118957D01*
X55918478Y-51039606D01*
X55969086Y-50877196D01*
X55975500Y-50806616D01*
X55975500Y-50143384D01*
X55969086Y-50072804D01*
X55918478Y-49910394D01*
X55830472Y-49764815D01*
X55710185Y-49644528D01*
X55710184Y-49644527D01*
X55661658Y-49615192D01*
X55564606Y-49556522D01*
X55564596Y-49556519D01*
X55513609Y-49540631D01*
X55429968Y-49514568D01*
X55364782Y-49473347D01*
X55328938Y-49405053D01*
X55332043Y-49327988D01*
X55373265Y-49262800D01*
X55391509Y-49248431D01*
X55504614Y-49172853D01*
X55621680Y-49055781D01*
X55713658Y-48918120D01*
X55777014Y-48765161D01*
X55809312Y-48602781D01*
X55809312Y-48520000D01*
X55809312Y-48447086D01*
X55809312Y-48320943D01*
X55809312Y-48317339D01*
X55809300Y-48317223D01*
X55798646Y-48263654D01*
X55777003Y-48154843D01*
X55758710Y-48110679D01*
X55713650Y-48001890D01*
X55713644Y-48001879D01*
X55674177Y-47942811D01*
X55649386Y-47869776D01*
X55664434Y-47794130D01*
X55674169Y-47777266D01*
X55713693Y-47718108D01*
X55777043Y-47565152D01*
X55809338Y-47402778D01*
X55809337Y-47320000D01*
X55809337Y-47247086D01*
X55809337Y-47120943D01*
X55809303Y-47120821D01*
X55809303Y-47117245D01*
X55809302Y-47117235D01*
X55809300Y-47117229D01*
X55809301Y-47117226D01*
X55777007Y-46954859D01*
X55777005Y-46954855D01*
X55777005Y-46954854D01*
X55713664Y-46801916D01*
X55713660Y-46801908D01*
X55621697Y-46664259D01*
X55621693Y-46664254D01*
X55504643Y-46547186D01*
X55367008Y-46455203D01*
X55366996Y-46455196D01*
X55214067Y-46391830D01*
X55195407Y-46388115D01*
X55126239Y-46353991D01*
X55083399Y-46289854D01*
X55075500Y-46241983D01*
X55075500Y-39816075D01*
X55075501Y-39816062D01*
X55075501Y-39645947D01*
X55075501Y-39645943D01*
X55034577Y-39493216D01*
X54955520Y-39356284D01*
X52594589Y-36995354D01*
X52556026Y-36928560D01*
X52556026Y-36851432D01*
X52558237Y-36843966D01*
X52567246Y-36816243D01*
X52600500Y-36606287D01*
X52600500Y-36393713D01*
X52567246Y-36183757D01*
X52501557Y-35981588D01*
X52405051Y-35792184D01*
X52280104Y-35620208D01*
X52129792Y-35469896D01*
X51957816Y-35344949D01*
X51768412Y-35248443D01*
X51566243Y-35182754D01*
X51356287Y-35149500D01*
X51143713Y-35149500D01*
X50968749Y-35177211D01*
X50933756Y-35182754D01*
X50731594Y-35248441D01*
X50731588Y-35248443D01*
X50731582Y-35248445D01*
X50731582Y-35248446D01*
X50542182Y-35344950D01*
X50542181Y-35344950D01*
X50370209Y-35469895D01*
X50370205Y-35469898D01*
X50228652Y-35611451D01*
X50161857Y-35650015D01*
X50084728Y-35650015D01*
X50017934Y-35611451D01*
X49996476Y-35584313D01*
X49902319Y-35431659D01*
X49778340Y-35307680D01*
X49629121Y-35215642D01*
X49462697Y-35160494D01*
X49462688Y-35160492D01*
X49359989Y-35150000D01*
X48960000Y-35150000D01*
X48960000Y-36066988D01*
X48902993Y-36034075D01*
X48775826Y-36000000D01*
X48644174Y-36000000D01*
X48517007Y-36034075D01*
X48460000Y-36066988D01*
X48460000Y-35150000D01*
X48060026Y-35150000D01*
X47957303Y-35160494D01*
X47790878Y-35215642D01*
X47641659Y-35307680D01*
X47517680Y-35431659D01*
X47425642Y-35580878D01*
X47370494Y-35747302D01*
X47370492Y-35747311D01*
X47360000Y-35850010D01*
X47360000Y-36250000D01*
X48276988Y-36250000D01*
X48244075Y-36307007D01*
X48210000Y-36434174D01*
X48210000Y-36565826D01*
X48244075Y-36692993D01*
X48276988Y-36750000D01*
X47360001Y-36750000D01*
X47360001Y-37149973D01*
X47370494Y-37252696D01*
X47425642Y-37419121D01*
X47517680Y-37568340D01*
X47641659Y-37692319D01*
X47794313Y-37786476D01*
X47847241Y-37842577D01*
X47865029Y-37917626D01*
X47842909Y-37991514D01*
X47821451Y-38018652D01*
X47679898Y-38160205D01*
X47679895Y-38160209D01*
X47554950Y-38332181D01*
X47554950Y-38332182D01*
X47458446Y-38521582D01*
X47458441Y-38521594D01*
X47393975Y-38720000D01*
X47392754Y-38723757D01*
X47359500Y-38933713D01*
X47359500Y-39146287D01*
X47392754Y-39356243D01*
X47458443Y-39558412D01*
X47554949Y-39747816D01*
X47679896Y-39919792D01*
X47830208Y-40070104D01*
X47901341Y-40121785D01*
X47994482Y-40189456D01*
X48043020Y-40249396D01*
X48055086Y-40325575D01*
X48027446Y-40397580D01*
X47994482Y-40430544D01*
X47830209Y-40549895D01*
X47830206Y-40549897D01*
X47679897Y-40700206D01*
X47679895Y-40700209D01*
X47554950Y-40872181D01*
X47554950Y-40872182D01*
X47458446Y-41061582D01*
X47458441Y-41061594D01*
X47392753Y-41263758D01*
X47392752Y-41263762D01*
X47390534Y-41277769D01*
X47359162Y-41348228D01*
X47296763Y-41393562D01*
X47220057Y-41401622D01*
X47214301Y-41400594D01*
X47104878Y-41378829D01*
X46939314Y-41378829D01*
X46776935Y-41411127D01*
X46776929Y-41411129D01*
X46623980Y-41474482D01*
X46623969Y-41474487D01*
X46486312Y-41566466D01*
X46486310Y-41566467D01*
X46483679Y-41569098D01*
X46483677Y-41569100D01*
X46287019Y-41765756D01*
X46286990Y-41765804D01*
X46284469Y-41768326D01*
X46284461Y-41768337D01*
X46192452Y-41905991D01*
X46129067Y-42058968D01*
X46096751Y-42221363D01*
X46096750Y-42221368D01*
X46096741Y-42386941D01*
X46096741Y-42386944D01*
X46111229Y-42459792D01*
X46129040Y-42549342D01*
X46154208Y-42610102D01*
X46192406Y-42702319D01*
X46192408Y-42702323D01*
X46284397Y-42839985D01*
X46284399Y-42839987D01*
X46284402Y-42839991D01*
X46337225Y-42892809D01*
X46337226Y-42892810D01*
X46337227Y-42892810D01*
X46337232Y-42892815D01*
X46354448Y-42922633D01*
X46375793Y-42959599D01*
X46375793Y-42959603D01*
X46375795Y-42959607D01*
X46375795Y-42998163D01*
X46375797Y-43036727D01*
X46375795Y-43036730D01*
X46375795Y-43036735D01*
X46354458Y-43073692D01*
X46337237Y-43103525D01*
X46337232Y-43103530D01*
X46285293Y-43155470D01*
X46285289Y-43155474D01*
X46285288Y-43155473D01*
X46181982Y-43258780D01*
X46139998Y-43331500D01*
X46102923Y-43395715D01*
X46061999Y-43548442D01*
X46062000Y-43642984D01*
X46062000Y-43813060D01*
X46042038Y-43887560D01*
X45987500Y-43942098D01*
X45913000Y-43962060D01*
X45839059Y-43962060D01*
X45838371Y-43962127D01*
X45675990Y-43994398D01*
X45675988Y-43994398D01*
X45523028Y-44057725D01*
X45385353Y-44149681D01*
X45385351Y-44149682D01*
X45268264Y-44266729D01*
X45176265Y-44404364D01*
X45176259Y-44404375D01*
X45112882Y-44557308D01*
X45112882Y-44557309D01*
X45080556Y-44719675D01*
X45080556Y-44719679D01*
X45080556Y-44719681D01*
X45080555Y-44723456D01*
X45080543Y-44723503D01*
X45080543Y-44799500D01*
X45080543Y-44802436D01*
X45080543Y-44802485D01*
X45080529Y-44884379D01*
X45080543Y-44884606D01*
X45080543Y-44902156D01*
X45080540Y-44922460D01*
X45080528Y-45005256D01*
X45112813Y-45167671D01*
X45176170Y-45320664D01*
X45215696Y-45379823D01*
X45240485Y-45452858D01*
X45225436Y-45528503D01*
X45215680Y-45545398D01*
X45176264Y-45604366D01*
X45176259Y-45604375D01*
X45112882Y-45757308D01*
X45112882Y-45757309D01*
X45080556Y-45919675D01*
X45080556Y-45919679D01*
X45080556Y-45919681D01*
X45080555Y-45923456D01*
X45080543Y-45923503D01*
X45080543Y-45999500D01*
X45080543Y-46002436D01*
X45080543Y-46002485D01*
X45080529Y-46084379D01*
X45080543Y-46084606D01*
X45080543Y-46102156D01*
X45080540Y-46122460D01*
X45080528Y-46205256D01*
X45112813Y-46367671D01*
X45176170Y-46520664D01*
X45215696Y-46579823D01*
X45240485Y-46652858D01*
X45225436Y-46728503D01*
X45215680Y-46745398D01*
X45176264Y-46804366D01*
X45176259Y-46804375D01*
X45112882Y-46957308D01*
X45112882Y-46957309D01*
X45080556Y-47119675D01*
X45080556Y-47119679D01*
X45080556Y-47119681D01*
X45080555Y-47123456D01*
X45080543Y-47123503D01*
X45080543Y-47199500D01*
X45080543Y-47202436D01*
X45080543Y-47202485D01*
X45080529Y-47284379D01*
X45080543Y-47284606D01*
X45080543Y-47302156D01*
X45080540Y-47322460D01*
X45080528Y-47405256D01*
X45112813Y-47567671D01*
X45176170Y-47720664D01*
X45215688Y-47779811D01*
X45240478Y-47852846D01*
X45225429Y-47928492D01*
X45215674Y-47945385D01*
X45176248Y-48004370D01*
X45176244Y-48004378D01*
X45112868Y-48157315D01*
X45080544Y-48319677D01*
X45080544Y-48319683D01*
X45080543Y-48323456D01*
X45080531Y-48323503D01*
X45080531Y-48399500D01*
X45080531Y-48402436D01*
X45080531Y-48402485D01*
X45080517Y-48484379D01*
X45080531Y-48484606D01*
X45080531Y-48579778D01*
X45080527Y-48605254D01*
X45112811Y-48767663D01*
X45156842Y-48873993D01*
X45176164Y-48920652D01*
X45176165Y-48920655D01*
X45268149Y-49058334D01*
X45268152Y-49058338D01*
X45385238Y-49175428D01*
X45522917Y-49267419D01*
X45522916Y-49267419D01*
X45522918Y-49267420D01*
X45522920Y-49267421D01*
X45564803Y-49284767D01*
X45625994Y-49331714D01*
X45655514Y-49402969D01*
X45645452Y-49479438D01*
X45598503Y-49540631D01*
X45580371Y-49551470D01*
X45580607Y-49551860D01*
X45572896Y-49556521D01*
X45572894Y-49556522D01*
X45517825Y-49589812D01*
X45427315Y-49644527D01*
X45307027Y-49764815D01*
X45219024Y-49910391D01*
X45219021Y-49910396D01*
X45168414Y-50072803D01*
X45168414Y-50072804D01*
X45162000Y-50143384D01*
X45162000Y-50806616D01*
X45168414Y-50877196D01*
X45219021Y-51039603D01*
X45219026Y-51039614D01*
X45306372Y-51184101D01*
X45327831Y-51258184D01*
X45309373Y-51333070D01*
X45302194Y-51344790D01*
X45294238Y-51356525D01*
X45269480Y-51381284D01*
X45226374Y-51455947D01*
X45223688Y-51460597D01*
X45223688Y-51460599D01*
X45190423Y-51518215D01*
X45190422Y-51518217D01*
X45149499Y-51670942D01*
X45149499Y-51686297D01*
X45129537Y-51760797D01*
X45074999Y-51815335D01*
X45042070Y-51829380D01*
X44977102Y-51848255D01*
X44835636Y-51931918D01*
X44835633Y-51931920D01*
X44719420Y-52048133D01*
X44719418Y-52048136D01*
X44635757Y-52189599D01*
X44589902Y-52347428D01*
X44589902Y-52347431D01*
X44587000Y-52384306D01*
X44250500Y-52384306D01*
X44250500Y-27649973D01*
X47650001Y-27649973D01*
X47660494Y-27752696D01*
X47715642Y-27919121D01*
X47807680Y-28068340D01*
X47931659Y-28192319D01*
X48080878Y-28284357D01*
X48247302Y-28339505D01*
X48247311Y-28339507D01*
X48350015Y-28349999D01*
X48500000Y-28349999D01*
X48500000Y-27500000D01*
X47650001Y-27500000D01*
X47650001Y-27649973D01*
X44250500Y-27649973D01*
X44250500Y-27210504D01*
X48450000Y-27210504D01*
X48450000Y-27289496D01*
X48470444Y-27365796D01*
X48509940Y-27434205D01*
X48565795Y-27490060D01*
X48634204Y-27529556D01*
X48710504Y-27550000D01*
X48789496Y-27550000D01*
X48865796Y-27529556D01*
X48934205Y-27490060D01*
X48990060Y-27434205D01*
X49000000Y-27416988D01*
X49000000Y-28349999D01*
X49149974Y-28349999D01*
X49252696Y-28339505D01*
X49419121Y-28284357D01*
X49568340Y-28192319D01*
X49692319Y-28068340D01*
X49692322Y-28068336D01*
X49715347Y-28031006D01*
X49771446Y-27978076D01*
X49846495Y-27960287D01*
X49920383Y-27982406D01*
X49947519Y-28003861D01*
X50033072Y-28089414D01*
X50173212Y-28191232D01*
X50327555Y-28269873D01*
X50492299Y-28323402D01*
X50663389Y-28350500D01*
X50663393Y-28350500D01*
X50836607Y-28350500D01*
X50836611Y-28350500D01*
X51007701Y-28323402D01*
X51172445Y-28269873D01*
X51326788Y-28191232D01*
X51466928Y-28089414D01*
X51589414Y-27966928D01*
X51691232Y-27826788D01*
X51769873Y-27672445D01*
X51823402Y-27507701D01*
X51847985Y-27352488D01*
X54249500Y-27352488D01*
X54249500Y-27647511D01*
X54288004Y-27939977D01*
X54288007Y-27939994D01*
X54364359Y-28224948D01*
X54364359Y-28224949D01*
X54477259Y-28497511D01*
X54624764Y-28752997D01*
X54624764Y-28752998D01*
X54804354Y-28987042D01*
X55012958Y-29195646D01*
X55247006Y-29375238D01*
X55502493Y-29522743D01*
X55732556Y-29618038D01*
X55775050Y-29635640D01*
X55917527Y-29673816D01*
X56060007Y-29711993D01*
X56352489Y-29750499D01*
X56352492Y-29750500D01*
X56352494Y-29750500D01*
X56647508Y-29750500D01*
X56647509Y-29750499D01*
X56939993Y-29711993D01*
X57224948Y-29635640D01*
X57224949Y-29635640D01*
X57224950Y-29635639D01*
X57224952Y-29635639D01*
X57497507Y-29522743D01*
X57752994Y-29375238D01*
X57987042Y-29195646D01*
X58195646Y-28987042D01*
X58375238Y-28752994D01*
X58522743Y-28497507D01*
X58635639Y-28224952D01*
X58711993Y-27939993D01*
X58750500Y-27647506D01*
X58750500Y-27352494D01*
X58711993Y-27060007D01*
X58635639Y-26775048D01*
X58522743Y-26502493D01*
X58375238Y-26247006D01*
X58375235Y-26247002D01*
X58375235Y-26247001D01*
X58195645Y-26012957D01*
X57987042Y-25804354D01*
X57752997Y-25624764D01*
X57497511Y-25477259D01*
X57497509Y-25477258D01*
X57497507Y-25477257D01*
X57412524Y-25442055D01*
X57224949Y-25364359D01*
X56939994Y-25288007D01*
X56939977Y-25288004D01*
X56647511Y-25249500D01*
X56647506Y-25249500D01*
X56352494Y-25249500D01*
X56352488Y-25249500D01*
X56060022Y-25288004D01*
X56060005Y-25288007D01*
X55775051Y-25364359D01*
X55775050Y-25364359D01*
X55502488Y-25477259D01*
X55247002Y-25624764D01*
X55247001Y-25624764D01*
X55012957Y-25804354D01*
X54804354Y-26012957D01*
X54624764Y-26247001D01*
X54624764Y-26247002D01*
X54477259Y-26502488D01*
X54364359Y-26775050D01*
X54364359Y-26775051D01*
X54288007Y-27060005D01*
X54288004Y-27060022D01*
X54249500Y-27352488D01*
X51847985Y-27352488D01*
X51850500Y-27336611D01*
X51850500Y-27163389D01*
X51823402Y-26992299D01*
X51769873Y-26827555D01*
X51691232Y-26673212D01*
X51589414Y-26533072D01*
X51466928Y-26410586D01*
X51466924Y-26410583D01*
X51326793Y-26308771D01*
X51326790Y-26308769D01*
X51326788Y-26308768D01*
X51172445Y-26230127D01*
X51124821Y-26214653D01*
X51007700Y-26176597D01*
X50906012Y-26160492D01*
X50836611Y-26149500D01*
X50663389Y-26149500D01*
X50597037Y-26160009D01*
X50492299Y-26176597D01*
X50348729Y-26223247D01*
X50327555Y-26230127D01*
X50327549Y-26230129D01*
X50327549Y-26230130D01*
X50173206Y-26308771D01*
X50033075Y-26410583D01*
X50033062Y-26410595D01*
X49947523Y-26496134D01*
X49880728Y-26534698D01*
X49803600Y-26534698D01*
X49736806Y-26496133D01*
X49715347Y-26468994D01*
X49692320Y-26431660D01*
X49568340Y-26307680D01*
X49419121Y-26215642D01*
X49252697Y-26160494D01*
X49252688Y-26160492D01*
X49149989Y-26150000D01*
X49000000Y-26150000D01*
X49000000Y-27083011D01*
X48990060Y-27065795D01*
X48934205Y-27009940D01*
X48865796Y-26970444D01*
X48789496Y-26950000D01*
X48710504Y-26950000D01*
X48634204Y-26970444D01*
X48565795Y-27009940D01*
X48509940Y-27065795D01*
X48470444Y-27134204D01*
X48450000Y-27210504D01*
X44250500Y-27210504D01*
X44250500Y-26850010D01*
X47650000Y-26850010D01*
X47650000Y-27000000D01*
X48500000Y-27000000D01*
X48500000Y-26150000D01*
X48350026Y-26150000D01*
X48247303Y-26160494D01*
X48080878Y-26215642D01*
X47931659Y-26307680D01*
X47807680Y-26431659D01*
X47715642Y-26580878D01*
X47660494Y-26747302D01*
X47660492Y-26747311D01*
X47650000Y-26850010D01*
X44250500Y-26850010D01*
X44250500Y-26754878D01*
X44250819Y-26745133D01*
X44261585Y-26580878D01*
X44266967Y-26498751D01*
X44269511Y-26479434D01*
X44283204Y-26410595D01*
X44316727Y-26242061D01*
X44321769Y-26223247D01*
X44399566Y-25994067D01*
X44407024Y-25976061D01*
X44408855Y-25972348D01*
X44514065Y-25759002D01*
X44523802Y-25742136D01*
X44658268Y-25540895D01*
X44670120Y-25525449D01*
X44829717Y-25343463D01*
X44843463Y-25329717D01*
X45025449Y-25170120D01*
X45040895Y-25158268D01*
X45242136Y-25023802D01*
X45259002Y-25014065D01*
X45476066Y-24907021D01*
X45494067Y-24899566D01*
X45723247Y-24821769D01*
X45742061Y-24816727D01*
X45979439Y-24769510D01*
X45998751Y-24766967D01*
X46245133Y-24750818D01*
X46254878Y-24750500D01*
X60101000Y-24750500D01*
X60175500Y-24770462D01*
G37*
%TD.AperFunction*%
%TA.AperFunction,Conductor*%
G36*
X58906725Y-42955462D02*
G01*
X58937584Y-42979141D01*
X59206859Y-43248416D01*
X59245423Y-43315211D01*
X59250500Y-43353775D01*
X59250500Y-45541547D01*
X59230538Y-45616047D01*
X59176000Y-45670585D01*
X59101500Y-45690547D01*
X59027000Y-45670585D01*
X58996141Y-45646906D01*
X57843141Y-44493906D01*
X57804577Y-44427111D01*
X57799500Y-44388547D01*
X57799500Y-43084500D01*
X57819462Y-43010000D01*
X57874000Y-42955462D01*
X57948500Y-42935500D01*
X58832225Y-42935500D01*
X58906725Y-42955462D01*
G37*
%TD.AperFunction*%
%TD*%
%TA.AperFunction,Conductor*%
%TO.N,GND5*%
G36*
X72862615Y-24770462D02*
G01*
X72917153Y-24825000D01*
X72937115Y-24899500D01*
X72917153Y-24974000D01*
X72916623Y-24974911D01*
X72879879Y-25037525D01*
X72879877Y-25037529D01*
X72797237Y-25256512D01*
X72752795Y-25486303D01*
X72752792Y-25486321D01*
X72750000Y-25538908D01*
X72750000Y-26257500D01*
X73566988Y-26257500D01*
X73534075Y-26314507D01*
X73500000Y-26441674D01*
X73500000Y-26573326D01*
X73534075Y-26700493D01*
X73566988Y-26757500D01*
X72750001Y-26757500D01*
X72750001Y-27476091D01*
X72752793Y-27528682D01*
X72752794Y-27528690D01*
X72797237Y-27758487D01*
X72879877Y-27977470D01*
X72879883Y-27977483D01*
X72998334Y-28179334D01*
X72998338Y-28179339D01*
X73149213Y-28358286D01*
X73328160Y-28509161D01*
X73328165Y-28509165D01*
X73530016Y-28627616D01*
X73530025Y-28627620D01*
X73638604Y-28668596D01*
X73701257Y-28713577D01*
X73733026Y-28783859D01*
X73725399Y-28860609D01*
X73680418Y-28923262D01*
X73610136Y-28955031D01*
X73585995Y-28957000D01*
X70202136Y-28957000D01*
X70202111Y-28957002D01*
X70142521Y-28963408D01*
X70142515Y-28963409D01*
X70007670Y-29013702D01*
X70007666Y-29013704D01*
X69892455Y-29099952D01*
X69892452Y-29099955D01*
X69806204Y-29215166D01*
X69806202Y-29215170D01*
X69755908Y-29350017D01*
X69749500Y-29409614D01*
X69749500Y-33005363D01*
X69749502Y-33005388D01*
X69755908Y-33064978D01*
X69755909Y-33064984D01*
X69806202Y-33199829D01*
X69806204Y-33199833D01*
X69892452Y-33315044D01*
X69892455Y-33315047D01*
X70007666Y-33401295D01*
X70007670Y-33401297D01*
X70142517Y-33451591D01*
X70202114Y-33457999D01*
X70202118Y-33457999D01*
X70202127Y-33458000D01*
X73797872Y-33457999D01*
X73857483Y-33451591D01*
X73953447Y-33415798D01*
X73992329Y-33401297D01*
X73992333Y-33401295D01*
X74049938Y-33358171D01*
X74107546Y-33315046D01*
X74193796Y-33199831D01*
X74244091Y-33064983D01*
X74249806Y-33011831D01*
X74250499Y-33005385D01*
X74250499Y-33005382D01*
X74250500Y-33005373D01*
X74250499Y-30143315D01*
X76000000Y-30143315D01*
X76000000Y-30957500D01*
X77500000Y-30957500D01*
X77500000Y-31457500D01*
X76000001Y-31457500D01*
X76000001Y-32271685D01*
X76010399Y-32403831D01*
X76010400Y-32403835D01*
X76065375Y-32622011D01*
X76065378Y-32622019D01*
X76158427Y-32826873D01*
X76286565Y-33011831D01*
X76445668Y-33170934D01*
X76630626Y-33299072D01*
X76835480Y-33392121D01*
X76835487Y-33392124D01*
X77053670Y-33447100D01*
X77185815Y-33457499D01*
X77750000Y-33457499D01*
X77750000Y-32640512D01*
X77807007Y-32673425D01*
X77934174Y-32707500D01*
X78065826Y-32707500D01*
X78192993Y-32673425D01*
X78250000Y-32640512D01*
X78250000Y-33457499D01*
X78814183Y-33457499D01*
X78814185Y-33457498D01*
X78946331Y-33447100D01*
X78946335Y-33447099D01*
X79164511Y-33392124D01*
X79164519Y-33392121D01*
X79369373Y-33299072D01*
X79554331Y-33170934D01*
X79713434Y-33011831D01*
X79841572Y-32826873D01*
X79934621Y-32622019D01*
X79934624Y-32622012D01*
X79989600Y-32403830D01*
X79989600Y-32403827D01*
X80000000Y-32271684D01*
X80000000Y-31457500D01*
X78500000Y-31457500D01*
X78500000Y-30957500D01*
X79999999Y-30957500D01*
X79999999Y-30143317D01*
X79999998Y-30143314D01*
X79989600Y-30011168D01*
X79989599Y-30011164D01*
X79934624Y-29792988D01*
X79934621Y-29792980D01*
X79841572Y-29588126D01*
X79713434Y-29403168D01*
X79554331Y-29244065D01*
X79369373Y-29115927D01*
X79164519Y-29022878D01*
X79164512Y-29022875D01*
X78946329Y-28967899D01*
X78814185Y-28957500D01*
X78250000Y-28957500D01*
X78250000Y-29774488D01*
X78192993Y-29741575D01*
X78065826Y-29707500D01*
X77934174Y-29707500D01*
X77807007Y-29741575D01*
X77750000Y-29774488D01*
X77750000Y-28957500D01*
X77185817Y-28957500D01*
X77185814Y-28957501D01*
X77053668Y-28967899D01*
X77053664Y-28967900D01*
X76835488Y-29022875D01*
X76835480Y-29022878D01*
X76630626Y-29115927D01*
X76445668Y-29244065D01*
X76286565Y-29403168D01*
X76158427Y-29588126D01*
X76065378Y-29792980D01*
X76065375Y-29792987D01*
X76010399Y-30011169D01*
X76010399Y-30011172D01*
X76000000Y-30143315D01*
X74250499Y-30143315D01*
X74250499Y-29409628D01*
X74244091Y-29350017D01*
X74229588Y-29311133D01*
X74193797Y-29215170D01*
X74193795Y-29215166D01*
X74107547Y-29099955D01*
X74107543Y-29099951D01*
X74008462Y-29025778D01*
X73960785Y-28965151D01*
X73949810Y-28888808D01*
X73978477Y-28817205D01*
X74039104Y-28769528D01*
X74097756Y-28757499D01*
X74750000Y-28757499D01*
X74750000Y-27007500D01*
X75250000Y-27007500D01*
X75250000Y-28757499D01*
X75968592Y-28757499D01*
X76021182Y-28754706D01*
X76021190Y-28754705D01*
X76250987Y-28710262D01*
X76469970Y-28627622D01*
X76469983Y-28627616D01*
X76671834Y-28509165D01*
X76671839Y-28509161D01*
X76850786Y-28358286D01*
X77001661Y-28179339D01*
X77001665Y-28179334D01*
X77120116Y-27977483D01*
X77120122Y-27977470D01*
X77202762Y-27758487D01*
X77247204Y-27528696D01*
X77247207Y-27528678D01*
X77250000Y-27476091D01*
X77250000Y-26757500D01*
X76433012Y-26757500D01*
X76465925Y-26700493D01*
X76500000Y-26573326D01*
X76500000Y-26441674D01*
X76465925Y-26314507D01*
X76433012Y-26257500D01*
X77249999Y-26257500D01*
X77249999Y-25538908D01*
X77247206Y-25486317D01*
X77247205Y-25486309D01*
X77202762Y-25256512D01*
X77120122Y-25037529D01*
X77120120Y-25037525D01*
X77083377Y-24974911D01*
X77062889Y-24900554D01*
X77082324Y-24825914D01*
X77136474Y-24770992D01*
X77210831Y-24750504D01*
X77211885Y-24750500D01*
X83741292Y-24750500D01*
X83751994Y-24750885D01*
X83777399Y-24752714D01*
X83997677Y-24768578D01*
X84016794Y-24771208D01*
X84240183Y-24816867D01*
X84254068Y-24819706D01*
X84272701Y-24824793D01*
X84501686Y-24903569D01*
X84519498Y-24911020D01*
X84736385Y-25018764D01*
X84753076Y-25028451D01*
X84954210Y-25163353D01*
X84969508Y-25175120D01*
X85151491Y-25334897D01*
X85165150Y-25348556D01*
X85324929Y-25530527D01*
X85336705Y-25545837D01*
X85471599Y-25746944D01*
X85481296Y-25763648D01*
X85589044Y-25980519D01*
X85596499Y-25998338D01*
X85675285Y-26227320D01*
X85680373Y-26245953D01*
X85728877Y-26483212D01*
X85731511Y-26502347D01*
X85749115Y-26746640D01*
X85749500Y-26757349D01*
X85749500Y-56850500D01*
X85729538Y-56925000D01*
X85675000Y-56979538D01*
X85600500Y-56999500D01*
X62149000Y-56999500D01*
X62074500Y-56979538D01*
X62019962Y-56925000D01*
X62000000Y-56850500D01*
X62000000Y-55542406D01*
X62019962Y-55467906D01*
X62074500Y-55413368D01*
X62149000Y-55393406D01*
X62223500Y-55413368D01*
X62254359Y-55437047D01*
X62262958Y-55445646D01*
X62497006Y-55625238D01*
X62752493Y-55772743D01*
X62982556Y-55868038D01*
X63025050Y-55885640D01*
X63167527Y-55923816D01*
X63310007Y-55961993D01*
X63602489Y-56000499D01*
X63602492Y-56000500D01*
X63602494Y-56000500D01*
X63897508Y-56000500D01*
X63897509Y-56000499D01*
X64189993Y-55961993D01*
X64474948Y-55885640D01*
X64474949Y-55885640D01*
X64474950Y-55885639D01*
X64474952Y-55885639D01*
X64747507Y-55772743D01*
X65002994Y-55625238D01*
X65237042Y-55445646D01*
X65445646Y-55237042D01*
X65625238Y-55002994D01*
X65772743Y-54747507D01*
X65885639Y-54474952D01*
X65961993Y-54189993D01*
X65969371Y-54133955D01*
X65969372Y-54133949D01*
X72229500Y-54133949D01*
X72229500Y-54366050D01*
X72259791Y-54596138D01*
X72259791Y-54596139D01*
X72259794Y-54596149D01*
X72319863Y-54820330D01*
X72408680Y-55034752D01*
X72408683Y-55034758D01*
X72408684Y-55034759D01*
X72524721Y-55235744D01*
X72524726Y-55235752D01*
X72666011Y-55419877D01*
X72830122Y-55583988D01*
X73014247Y-55725273D01*
X73014252Y-55725276D01*
X73215248Y-55841320D01*
X73429670Y-55930137D01*
X73653851Y-55990206D01*
X73653855Y-55990206D01*
X73653861Y-55990208D01*
X73829853Y-56013377D01*
X73883955Y-56020500D01*
X74116045Y-56020500D01*
X74204046Y-56008914D01*
X74346138Y-55990208D01*
X74346139Y-55990208D01*
X74346144Y-55990206D01*
X74346149Y-55990206D01*
X74570330Y-55930137D01*
X74784752Y-55841320D01*
X74985748Y-55725276D01*
X75169877Y-55583989D01*
X75333989Y-55419877D01*
X75475276Y-55235748D01*
X75591320Y-55034752D01*
X75680137Y-54820330D01*
X75740206Y-54596149D01*
X75740206Y-54596144D01*
X75740208Y-54596139D01*
X75740208Y-54596138D01*
X75770499Y-54366050D01*
X75770500Y-54366045D01*
X75770500Y-54133955D01*
X75770499Y-54133949D01*
X75740208Y-53903861D01*
X75740208Y-53903860D01*
X75738506Y-53897507D01*
X75680137Y-53679670D01*
X75591320Y-53465248D01*
X75501701Y-53310022D01*
X75475278Y-53264255D01*
X75475273Y-53264247D01*
X75425181Y-53198967D01*
X75425180Y-53198966D01*
X75336955Y-53083989D01*
X75333989Y-53080123D01*
X75169877Y-52916011D01*
X74985752Y-52774726D01*
X74985744Y-52774721D01*
X74784759Y-52658684D01*
X74784758Y-52658683D01*
X74784752Y-52658680D01*
X74609070Y-52585909D01*
X74570333Y-52569864D01*
X74570331Y-52569863D01*
X74570330Y-52569863D01*
X74346149Y-52509794D01*
X74346138Y-52509791D01*
X74116050Y-52479500D01*
X74116045Y-52479500D01*
X73883955Y-52479500D01*
X73883949Y-52479500D01*
X73653861Y-52509791D01*
X73653860Y-52509791D01*
X73429666Y-52569864D01*
X73324800Y-52613301D01*
X73215248Y-52658680D01*
X73215243Y-52658682D01*
X73215240Y-52658684D01*
X73014255Y-52774721D01*
X73014247Y-52774726D01*
X72830122Y-52916011D01*
X72666011Y-53080122D01*
X72524726Y-53264247D01*
X72524721Y-53264255D01*
X72408684Y-53465240D01*
X72408682Y-53465243D01*
X72408680Y-53465248D01*
X72386001Y-53520000D01*
X72319864Y-53679666D01*
X72259791Y-53903860D01*
X72259791Y-53903861D01*
X72229500Y-54133949D01*
X65969372Y-54133949D01*
X65972574Y-54109628D01*
X65972574Y-54109627D01*
X65999663Y-53903860D01*
X66000500Y-53897506D01*
X66000500Y-53602494D01*
X65961993Y-53310007D01*
X65885639Y-53025048D01*
X65772743Y-52752493D01*
X65625238Y-52497006D01*
X65625235Y-52497002D01*
X65625235Y-52497001D01*
X65445645Y-52262957D01*
X65237042Y-52054354D01*
X65002997Y-51874764D01*
X64987895Y-51866045D01*
X64786899Y-51750000D01*
X64747511Y-51727259D01*
X64747509Y-51727258D01*
X64747507Y-51727257D01*
X64653802Y-51688443D01*
X64522243Y-51633949D01*
X69229500Y-51633949D01*
X69229500Y-51866050D01*
X69259791Y-52096138D01*
X69259791Y-52096139D01*
X69259794Y-52096149D01*
X69319863Y-52320330D01*
X69408680Y-52534752D01*
X69408683Y-52534758D01*
X69408684Y-52534759D01*
X69524721Y-52735744D01*
X69524726Y-52735752D01*
X69666011Y-52919877D01*
X69830122Y-53083988D01*
X70014247Y-53225273D01*
X70014252Y-53225276D01*
X70215248Y-53341320D01*
X70429670Y-53430137D01*
X70653851Y-53490206D01*
X70653855Y-53490206D01*
X70653861Y-53490208D01*
X70829853Y-53513377D01*
X70883955Y-53520500D01*
X71116045Y-53520500D01*
X71204046Y-53508914D01*
X71346138Y-53490208D01*
X71346139Y-53490208D01*
X71346144Y-53490206D01*
X71346149Y-53490206D01*
X71570330Y-53430137D01*
X71784752Y-53341320D01*
X71985748Y-53225276D01*
X71986292Y-53224859D01*
X71997685Y-53216115D01*
X72169877Y-53083989D01*
X72333989Y-52919877D01*
X72475276Y-52735748D01*
X72591320Y-52534752D01*
X72680137Y-52320330D01*
X72740206Y-52096149D01*
X72740206Y-52096144D01*
X72740208Y-52096139D01*
X72740208Y-52096138D01*
X72758914Y-51954046D01*
X72770500Y-51866045D01*
X72770500Y-51633982D01*
X81730000Y-51633982D01*
X81730000Y-51866017D01*
X81760282Y-52096035D01*
X81760285Y-52096052D01*
X81820334Y-52320164D01*
X81909131Y-52534535D01*
X82025140Y-52735467D01*
X82084117Y-52812328D01*
X82918092Y-51978353D01*
X82946132Y-52046048D01*
X83014531Y-52148414D01*
X83101586Y-52235469D01*
X83203952Y-52303868D01*
X83271645Y-52331907D01*
X82437670Y-53165881D01*
X82514532Y-53224859D01*
X82715464Y-53340868D01*
X82929835Y-53429665D01*
X83153947Y-53489714D01*
X83153964Y-53489717D01*
X83383982Y-53519999D01*
X83383988Y-53520000D01*
X83616012Y-53520000D01*
X83616017Y-53519999D01*
X83846035Y-53489717D01*
X83846052Y-53489714D01*
X84070164Y-53429665D01*
X84284535Y-53340868D01*
X84485471Y-53224857D01*
X84485473Y-53224856D01*
X84562329Y-53165882D01*
X83728354Y-52331907D01*
X83796048Y-52303868D01*
X83898414Y-52235469D01*
X83985469Y-52148414D01*
X84053868Y-52046048D01*
X84081907Y-51978353D01*
X84915882Y-52812328D01*
X84974856Y-52735473D01*
X84974857Y-52735471D01*
X85090868Y-52534535D01*
X85179665Y-52320164D01*
X85239714Y-52096052D01*
X85239717Y-52096035D01*
X85269999Y-51866017D01*
X85270000Y-51866012D01*
X85270000Y-51633988D01*
X85269999Y-51633982D01*
X85239717Y-51403964D01*
X85239714Y-51403947D01*
X85179665Y-51179835D01*
X85090868Y-50965464D01*
X84974859Y-50764532D01*
X84915881Y-50687670D01*
X84081906Y-51521644D01*
X84053868Y-51453952D01*
X83985469Y-51351586D01*
X83898414Y-51264531D01*
X83796048Y-51196132D01*
X83728352Y-51168092D01*
X84562328Y-50334117D01*
X84562329Y-50334117D01*
X84485467Y-50275140D01*
X84284535Y-50159131D01*
X84070164Y-50070334D01*
X83846052Y-50010285D01*
X83846035Y-50010282D01*
X83616017Y-49980000D01*
X83383982Y-49980000D01*
X83153964Y-50010282D01*
X83153947Y-50010285D01*
X82929835Y-50070334D01*
X82715464Y-50159131D01*
X82514528Y-50275142D01*
X82437670Y-50334117D01*
X83271645Y-51168092D01*
X83203952Y-51196132D01*
X83101586Y-51264531D01*
X83014531Y-51351586D01*
X82946132Y-51453952D01*
X82918092Y-51521645D01*
X82084117Y-50687670D01*
X82025142Y-50764528D01*
X81909131Y-50965464D01*
X81820334Y-51179835D01*
X81760285Y-51403947D01*
X81760282Y-51403964D01*
X81730000Y-51633982D01*
X72770500Y-51633982D01*
X72770500Y-51633955D01*
X72746802Y-51453952D01*
X72740208Y-51403861D01*
X72740208Y-51403860D01*
X72740206Y-51403851D01*
X72680137Y-51179670D01*
X72591320Y-50965248D01*
X72475438Y-50764532D01*
X72475278Y-50764255D01*
X72475273Y-50764247D01*
X72333988Y-50580122D01*
X72169877Y-50416011D01*
X71985752Y-50274726D01*
X71985744Y-50274721D01*
X71784759Y-50158684D01*
X71784758Y-50158683D01*
X71784752Y-50158680D01*
X71609070Y-50085909D01*
X71570333Y-50069864D01*
X71570331Y-50069863D01*
X71570330Y-50069863D01*
X71393519Y-50022486D01*
X71346138Y-50009791D01*
X71116050Y-49979500D01*
X71116045Y-49979500D01*
X70883955Y-49979500D01*
X70883949Y-49979500D01*
X70653861Y-50009791D01*
X70653860Y-50009791D01*
X70429666Y-50069864D01*
X70324800Y-50113301D01*
X70215248Y-50158680D01*
X70215243Y-50158682D01*
X70215240Y-50158684D01*
X70014255Y-50274721D01*
X70014247Y-50274726D01*
X69830122Y-50416011D01*
X69666011Y-50580122D01*
X69524726Y-50764247D01*
X69524721Y-50764255D01*
X69408684Y-50965240D01*
X69408682Y-50965243D01*
X69408680Y-50965248D01*
X69408591Y-50965464D01*
X69319864Y-51179666D01*
X69259791Y-51403860D01*
X69259791Y-51403861D01*
X69229500Y-51633949D01*
X64522243Y-51633949D01*
X64474949Y-51614359D01*
X64189994Y-51538007D01*
X64189977Y-51538004D01*
X63897511Y-51499500D01*
X63897506Y-51499500D01*
X63602494Y-51499500D01*
X63602488Y-51499500D01*
X63310022Y-51538004D01*
X63310005Y-51538007D01*
X63025051Y-51614359D01*
X63025050Y-51614359D01*
X62752488Y-51727259D01*
X62497002Y-51874764D01*
X62497001Y-51874764D01*
X62262957Y-52054354D01*
X62262956Y-52054355D01*
X62254359Y-52062953D01*
X62187564Y-52101517D01*
X62110436Y-52101517D01*
X62043641Y-52062953D01*
X62005077Y-51996158D01*
X62000000Y-51957594D01*
X62000000Y-45343734D01*
X62019962Y-45269234D01*
X62074500Y-45214696D01*
X62149000Y-45194734D01*
X62223500Y-45214696D01*
X62231779Y-45219844D01*
X62237534Y-45223689D01*
X62237537Y-45223692D01*
X62370052Y-45312234D01*
X62517294Y-45373223D01*
X62673606Y-45404314D01*
X62832975Y-45404314D01*
X62832979Y-45404314D01*
X62846431Y-45401638D01*
X62923393Y-45406682D01*
X62987523Y-45449531D01*
X63021637Y-45518705D01*
X63024500Y-45547775D01*
X63024500Y-45581616D01*
X63030914Y-45652196D01*
X63081522Y-45814606D01*
X63105337Y-45854000D01*
X63167875Y-45957452D01*
X63169528Y-45960185D01*
X63289815Y-46080472D01*
X63435394Y-46168478D01*
X63597804Y-46219086D01*
X63668384Y-46225500D01*
X63668391Y-46225500D01*
X64181609Y-46225500D01*
X64181616Y-46225500D01*
X64252196Y-46219086D01*
X64414606Y-46168478D01*
X64560185Y-46080472D01*
X64644641Y-45996016D01*
X64711436Y-45957452D01*
X64788564Y-45957452D01*
X64855359Y-45996016D01*
X64939815Y-46080472D01*
X65085394Y-46168478D01*
X65247804Y-46219086D01*
X65318384Y-46225500D01*
X65318391Y-46225500D01*
X65831609Y-46225500D01*
X65831616Y-46225500D01*
X65902196Y-46219086D01*
X66064606Y-46168478D01*
X66210185Y-46080472D01*
X66330472Y-45960185D01*
X66396226Y-45851415D01*
X66422985Y-45825712D01*
X66449236Y-45799462D01*
X66450733Y-45799060D01*
X66451849Y-45797989D01*
X66523736Y-45779500D01*
X66762625Y-45779500D01*
X66837125Y-45799462D01*
X66891663Y-45854000D01*
X66911625Y-45928500D01*
X66900283Y-45985520D01*
X66819865Y-46179661D01*
X66819864Y-46179665D01*
X66759791Y-46403860D01*
X66759791Y-46403861D01*
X66729500Y-46633949D01*
X66729500Y-46866050D01*
X66759791Y-47096138D01*
X66759791Y-47096139D01*
X66759794Y-47096149D01*
X66819863Y-47320330D01*
X66908680Y-47534752D01*
X66908683Y-47534758D01*
X66908684Y-47534759D01*
X67024721Y-47735744D01*
X67024726Y-47735752D01*
X67166011Y-47919877D01*
X67330122Y-48083988D01*
X67514247Y-48225273D01*
X67514252Y-48225276D01*
X67715248Y-48341320D01*
X67929670Y-48430137D01*
X68153851Y-48490206D01*
X68153855Y-48490206D01*
X68153861Y-48490208D01*
X68329853Y-48513377D01*
X68383955Y-48520500D01*
X68616045Y-48520500D01*
X68704046Y-48508914D01*
X68846138Y-48490208D01*
X68846139Y-48490208D01*
X68846144Y-48490206D01*
X68846149Y-48490206D01*
X69070330Y-48430137D01*
X69284752Y-48341320D01*
X69485748Y-48225276D01*
X69669877Y-48083989D01*
X69833989Y-47919877D01*
X69975276Y-47735748D01*
X70091320Y-47534752D01*
X70180137Y-47320330D01*
X70240206Y-47096149D01*
X70240206Y-47096144D01*
X70240208Y-47096139D01*
X70240208Y-47096138D01*
X70270499Y-46866050D01*
X70270500Y-46866045D01*
X70270500Y-46633955D01*
X70270499Y-46633949D01*
X70240208Y-46403861D01*
X70240208Y-46403860D01*
X70240206Y-46403851D01*
X70180137Y-46179670D01*
X70180135Y-46179665D01*
X70180134Y-46179661D01*
X70099717Y-45985520D01*
X70089650Y-45909052D01*
X70119165Y-45837795D01*
X70180355Y-45790842D01*
X70237375Y-45779500D01*
X70962978Y-45779500D01*
X71618547Y-45779500D01*
X71637495Y-45784577D01*
X71657112Y-45784577D01*
X71674099Y-45794385D01*
X71693047Y-45799462D01*
X71723906Y-45823142D01*
X71825783Y-45925020D01*
X71864347Y-45991815D01*
X71864347Y-46068943D01*
X71858083Y-46087396D01*
X71819861Y-46179673D01*
X71759792Y-46403856D01*
X71759791Y-46403861D01*
X71729500Y-46633949D01*
X71729500Y-46866050D01*
X71759791Y-47096138D01*
X71759791Y-47096139D01*
X71759794Y-47096149D01*
X71819863Y-47320330D01*
X71908680Y-47534752D01*
X71908683Y-47534758D01*
X71908684Y-47534759D01*
X72024721Y-47735744D01*
X72024726Y-47735752D01*
X72166011Y-47919877D01*
X72330122Y-48083988D01*
X72514247Y-48225273D01*
X72514252Y-48225276D01*
X72715248Y-48341320D01*
X72929670Y-48430137D01*
X73153851Y-48490206D01*
X73153855Y-48490206D01*
X73153861Y-48490208D01*
X73329853Y-48513377D01*
X73383955Y-48520500D01*
X73616045Y-48520500D01*
X73704046Y-48508914D01*
X73846138Y-48490208D01*
X73846139Y-48490208D01*
X73846144Y-48490206D01*
X73846149Y-48490206D01*
X74070330Y-48430137D01*
X74284752Y-48341320D01*
X74485748Y-48225276D01*
X74669877Y-48083989D01*
X74833989Y-47919877D01*
X74975276Y-47735748D01*
X75091320Y-47534752D01*
X75180137Y-47320330D01*
X75240206Y-47096149D01*
X75240206Y-47096144D01*
X75240208Y-47096139D01*
X75240208Y-47096138D01*
X75270499Y-46866050D01*
X75270500Y-46866045D01*
X75270500Y-46633955D01*
X75270499Y-46633949D01*
X75240208Y-46403861D01*
X75240208Y-46403860D01*
X75240206Y-46403851D01*
X75180137Y-46179670D01*
X75091320Y-45965248D01*
X74987011Y-45784577D01*
X74975278Y-45764255D01*
X74975273Y-45764247D01*
X74864730Y-45620186D01*
X74833989Y-45580123D01*
X74669877Y-45416011D01*
X74651146Y-45401638D01*
X74485752Y-45274726D01*
X74485744Y-45274721D01*
X74284759Y-45158684D01*
X74284758Y-45158683D01*
X74284752Y-45158680D01*
X74084622Y-45075783D01*
X74070333Y-45069864D01*
X74070331Y-45069863D01*
X74070330Y-45069863D01*
X73846149Y-45009794D01*
X73846138Y-45009791D01*
X73616050Y-44979500D01*
X73616045Y-44979500D01*
X73383955Y-44979500D01*
X73383949Y-44979500D01*
X73153861Y-45009791D01*
X73153856Y-45009792D01*
X72929673Y-45069861D01*
X72837396Y-45108083D01*
X72760928Y-45118149D01*
X72689671Y-45088633D01*
X72675019Y-45075783D01*
X72418015Y-44818780D01*
X72418013Y-44818777D01*
X72297715Y-44698479D01*
X72210906Y-44648361D01*
X72210905Y-44648360D01*
X72160786Y-44619423D01*
X72008057Y-44578499D01*
X71849943Y-44578499D01*
X71840814Y-44578499D01*
X71840798Y-44578500D01*
X69982527Y-44578500D01*
X69908027Y-44558538D01*
X69853489Y-44504000D01*
X69833527Y-44429519D01*
X69833527Y-44429500D01*
X69833526Y-44421090D01*
X69801206Y-44258723D01*
X69737834Y-44105779D01*
X69696998Y-44044676D01*
X69672200Y-43971645D01*
X69687240Y-43895997D01*
X69723364Y-43849229D01*
X69734088Y-43839945D01*
X69793716Y-43805520D01*
X69905520Y-43693716D01*
X69905521Y-43693713D01*
X70175020Y-43424213D01*
X70241813Y-43385651D01*
X70318941Y-43385651D01*
X70337397Y-43391916D01*
X70363307Y-43402648D01*
X70429670Y-43430137D01*
X70653851Y-43490206D01*
X70653855Y-43490206D01*
X70653861Y-43490208D01*
X70829853Y-43513377D01*
X70883955Y-43520500D01*
X71116045Y-43520500D01*
X71204046Y-43508914D01*
X71346138Y-43490208D01*
X71346139Y-43490208D01*
X71346144Y-43490206D01*
X71346149Y-43490206D01*
X71570330Y-43430137D01*
X71784752Y-43341320D01*
X71985748Y-43225276D01*
X71986292Y-43224859D01*
X71997685Y-43216115D01*
X72169877Y-43083989D01*
X72333989Y-42919877D01*
X72475276Y-42735748D01*
X72591320Y-42534752D01*
X72680137Y-42320330D01*
X72740206Y-42096149D01*
X72740206Y-42096144D01*
X72740208Y-42096139D01*
X72740208Y-42096138D01*
X72758914Y-41954046D01*
X72770500Y-41866045D01*
X72770500Y-41633982D01*
X81730000Y-41633982D01*
X81730000Y-41866017D01*
X81760282Y-42096035D01*
X81760285Y-42096052D01*
X81820334Y-42320164D01*
X81909131Y-42534535D01*
X82025140Y-42735467D01*
X82084117Y-42812328D01*
X82918092Y-41978353D01*
X82946132Y-42046048D01*
X83014531Y-42148414D01*
X83101586Y-42235469D01*
X83203952Y-42303868D01*
X83271645Y-42331907D01*
X82437670Y-43165881D01*
X82514532Y-43224859D01*
X82715464Y-43340868D01*
X82929835Y-43429665D01*
X83153947Y-43489714D01*
X83153964Y-43489717D01*
X83383982Y-43519999D01*
X83383988Y-43520000D01*
X83616012Y-43520000D01*
X83616017Y-43519999D01*
X83846035Y-43489717D01*
X83846052Y-43489714D01*
X84070164Y-43429665D01*
X84284535Y-43340868D01*
X84485471Y-43224857D01*
X84485473Y-43224856D01*
X84562329Y-43165882D01*
X83728354Y-42331907D01*
X83796048Y-42303868D01*
X83898414Y-42235469D01*
X83985469Y-42148414D01*
X84053868Y-42046048D01*
X84081907Y-41978353D01*
X84915882Y-42812328D01*
X84974856Y-42735473D01*
X84974857Y-42735471D01*
X85090868Y-42534535D01*
X85179665Y-42320164D01*
X85239714Y-42096052D01*
X85239717Y-42096035D01*
X85269999Y-41866017D01*
X85270000Y-41866012D01*
X85270000Y-41633988D01*
X85269999Y-41633982D01*
X85239717Y-41403964D01*
X85239714Y-41403947D01*
X85179665Y-41179835D01*
X85090868Y-40965464D01*
X84974859Y-40764532D01*
X84915881Y-40687670D01*
X84081906Y-41521644D01*
X84053868Y-41453952D01*
X83985469Y-41351586D01*
X83898414Y-41264531D01*
X83796048Y-41196132D01*
X83728352Y-41168092D01*
X84562328Y-40334117D01*
X84562329Y-40334117D01*
X84485467Y-40275140D01*
X84284535Y-40159131D01*
X84070164Y-40070334D01*
X83846052Y-40010285D01*
X83846035Y-40010282D01*
X83616017Y-39980000D01*
X83383982Y-39980000D01*
X83153964Y-40010282D01*
X83153947Y-40010285D01*
X82929835Y-40070334D01*
X82715464Y-40159131D01*
X82514528Y-40275142D01*
X82437670Y-40334117D01*
X83271645Y-41168092D01*
X83203952Y-41196132D01*
X83101586Y-41264531D01*
X83014531Y-41351586D01*
X82946132Y-41453952D01*
X82918092Y-41521645D01*
X82084117Y-40687670D01*
X82025142Y-40764528D01*
X81909131Y-40965464D01*
X81820334Y-41179835D01*
X81760285Y-41403947D01*
X81760282Y-41403964D01*
X81730000Y-41633982D01*
X72770500Y-41633982D01*
X72770500Y-41633955D01*
X72758072Y-41539554D01*
X72740208Y-41403861D01*
X72740208Y-41403860D01*
X72740206Y-41403851D01*
X72680137Y-41179670D01*
X72591320Y-40965248D01*
X72475438Y-40764532D01*
X72475278Y-40764255D01*
X72475273Y-40764247D01*
X72425181Y-40698967D01*
X72425180Y-40698966D01*
X72422937Y-40696043D01*
X72333989Y-40580123D01*
X72169877Y-40416011D01*
X71985752Y-40274726D01*
X71985744Y-40274721D01*
X71784759Y-40158684D01*
X71784758Y-40158683D01*
X71784752Y-40158680D01*
X71609070Y-40085909D01*
X71570333Y-40069864D01*
X71570331Y-40069863D01*
X71570330Y-40069863D01*
X71393519Y-40022486D01*
X71346138Y-40009791D01*
X71116050Y-39979500D01*
X71116045Y-39979500D01*
X70883955Y-39979500D01*
X70883949Y-39979500D01*
X70653861Y-40009791D01*
X70653860Y-40009791D01*
X70429666Y-40069864D01*
X70324800Y-40113301D01*
X70215248Y-40158680D01*
X70215243Y-40158682D01*
X70215240Y-40158684D01*
X70014255Y-40274721D01*
X70014247Y-40274726D01*
X69830122Y-40416011D01*
X69666011Y-40580122D01*
X69524726Y-40764247D01*
X69524721Y-40764255D01*
X69408684Y-40965240D01*
X69408682Y-40965243D01*
X69408680Y-40965248D01*
X69386001Y-41020000D01*
X69319864Y-41179666D01*
X69259791Y-41403860D01*
X69259791Y-41403861D01*
X69229500Y-41633949D01*
X69229500Y-41866050D01*
X69259791Y-42096138D01*
X69259791Y-42096139D01*
X69259794Y-42096149D01*
X69319737Y-42319861D01*
X69319864Y-42320333D01*
X69358083Y-42412600D01*
X69359379Y-42422451D01*
X69364348Y-42431056D01*
X69364348Y-42460188D01*
X69368150Y-42489069D01*
X69364348Y-42498248D01*
X69364348Y-42508184D01*
X69349783Y-42533410D01*
X69338635Y-42560326D01*
X69325784Y-42574979D01*
X69219906Y-42680858D01*
X69153112Y-42719423D01*
X69114547Y-42724500D01*
X68063782Y-42724500D01*
X68063328Y-42724529D01*
X68062149Y-42724529D01*
X68062149Y-42721573D01*
X67999927Y-42711196D01*
X67940387Y-42662169D01*
X67913337Y-42589940D01*
X67912643Y-42575578D01*
X67912643Y-42482652D01*
X67912601Y-42482234D01*
X67912600Y-42482233D01*
X67912601Y-42482227D01*
X67880308Y-42319862D01*
X67816964Y-42166916D01*
X67750402Y-42067285D01*
X67725005Y-42029269D01*
X67724995Y-42029257D01*
X67607958Y-41912199D01*
X67607954Y-41912196D01*
X67607953Y-41912195D01*
X67470318Y-41820207D01*
X67425451Y-41801615D01*
X67317382Y-41756834D01*
X67155024Y-41724514D01*
X67155020Y-41724513D01*
X67151246Y-41724512D01*
X67151200Y-41724500D01*
X67072253Y-41724500D01*
X67072251Y-41724500D01*
X66990510Y-41724485D01*
X66990262Y-41724500D01*
X66874500Y-41724500D01*
X66800000Y-41704538D01*
X66745462Y-41650000D01*
X66725500Y-41575500D01*
X66725500Y-41418390D01*
X66725500Y-41418384D01*
X66719086Y-41347804D01*
X66668478Y-41185394D01*
X66580472Y-41039815D01*
X66460185Y-40919528D01*
X66460182Y-40919525D01*
X66453088Y-40913967D01*
X66454391Y-40912302D01*
X66453979Y-40911873D01*
X66442378Y-40906231D01*
X66427673Y-40884483D01*
X66409490Y-40865551D01*
X66406403Y-40853025D01*
X66399177Y-40842338D01*
X66397316Y-40816153D01*
X66391035Y-40790663D01*
X66394625Y-40778270D01*
X66393711Y-40765403D01*
X66403926Y-40746165D01*
X66412497Y-40716581D01*
X66427444Y-40696043D01*
X66430896Y-40692062D01*
X66473279Y-40649680D01*
X66479783Y-40638414D01*
X66553519Y-40528072D01*
X66610851Y-40389692D01*
X66640087Y-40242787D01*
X66640105Y-40093001D01*
X66635506Y-40069864D01*
X66610907Y-39946098D01*
X66610904Y-39946087D01*
X66553609Y-39807695D01*
X66479443Y-39696651D01*
X66473279Y-39685975D01*
X66414165Y-39626861D01*
X66365924Y-39578598D01*
X66365921Y-39578596D01*
X66359506Y-39572178D01*
X66359294Y-39571990D01*
X66339865Y-39552558D01*
X66339853Y-39552550D01*
X66304905Y-39517602D01*
X66298386Y-39513838D01*
X66290112Y-39508693D01*
X66183289Y-39437315D01*
X66183276Y-39437309D01*
X66044885Y-39379986D01*
X66044883Y-39379985D01*
X66044882Y-39379985D01*
X66044879Y-39379984D01*
X66044874Y-39379983D01*
X66042467Y-39379504D01*
X66041143Y-39378851D01*
X66037876Y-39377860D01*
X66038039Y-39377320D01*
X65973295Y-39345387D01*
X65930449Y-39281255D01*
X65922605Y-39229148D01*
X65922960Y-39216609D01*
X65925500Y-39203842D01*
X65925500Y-39133982D01*
X72230000Y-39133982D01*
X72230000Y-39366017D01*
X72260282Y-39596035D01*
X72260285Y-39596052D01*
X72320334Y-39820164D01*
X72409131Y-40034535D01*
X72525140Y-40235467D01*
X72584117Y-40312328D01*
X73418092Y-39478353D01*
X73446132Y-39546048D01*
X73514531Y-39648414D01*
X73601586Y-39735469D01*
X73703952Y-39803868D01*
X73771645Y-39831907D01*
X72937670Y-40665881D01*
X73014532Y-40724859D01*
X73215464Y-40840868D01*
X73429835Y-40929665D01*
X73653947Y-40989714D01*
X73653964Y-40989717D01*
X73883982Y-41019999D01*
X73883988Y-41020000D01*
X74116012Y-41020000D01*
X74116017Y-41019999D01*
X74346035Y-40989717D01*
X74346052Y-40989714D01*
X74570164Y-40929665D01*
X74784535Y-40840868D01*
X74985471Y-40724857D01*
X74985473Y-40724856D01*
X75062329Y-40665882D01*
X74228354Y-39831907D01*
X74296048Y-39803868D01*
X74398414Y-39735469D01*
X74485469Y-39648414D01*
X74553868Y-39546048D01*
X74581907Y-39478353D01*
X75415882Y-40312328D01*
X75424551Y-40301032D01*
X75474856Y-40235473D01*
X75474857Y-40235471D01*
X75590868Y-40034535D01*
X75679665Y-39820164D01*
X75739714Y-39596052D01*
X75739717Y-39596035D01*
X75769999Y-39366017D01*
X75770000Y-39366012D01*
X75770000Y-39133988D01*
X75769999Y-39133982D01*
X75739717Y-38903964D01*
X75739714Y-38903947D01*
X75679665Y-38679835D01*
X75590868Y-38465464D01*
X75474859Y-38264532D01*
X75415881Y-38187670D01*
X74581906Y-39021644D01*
X74553868Y-38953952D01*
X74485469Y-38851586D01*
X74398414Y-38764531D01*
X74296048Y-38696132D01*
X74228352Y-38668092D01*
X75062328Y-37834117D01*
X75062329Y-37834117D01*
X74985467Y-37775140D01*
X74784535Y-37659131D01*
X74570164Y-37570334D01*
X74346052Y-37510285D01*
X74346035Y-37510282D01*
X74116017Y-37480000D01*
X73883982Y-37480000D01*
X73653964Y-37510282D01*
X73653947Y-37510285D01*
X73429835Y-37570334D01*
X73215464Y-37659131D01*
X73014528Y-37775142D01*
X72937670Y-37834117D01*
X73771645Y-38668092D01*
X73703952Y-38696132D01*
X73601586Y-38764531D01*
X73514531Y-38851586D01*
X73446132Y-38953952D01*
X73418092Y-39021645D01*
X72584117Y-38187670D01*
X72525142Y-38264528D01*
X72409131Y-38465464D01*
X72320334Y-38679835D01*
X72260285Y-38903947D01*
X72260282Y-38903964D01*
X72230000Y-39133982D01*
X65925500Y-39133982D01*
X65925500Y-39046158D01*
X65907159Y-38953952D01*
X65893309Y-38884323D01*
X65894829Y-38884020D01*
X65892593Y-38815663D01*
X65928951Y-38747643D01*
X65994449Y-38706914D01*
X66037700Y-38700499D01*
X66048340Y-38700499D01*
X66048344Y-38700499D01*
X66147708Y-38690349D01*
X66308697Y-38637003D01*
X66453044Y-38547968D01*
X66572968Y-38428044D01*
X66662003Y-38283697D01*
X66715349Y-38122708D01*
X66725500Y-38023345D01*
X66725499Y-37476656D01*
X66715349Y-37377292D01*
X66662003Y-37216303D01*
X66572968Y-37071956D01*
X66453044Y-36952032D01*
X66308697Y-36862997D01*
X66147708Y-36809651D01*
X66048345Y-36799500D01*
X66048340Y-36799500D01*
X65451660Y-36799500D01*
X65352291Y-36809651D01*
X65191300Y-36862998D01*
X65046955Y-36952032D01*
X64943129Y-37055859D01*
X64926141Y-37065666D01*
X64912270Y-37079538D01*
X64893321Y-37084615D01*
X64876334Y-37094423D01*
X64837770Y-37099500D01*
X64662230Y-37099500D01*
X64587730Y-37079538D01*
X64556871Y-37055859D01*
X64453044Y-36952032D01*
X64308699Y-36862998D01*
X64308698Y-36862997D01*
X64308697Y-36862997D01*
X64147708Y-36809651D01*
X64048345Y-36799500D01*
X64048340Y-36799500D01*
X63451660Y-36799500D01*
X63352291Y-36809651D01*
X63191300Y-36862998D01*
X63046955Y-36952032D01*
X62927032Y-37071955D01*
X62837998Y-37216300D01*
X62784651Y-37377291D01*
X62774500Y-37476659D01*
X62774500Y-38023339D01*
X62774501Y-38023344D01*
X62784651Y-38122708D01*
X62831646Y-38264532D01*
X62837998Y-38283699D01*
X62927032Y-38428044D01*
X63039129Y-38540141D01*
X63077693Y-38606936D01*
X63077693Y-38684064D01*
X63039129Y-38750859D01*
X62972334Y-38789423D01*
X62933770Y-38794500D01*
X62584306Y-38794500D01*
X62559722Y-38796434D01*
X62547428Y-38797402D01*
X62389599Y-38843257D01*
X62248136Y-38926918D01*
X62240729Y-38932664D01*
X62238532Y-38929832D01*
X62187564Y-38959259D01*
X62110436Y-38959259D01*
X62043641Y-38920695D01*
X62005077Y-38853900D01*
X62000000Y-38815336D01*
X62000000Y-27163389D01*
X63899500Y-27163389D01*
X63899500Y-27336611D01*
X63911137Y-27410086D01*
X63926597Y-27507700D01*
X63964653Y-27624821D01*
X63980127Y-27672445D01*
X64023968Y-27758487D01*
X64058771Y-27826793D01*
X64125852Y-27919121D01*
X64160586Y-27966928D01*
X64283072Y-28089414D01*
X64283075Y-28089416D01*
X64406842Y-28179339D01*
X64423212Y-28191232D01*
X64577555Y-28269873D01*
X64742299Y-28323402D01*
X64913389Y-28350500D01*
X64913393Y-28350500D01*
X65086607Y-28350500D01*
X65086611Y-28350500D01*
X65257701Y-28323402D01*
X65422445Y-28269873D01*
X65576788Y-28191232D01*
X65716928Y-28089414D01*
X65802477Y-28003864D01*
X65869270Y-27965302D01*
X65946398Y-27965302D01*
X66013193Y-28003866D01*
X66034650Y-28031004D01*
X66057675Y-28068334D01*
X66057680Y-28068340D01*
X66181659Y-28192319D01*
X66330878Y-28284357D01*
X66497302Y-28339505D01*
X66497311Y-28339507D01*
X66600015Y-28349999D01*
X66750000Y-28349999D01*
X67250000Y-28349999D01*
X67399974Y-28349999D01*
X67502696Y-28339505D01*
X67669121Y-28284357D01*
X67818340Y-28192319D01*
X67942319Y-28068340D01*
X68034357Y-27919121D01*
X68089505Y-27752697D01*
X68089507Y-27752688D01*
X68099999Y-27649989D01*
X68100000Y-27649979D01*
X68100000Y-27500000D01*
X67250000Y-27500000D01*
X67250000Y-28349999D01*
X66750000Y-28349999D01*
X66750000Y-27416988D01*
X66759940Y-27434205D01*
X66815795Y-27490060D01*
X66884204Y-27529556D01*
X66960504Y-27550000D01*
X67039496Y-27550000D01*
X67115796Y-27529556D01*
X67184205Y-27490060D01*
X67240060Y-27434205D01*
X67279556Y-27365796D01*
X67300000Y-27289496D01*
X67300000Y-27210504D01*
X67279556Y-27134204D01*
X67240060Y-27065795D01*
X67184205Y-27009940D01*
X67166988Y-27000000D01*
X67250000Y-27000000D01*
X68099999Y-27000000D01*
X68099999Y-26850026D01*
X68089505Y-26747303D01*
X68034357Y-26580878D01*
X67942319Y-26431659D01*
X67818340Y-26307680D01*
X67669121Y-26215642D01*
X67502697Y-26160494D01*
X67502688Y-26160492D01*
X67399989Y-26150000D01*
X67250000Y-26150000D01*
X67250000Y-27000000D01*
X67166988Y-27000000D01*
X67115796Y-26970444D01*
X67039496Y-26950000D01*
X66960504Y-26950000D01*
X66884204Y-26970444D01*
X66815795Y-27009940D01*
X66759940Y-27065795D01*
X66750000Y-27083011D01*
X66750000Y-26150000D01*
X66600026Y-26150000D01*
X66497303Y-26160494D01*
X66330878Y-26215642D01*
X66181659Y-26307680D01*
X66057680Y-26431659D01*
X66057675Y-26431665D01*
X66034650Y-26468996D01*
X65978550Y-26521925D01*
X65903500Y-26539712D01*
X65829613Y-26517591D01*
X65802479Y-26496137D01*
X65716928Y-26410586D01*
X65716924Y-26410583D01*
X65576793Y-26308771D01*
X65576790Y-26308769D01*
X65576788Y-26308768D01*
X65422445Y-26230127D01*
X65331242Y-26200493D01*
X65257700Y-26176597D01*
X65156012Y-26160492D01*
X65086611Y-26149500D01*
X64913389Y-26149500D01*
X64847037Y-26160009D01*
X64742299Y-26176597D01*
X64586194Y-26227320D01*
X64577555Y-26230127D01*
X64577549Y-26230129D01*
X64577549Y-26230130D01*
X64423206Y-26308771D01*
X64283075Y-26410583D01*
X64160583Y-26533075D01*
X64058771Y-26673206D01*
X63980130Y-26827549D01*
X63980125Y-26827561D01*
X63926597Y-26992299D01*
X63914957Y-27065795D01*
X63899500Y-27163389D01*
X62000000Y-27163389D01*
X62000000Y-24899500D01*
X62019962Y-24825000D01*
X62074500Y-24770462D01*
X62149000Y-24750500D01*
X72788115Y-24750500D01*
X72862615Y-24770462D01*
G37*
%TD.AperFunction*%
%TA.AperFunction,Conductor*%
G36*
X64702428Y-42889202D02*
G01*
X64757569Y-42943130D01*
X64778359Y-43017403D01*
X64777757Y-43032543D01*
X64774500Y-43068384D01*
X64774500Y-43581616D01*
X64780914Y-43652196D01*
X64831522Y-43814606D01*
X64853571Y-43851079D01*
X64919527Y-43960184D01*
X65039815Y-44080472D01*
X65059319Y-44092263D01*
X65078403Y-44112132D01*
X65100283Y-44128860D01*
X65104729Y-44139541D01*
X65112747Y-44147889D01*
X65119339Y-44174636D01*
X65129925Y-44200065D01*
X65128434Y-44211540D01*
X65131204Y-44222776D01*
X65123539Y-44249237D01*
X65119992Y-44276551D01*
X65113402Y-44284233D01*
X65109745Y-44296859D01*
X65073148Y-44337823D01*
X65066493Y-44342947D01*
X64939815Y-44419528D01*
X64848548Y-44510794D01*
X64840914Y-44516674D01*
X64813903Y-44527918D01*
X64788564Y-44542548D01*
X64778760Y-44542548D01*
X64769709Y-44546316D01*
X64740695Y-44542548D01*
X64711436Y-44542548D01*
X64702944Y-44537645D01*
X64693223Y-44536383D01*
X64669981Y-44518614D01*
X64644641Y-44503984D01*
X64560184Y-44419527D01*
X64482347Y-44372473D01*
X64414606Y-44331522D01*
X64252196Y-44280914D01*
X64181616Y-44274500D01*
X63668384Y-44274500D01*
X63645766Y-44276555D01*
X63569766Y-44263415D01*
X63549505Y-44252055D01*
X63500163Y-44219086D01*
X63431513Y-44173215D01*
X63431510Y-44173213D01*
X63431509Y-44173213D01*
X63284267Y-44112223D01*
X63284269Y-44112223D01*
X63234073Y-44102239D01*
X63164899Y-44068126D01*
X63122049Y-44003996D01*
X63117007Y-43985178D01*
X63107012Y-43934945D01*
X63046016Y-43787708D01*
X62957484Y-43655216D01*
X62957475Y-43655206D01*
X62901136Y-43598868D01*
X62883876Y-43581609D01*
X62867267Y-43565000D01*
X62843139Y-43540872D01*
X62814617Y-43491468D01*
X62804577Y-43474079D01*
X62804576Y-43474077D01*
X62804576Y-43474071D01*
X62799500Y-43435515D01*
X62799500Y-43084500D01*
X62819462Y-43010000D01*
X62874000Y-42955462D01*
X62948500Y-42935500D01*
X64365687Y-42935500D01*
X64365694Y-42935500D01*
X64402569Y-42932598D01*
X64560398Y-42886744D01*
X64560402Y-42886741D01*
X64560407Y-42886740D01*
X64569006Y-42883020D01*
X64570349Y-42886125D01*
X64627710Y-42870070D01*
X64702428Y-42889202D01*
G37*
%TD.AperFunction*%
%TD*%
M02*
