M48
; DRILL file {KiCad 9.0.6} date 2025-11-23T17:05:35+0000
; FORMAT={-:-/ absolute / metric / decimal}
; #@! TF.CreationDate,2025-11-23T17:05:35+00:00
; #@! TF.GenerationSoftware,Kicad,Pcbnew,9.0.6
; #@! TF.FileFunction,Plated,1,4,PTH
FMAT,2
METRIC
; #@! TA.AperFunction,Plated,PTH,ViaDrill
T1C0.300
; #@! TA.AperFunction,Plated,PTH,ComponentDrill
T2C0.600
; #@! TA.AperFunction,Plated,PTH,ComponentDrill
T3C1.000
; #@! TA.AperFunction,Plated,PTH,ComponentDrill
T4C1.250
; #@! TA.AperFunction,Plated,PTH,ComponentDrill
T5C2.200
%
G90
G05
T1
X49.25Y-53.5
X49.25Y-54.5
X50.5Y-44.5
X51.65Y-53.55
X55.375Y-56.675
X55.75Y-42.75
X56.0Y-35.0
X56.65Y-53.55
X56.65Y-54.5
X57.0Y-39.5
X58.0Y-35.0
X58.5Y-44.5
X59.5Y-38.35
X59.75Y-25.25
X62.45Y-38.45
X62.45Y-45.8
X62.5Y-25.25
X62.5Y-56.4
X63.75Y-35.0
X64.55Y-44.0
X65.125Y-39.125
X65.75Y-35.0
X70.25Y-44.05
X70.95Y-46.2
X84.5Y-25.65
X85.1Y-56.35
T2
X48.75Y-27.25
X50.75Y-27.25
X65.0Y-27.25
X67.0Y-27.25
T3
X48.71Y-36.5
X48.71Y-39.04
X48.71Y-41.58
X51.25Y-36.5
X51.25Y-39.04
X51.25Y-41.58
T4
X68.5Y-46.75
X71.0Y-41.75
X71.0Y-51.75
X73.5Y-46.75
X74.0Y-39.25
X74.0Y-54.25
X83.5Y-41.75
X83.5Y-51.75
T5
X56.5Y-27.5
X63.75Y-53.75
T3
X72.0Y-32.207G85X72.0Y-30.207
G05
X76.0Y-26.508G85X74.0Y-26.508
G05
X78.0Y-32.207G85X78.0Y-30.207
G05
M30
