%TF.GenerationSoftware,KiCad,Pcbnew,9.0.6*%
%TF.CreationDate,2025-11-23T17:05:16+00:00*%
%TF.ProjectId,sr-crt,73722d63-7274-42e6-9b69-6361645f7063,rev?*%
%TF.SameCoordinates,Original*%
%TF.FileFunction,Legend,Top*%
%TF.FilePolarity,Positive*%
%FSLAX46Y46*%
G04 Gerber Fmt 4.6, Leading zero omitted, Abs format (unit mm)*
G04 Created by KiCad (PCBNEW 9.0.6) date 2025-11-23 17:05:16*
%MOMM*%
%LPD*%
G01*
G04 APERTURE LIST*
%ADD10C,0.100000*%
%ADD11C,0.200000*%
%ADD12C,0.150000*%
%ADD13C,0.120000*%
G04 APERTURE END LIST*
D10*
X63750000Y-33900000D02*
X63703444Y-33903840D01*
X63656653Y-33907619D01*
X63609625Y-33911337D01*
X63562363Y-33914993D01*
X63514865Y-33918588D01*
X63467131Y-33922121D01*
X63419162Y-33925591D01*
X63370958Y-33928998D01*
X63322520Y-33932342D01*
X63273846Y-33935622D01*
X63224939Y-33938837D01*
X63175797Y-33941989D01*
X63126421Y-33945075D01*
X63076813Y-33948096D01*
X63026971Y-33951051D01*
X62976897Y-33953941D01*
X62926591Y-33956763D01*
X62876054Y-33959519D01*
X62825285Y-33962208D01*
X62774287Y-33964829D01*
X62723059Y-33967382D01*
X62671603Y-33969866D01*
X62619918Y-33972282D01*
X62568006Y-33974629D01*
X62515869Y-33976906D01*
X62463505Y-33979113D01*
X62410918Y-33981250D01*
X62358107Y-33983316D01*
X62305074Y-33985311D01*
X62251821Y-33987235D01*
X62198347Y-33989086D01*
X62144656Y-33990866D01*
X62090747Y-33992573D01*
X62036624Y-33994208D01*
X61982286Y-33995769D01*
X61927736Y-33997256D01*
X61872976Y-33998670D01*
X61818007Y-34000010D01*
X61762832Y-34001274D01*
X61707452Y-34002464D01*
X61651869Y-34003579D01*
X61596086Y-34004618D01*
X61540105Y-34005581D01*
X61483929Y-34006468D01*
X61427559Y-34007278D01*
X61370999Y-34008012D01*
X61314252Y-34008668D01*
X61257321Y-34009247D01*
X61200208Y-34009749D01*
X61142917Y-34010172D01*
X61085451Y-34010517D01*
X61027815Y-34010784D01*
X60970011Y-34010972D01*
X60912043Y-34011081D01*
X60853917Y-34011111D01*
X60795635Y-34011061D01*
X60737203Y-34010932D01*
X60678626Y-34010723D01*
X60619908Y-34010434D01*
X60561055Y-34010065D01*
X60502072Y-34009616D01*
X60442965Y-34009087D01*
X60383740Y-34008477D01*
X60324404Y-34007787D01*
X60264963Y-34007016D01*
X60205424Y-34006165D01*
X60145795Y-34005233D01*
X60086084Y-34004220D01*
X60026299Y-34003127D01*
X59966448Y-34001954D01*
X59906542Y-34000700D01*
X59846589Y-33999366D01*
X59786600Y-33997952D01*
X59726585Y-33996459D01*
X59666557Y-33994885D01*
X59606527Y-33993233D01*
X59546509Y-33991502D01*
X59486516Y-33989693D01*
X59426563Y-33987806D01*
X59366664Y-33985841D01*
X59306838Y-33983800D01*
X59247101Y-33981683D01*
X59187473Y-33979491D01*
X59127973Y-33977225D01*
X59068624Y-33974886D01*
X59009448Y-33972476D01*
X58950471Y-33969994D01*
X58891721Y-33967444D01*
X58833226Y-33964826D01*
X58775019Y-33962142D01*
X58717134Y-33959395D01*
X58659609Y-33956586D01*
X58602487Y-33953720D01*
X58545813Y-33950797D01*
X58489639Y-33947822D01*
X58434020Y-33944799D01*
X58379021Y-33941732D01*
X58324713Y-33938626D01*
X58271177Y-33935486D01*
X58218507Y-33932321D01*
X58166809Y-33929137D01*
X58116210Y-33925944D01*
X58066860Y-33922754D01*
X58018939Y-33919580D01*
X57972672Y-33916442D01*
X57928344Y-33913360D01*
X57886328Y-33910367D01*
X57847146Y-33907504D01*
X57811571Y-33904836D01*
X57780897Y-33902471D01*
X57757787Y-33900636D01*
X57750000Y-33900000D01*
X57750000Y-30650000D02*
X57746004Y-30678255D01*
X57742077Y-30706590D01*
X57738219Y-30735005D01*
X57734432Y-30763499D01*
X57730714Y-30792073D01*
X57727066Y-30820726D01*
X57723488Y-30849457D01*
X57719981Y-30878266D01*
X57716545Y-30907153D01*
X57713181Y-30936118D01*
X57709887Y-30965159D01*
X57706665Y-30994276D01*
X57703515Y-31023469D01*
X57700437Y-31052738D01*
X57697431Y-31082081D01*
X57694497Y-31111498D01*
X57691637Y-31140989D01*
X57688849Y-31170553D01*
X57686135Y-31200190D01*
X57683494Y-31229898D01*
X57680926Y-31259678D01*
X57678433Y-31289528D01*
X57676014Y-31319447D01*
X57673669Y-31349436D01*
X57671398Y-31379493D01*
X57669203Y-31409617D01*
X57667082Y-31439807D01*
X57665037Y-31470063D01*
X57663067Y-31500384D01*
X57661172Y-31530769D01*
X57659354Y-31561217D01*
X57657612Y-31591726D01*
X57655945Y-31622297D01*
X57654356Y-31652927D01*
X57652843Y-31683615D01*
X57651407Y-31714361D01*
X57650048Y-31745163D01*
X57648766Y-31776020D01*
X57647561Y-31806931D01*
X57646435Y-31837894D01*
X57645386Y-31868907D01*
X57644414Y-31899971D01*
X57643521Y-31931082D01*
X57642707Y-31962239D01*
X57641970Y-31993441D01*
X57641312Y-32024686D01*
X57640733Y-32055972D01*
X57640232Y-32087298D01*
X57639811Y-32118661D01*
X57639468Y-32150059D01*
X57639205Y-32181491D01*
X57639021Y-32212954D01*
X57638916Y-32244446D01*
X57638890Y-32275965D01*
X57638944Y-32307508D01*
X57639077Y-32339073D01*
X57639290Y-32370657D01*
X57639582Y-32402258D01*
X57639954Y-32433872D01*
X57640405Y-32465496D01*
X57640936Y-32497129D01*
X57641546Y-32528765D01*
X57642235Y-32560402D01*
X57643004Y-32592036D01*
X57643852Y-32623664D01*
X57644779Y-32655282D01*
X57645785Y-32686885D01*
X57646869Y-32718469D01*
X57648032Y-32750031D01*
X57649273Y-32781564D01*
X57650592Y-32813065D01*
X57651989Y-32844528D01*
X57653463Y-32875948D01*
X57655014Y-32907318D01*
X57656641Y-32938633D01*
X57658344Y-32969887D01*
X57660123Y-33001072D01*
X57661976Y-33032182D01*
X57663903Y-33063209D01*
X57665904Y-33094145D01*
X57667978Y-33124981D01*
X57670123Y-33155709D01*
X57672339Y-33186318D01*
X57674624Y-33216798D01*
X57676978Y-33247139D01*
X57679399Y-33277328D01*
X57681886Y-33307352D01*
X57684437Y-33337199D01*
X57687049Y-33366852D01*
X57689723Y-33396297D01*
X57692454Y-33425515D01*
X57695240Y-33454488D01*
X57698080Y-33483194D01*
X57700969Y-33511612D01*
X57703905Y-33539714D01*
X57706882Y-33567474D01*
X57709898Y-33594859D01*
X57712946Y-33621835D01*
X57716022Y-33648362D01*
X57719117Y-33674392D01*
X57722224Y-33699874D01*
X57725333Y-33724745D01*
X57728433Y-33748931D01*
X57731510Y-33772342D01*
X57734545Y-33794868D01*
X57737517Y-33816369D01*
X57740395Y-33836656D01*
X57743135Y-33855470D01*
X57745672Y-33872419D01*
X57747894Y-33886836D01*
X57749557Y-33897293D01*
X57750000Y-33900000D01*
X57700000Y-30650000D02*
X57600000Y-32150000D01*
X57700000Y-33900000D01*
X57500000Y-34150000D01*
X57500000Y-30400000D01*
X57700000Y-30650000D01*
G36*
X57700000Y-30650000D02*
G01*
X57600000Y-32150000D01*
X57700000Y-33900000D01*
X57500000Y-34150000D01*
X57500000Y-30400000D01*
X57700000Y-30650000D01*
G37*
X64000000Y-34150000D02*
X64000000Y-30400000D01*
X63750000Y-30650000D02*
X63753996Y-30678255D01*
X63757923Y-30706590D01*
X63761781Y-30735005D01*
X63765568Y-30763499D01*
X63769286Y-30792073D01*
X63772934Y-30820726D01*
X63776512Y-30849457D01*
X63780019Y-30878266D01*
X63783455Y-30907153D01*
X63786819Y-30936118D01*
X63790113Y-30965159D01*
X63793335Y-30994276D01*
X63796485Y-31023469D01*
X63799563Y-31052738D01*
X63802569Y-31082081D01*
X63805503Y-31111498D01*
X63808363Y-31140989D01*
X63811151Y-31170553D01*
X63813865Y-31200190D01*
X63816506Y-31229898D01*
X63819074Y-31259678D01*
X63821567Y-31289528D01*
X63823986Y-31319447D01*
X63826331Y-31349436D01*
X63828602Y-31379493D01*
X63830797Y-31409617D01*
X63832918Y-31439807D01*
X63834963Y-31470063D01*
X63836933Y-31500384D01*
X63838828Y-31530769D01*
X63840646Y-31561217D01*
X63842388Y-31591726D01*
X63844055Y-31622297D01*
X63845644Y-31652927D01*
X63847157Y-31683615D01*
X63848593Y-31714361D01*
X63849952Y-31745163D01*
X63851234Y-31776020D01*
X63852439Y-31806931D01*
X63853565Y-31837894D01*
X63854614Y-31868907D01*
X63855586Y-31899971D01*
X63856479Y-31931082D01*
X63857293Y-31962239D01*
X63858030Y-31993441D01*
X63858688Y-32024686D01*
X63859267Y-32055972D01*
X63859768Y-32087298D01*
X63860189Y-32118661D01*
X63860532Y-32150059D01*
X63860795Y-32181491D01*
X63860979Y-32212954D01*
X63861084Y-32244446D01*
X63861110Y-32275965D01*
X63861056Y-32307508D01*
X63860923Y-32339073D01*
X63860710Y-32370657D01*
X63860418Y-32402258D01*
X63860046Y-32433872D01*
X63859595Y-32465496D01*
X63859064Y-32497129D01*
X63858454Y-32528765D01*
X63857765Y-32560402D01*
X63856996Y-32592036D01*
X63856148Y-32623664D01*
X63855221Y-32655282D01*
X63854215Y-32686885D01*
X63853131Y-32718469D01*
X63851968Y-32750031D01*
X63850727Y-32781564D01*
X63849408Y-32813065D01*
X63848011Y-32844528D01*
X63846537Y-32875948D01*
X63844986Y-32907318D01*
X63843359Y-32938633D01*
X63841656Y-32969887D01*
X63839877Y-33001072D01*
X63838024Y-33032182D01*
X63836097Y-33063209D01*
X63834096Y-33094145D01*
X63832022Y-33124981D01*
X63829877Y-33155709D01*
X63827661Y-33186318D01*
X63825376Y-33216798D01*
X63823022Y-33247139D01*
X63820601Y-33277328D01*
X63818114Y-33307352D01*
X63815563Y-33337199D01*
X63812951Y-33366852D01*
X63810277Y-33396297D01*
X63807546Y-33425515D01*
X63804760Y-33454488D01*
X63801920Y-33483194D01*
X63799031Y-33511612D01*
X63796095Y-33539714D01*
X63793118Y-33567474D01*
X63790102Y-33594859D01*
X63787054Y-33621835D01*
X63783978Y-33648362D01*
X63780883Y-33674392D01*
X63777776Y-33699874D01*
X63774667Y-33724745D01*
X63771567Y-33748931D01*
X63768490Y-33772342D01*
X63765455Y-33794868D01*
X63762483Y-33816369D01*
X63759605Y-33836656D01*
X63756865Y-33855470D01*
X63754328Y-33872419D01*
X63752106Y-33886836D01*
X63750443Y-33897293D01*
X63750000Y-33900000D01*
X64000000Y-34150000D02*
X57500000Y-34150000D01*
X64000000Y-34150000D02*
X57500000Y-34150000D01*
X57750000Y-33950000D01*
X60750000Y-34050000D01*
X63750000Y-33950000D01*
X64000000Y-34150000D01*
G36*
X64000000Y-34150000D02*
G01*
X57500000Y-34150000D01*
X57750000Y-33950000D01*
X60750000Y-34050000D01*
X63750000Y-33950000D01*
X64000000Y-34150000D01*
G37*
X64000000Y-34150000D02*
X63800000Y-33900000D01*
X63950000Y-32325000D01*
X63800000Y-30650000D01*
X64000000Y-30400000D01*
X64000000Y-34150000D01*
G36*
X64000000Y-34150000D02*
G01*
X63800000Y-33900000D01*
X63950000Y-32325000D01*
X63800000Y-30650000D01*
X64000000Y-30400000D01*
X64000000Y-34150000D01*
G37*
X64000000Y-30400000D02*
X57500000Y-30400000D01*
X57500000Y-30400000D02*
X57500000Y-34150000D01*
X57750000Y-30650000D02*
X57802438Y-30646006D01*
X57855023Y-30642081D01*
X57907755Y-30638225D01*
X57960631Y-30634439D01*
X58013653Y-30630722D01*
X58066818Y-30627075D01*
X58120126Y-30623498D01*
X58173576Y-30619991D01*
X58227167Y-30616555D01*
X58280899Y-30613190D01*
X58334770Y-30609896D01*
X58388779Y-30606673D01*
X58442925Y-30603522D01*
X58497207Y-30600443D01*
X58551624Y-30597437D01*
X58606175Y-30594502D01*
X58660859Y-30591641D01*
X58715674Y-30588852D01*
X58770619Y-30586136D01*
X58825692Y-30583494D01*
X58880893Y-30580925D01*
X58936220Y-30578431D01*
X58991671Y-30576010D01*
X59047245Y-30573664D01*
X59102940Y-30571393D01*
X59158754Y-30569196D01*
X59214687Y-30567074D01*
X59270736Y-30565028D01*
X59326899Y-30563057D01*
X59383174Y-30561162D01*
X59439560Y-30559343D01*
X59496055Y-30557600D01*
X59552655Y-30555934D01*
X59609360Y-30554344D01*
X59666167Y-30552830D01*
X59723074Y-30551394D01*
X59780078Y-30550035D01*
X59837176Y-30548753D01*
X59894367Y-30547549D01*
X59951648Y-30546422D01*
X60009015Y-30545374D01*
X60066466Y-30544403D01*
X60123998Y-30543510D01*
X60181608Y-30542696D01*
X60239293Y-30541961D01*
X60297049Y-30541304D01*
X60354874Y-30540725D01*
X60412763Y-30540226D01*
X60470712Y-30539805D01*
X60528719Y-30539464D01*
X60586779Y-30539202D01*
X60644888Y-30539018D01*
X60703041Y-30538915D01*
X60761235Y-30538890D01*
X60819464Y-30538945D01*
X60877724Y-30539080D01*
X60936010Y-30539294D01*
X60994317Y-30539587D01*
X61052639Y-30539960D01*
X61110971Y-30540412D01*
X61169307Y-30540944D01*
X61227640Y-30541555D01*
X61285964Y-30542245D01*
X61344273Y-30543014D01*
X61402560Y-30543863D01*
X61460817Y-30544790D01*
X61519037Y-30545796D01*
X61577212Y-30546880D01*
X61635334Y-30548043D01*
X61693393Y-30549283D01*
X61751381Y-30550601D01*
X61809287Y-30551997D01*
X61867103Y-30553469D01*
X61924817Y-30555018D01*
X61982418Y-30556643D01*
X62039894Y-30558343D01*
X62097232Y-30560119D01*
X62154421Y-30561968D01*
X62211445Y-30563892D01*
X62268289Y-30565888D01*
X62324939Y-30567957D01*
X62381378Y-30570096D01*
X62437587Y-30572306D01*
X62493548Y-30574585D01*
X62549241Y-30576931D01*
X62604644Y-30579344D01*
X62659734Y-30581822D01*
X62714485Y-30584364D01*
X62768872Y-30586967D01*
X62822864Y-30589629D01*
X62876430Y-30592349D01*
X62929535Y-30595124D01*
X62982143Y-30597951D01*
X63034211Y-30600827D01*
X63085693Y-30603749D01*
X63136540Y-30606712D01*
X63186694Y-30609713D01*
X63236092Y-30612746D01*
X63284662Y-30615805D01*
X63332322Y-30618884D01*
X63378977Y-30621975D01*
X63424517Y-30625069D01*
X63468810Y-30628154D01*
X63511699Y-30631217D01*
X63552988Y-30634240D01*
X63592431Y-30637202D01*
X63629702Y-30640075D01*
X63664353Y-30642816D01*
X63695717Y-30645366D01*
X63722687Y-30647623D01*
X63742993Y-30649377D01*
X63750000Y-30650000D01*
X63800000Y-30600000D02*
X60750000Y-30450000D01*
X57750000Y-30600000D01*
X57500000Y-30400000D01*
X64000000Y-30400000D01*
X63800000Y-30600000D01*
G36*
X63800000Y-30600000D02*
G01*
X60750000Y-30450000D01*
X57750000Y-30600000D01*
X57500000Y-30400000D01*
X64000000Y-30400000D01*
X63800000Y-30600000D01*
G37*
D11*
X57972054Y-32719600D02*
X58114911Y-32767219D01*
X58114911Y-32767219D02*
X58353006Y-32767219D01*
X58353006Y-32767219D02*
X58448244Y-32719600D01*
X58448244Y-32719600D02*
X58495863Y-32671980D01*
X58495863Y-32671980D02*
X58543482Y-32576742D01*
X58543482Y-32576742D02*
X58543482Y-32481504D01*
X58543482Y-32481504D02*
X58495863Y-32386266D01*
X58495863Y-32386266D02*
X58448244Y-32338647D01*
X58448244Y-32338647D02*
X58353006Y-32291028D01*
X58353006Y-32291028D02*
X58162530Y-32243409D01*
X58162530Y-32243409D02*
X58067292Y-32195790D01*
X58067292Y-32195790D02*
X58019673Y-32148171D01*
X58019673Y-32148171D02*
X57972054Y-32052933D01*
X57972054Y-32052933D02*
X57972054Y-31957695D01*
X57972054Y-31957695D02*
X58019673Y-31862457D01*
X58019673Y-31862457D02*
X58067292Y-31814838D01*
X58067292Y-31814838D02*
X58162530Y-31767219D01*
X58162530Y-31767219D02*
X58400625Y-31767219D01*
X58400625Y-31767219D02*
X58543482Y-31814838D01*
X59543482Y-32767219D02*
X59210149Y-32291028D01*
X58972054Y-32767219D02*
X58972054Y-31767219D01*
X58972054Y-31767219D02*
X59353006Y-31767219D01*
X59353006Y-31767219D02*
X59448244Y-31814838D01*
X59448244Y-31814838D02*
X59495863Y-31862457D01*
X59495863Y-31862457D02*
X59543482Y-31957695D01*
X59543482Y-31957695D02*
X59543482Y-32100552D01*
X59543482Y-32100552D02*
X59495863Y-32195790D01*
X59495863Y-32195790D02*
X59448244Y-32243409D01*
X59448244Y-32243409D02*
X59353006Y-32291028D01*
X59353006Y-32291028D02*
X58972054Y-32291028D01*
X59972054Y-32386266D02*
X60733959Y-32386266D01*
X61781577Y-32671980D02*
X61733958Y-32719600D01*
X61733958Y-32719600D02*
X61591101Y-32767219D01*
X61591101Y-32767219D02*
X61495863Y-32767219D01*
X61495863Y-32767219D02*
X61353006Y-32719600D01*
X61353006Y-32719600D02*
X61257768Y-32624361D01*
X61257768Y-32624361D02*
X61210149Y-32529123D01*
X61210149Y-32529123D02*
X61162530Y-32338647D01*
X61162530Y-32338647D02*
X61162530Y-32195790D01*
X61162530Y-32195790D02*
X61210149Y-32005314D01*
X61210149Y-32005314D02*
X61257768Y-31910076D01*
X61257768Y-31910076D02*
X61353006Y-31814838D01*
X61353006Y-31814838D02*
X61495863Y-31767219D01*
X61495863Y-31767219D02*
X61591101Y-31767219D01*
X61591101Y-31767219D02*
X61733958Y-31814838D01*
X61733958Y-31814838D02*
X61781577Y-31862457D01*
X62781577Y-32767219D02*
X62448244Y-32291028D01*
X62210149Y-32767219D02*
X62210149Y-31767219D01*
X62210149Y-31767219D02*
X62591101Y-31767219D01*
X62591101Y-31767219D02*
X62686339Y-31814838D01*
X62686339Y-31814838D02*
X62733958Y-31862457D01*
X62733958Y-31862457D02*
X62781577Y-31957695D01*
X62781577Y-31957695D02*
X62781577Y-32100552D01*
X62781577Y-32100552D02*
X62733958Y-32195790D01*
X62733958Y-32195790D02*
X62686339Y-32243409D01*
X62686339Y-32243409D02*
X62591101Y-32291028D01*
X62591101Y-32291028D02*
X62210149Y-32291028D01*
X63067292Y-31767219D02*
X63638720Y-31767219D01*
X63353006Y-32767219D02*
X63353006Y-31767219D01*
D10*
X44863408Y-48570704D02*
X44825312Y-48608800D01*
X44825312Y-48608800D02*
X44711027Y-48646895D01*
X44711027Y-48646895D02*
X44634836Y-48646895D01*
X44634836Y-48646895D02*
X44520550Y-48608800D01*
X44520550Y-48608800D02*
X44444360Y-48532609D01*
X44444360Y-48532609D02*
X44406265Y-48456419D01*
X44406265Y-48456419D02*
X44368169Y-48304038D01*
X44368169Y-48304038D02*
X44368169Y-48189752D01*
X44368169Y-48189752D02*
X44406265Y-48037371D01*
X44406265Y-48037371D02*
X44444360Y-47961180D01*
X44444360Y-47961180D02*
X44520550Y-47884990D01*
X44520550Y-47884990D02*
X44634836Y-47846895D01*
X44634836Y-47846895D02*
X44711027Y-47846895D01*
X44711027Y-47846895D02*
X44825312Y-47884990D01*
X44825312Y-47884990D02*
X44863408Y-47923085D01*
X45320550Y-48646895D02*
X45244360Y-48608800D01*
X45244360Y-48608800D02*
X45206265Y-48570704D01*
X45206265Y-48570704D02*
X45168169Y-48494514D01*
X45168169Y-48494514D02*
X45168169Y-48265942D01*
X45168169Y-48265942D02*
X45206265Y-48189752D01*
X45206265Y-48189752D02*
X45244360Y-48151657D01*
X45244360Y-48151657D02*
X45320550Y-48113561D01*
X45320550Y-48113561D02*
X45434836Y-48113561D01*
X45434836Y-48113561D02*
X45511027Y-48151657D01*
X45511027Y-48151657D02*
X45549122Y-48189752D01*
X45549122Y-48189752D02*
X45587217Y-48265942D01*
X45587217Y-48265942D02*
X45587217Y-48494514D01*
X45587217Y-48494514D02*
X45549122Y-48570704D01*
X45549122Y-48570704D02*
X45511027Y-48608800D01*
X45511027Y-48608800D02*
X45434836Y-48646895D01*
X45434836Y-48646895D02*
X45320550Y-48646895D01*
X45930075Y-48113561D02*
X45930075Y-48913561D01*
X45930075Y-48151657D02*
X46006265Y-48113561D01*
X46006265Y-48113561D02*
X46158646Y-48113561D01*
X46158646Y-48113561D02*
X46234837Y-48151657D01*
X46234837Y-48151657D02*
X46272932Y-48189752D01*
X46272932Y-48189752D02*
X46311027Y-48265942D01*
X46311027Y-48265942D02*
X46311027Y-48494514D01*
X46311027Y-48494514D02*
X46272932Y-48570704D01*
X46272932Y-48570704D02*
X46234837Y-48608800D01*
X46234837Y-48608800D02*
X46158646Y-48646895D01*
X46158646Y-48646895D02*
X46006265Y-48646895D01*
X46006265Y-48646895D02*
X45930075Y-48608800D01*
X46577694Y-48113561D02*
X46768170Y-48646895D01*
X46958647Y-48113561D02*
X46768170Y-48646895D01*
X46768170Y-48646895D02*
X46691980Y-48837371D01*
X46691980Y-48837371D02*
X46653885Y-48875466D01*
X46653885Y-48875466D02*
X46577694Y-48913561D01*
X47263409Y-48646895D02*
X47263409Y-48113561D01*
X47263409Y-48265942D02*
X47301504Y-48189752D01*
X47301504Y-48189752D02*
X47339599Y-48151657D01*
X47339599Y-48151657D02*
X47415790Y-48113561D01*
X47415790Y-48113561D02*
X47491980Y-48113561D01*
X47758647Y-48646895D02*
X47758647Y-48113561D01*
X47758647Y-47846895D02*
X47720551Y-47884990D01*
X47720551Y-47884990D02*
X47758647Y-47923085D01*
X47758647Y-47923085D02*
X47796742Y-47884990D01*
X47796742Y-47884990D02*
X47758647Y-47846895D01*
X47758647Y-47846895D02*
X47758647Y-47923085D01*
X48482456Y-48113561D02*
X48482456Y-48761180D01*
X48482456Y-48761180D02*
X48444361Y-48837371D01*
X48444361Y-48837371D02*
X48406265Y-48875466D01*
X48406265Y-48875466D02*
X48330075Y-48913561D01*
X48330075Y-48913561D02*
X48215789Y-48913561D01*
X48215789Y-48913561D02*
X48139599Y-48875466D01*
X48482456Y-48608800D02*
X48406265Y-48646895D01*
X48406265Y-48646895D02*
X48253884Y-48646895D01*
X48253884Y-48646895D02*
X48177694Y-48608800D01*
X48177694Y-48608800D02*
X48139599Y-48570704D01*
X48139599Y-48570704D02*
X48101503Y-48494514D01*
X48101503Y-48494514D02*
X48101503Y-48265942D01*
X48101503Y-48265942D02*
X48139599Y-48189752D01*
X48139599Y-48189752D02*
X48177694Y-48151657D01*
X48177694Y-48151657D02*
X48253884Y-48113561D01*
X48253884Y-48113561D02*
X48406265Y-48113561D01*
X48406265Y-48113561D02*
X48482456Y-48151657D01*
X48863409Y-48646895D02*
X48863409Y-47846895D01*
X49206266Y-48646895D02*
X49206266Y-48227847D01*
X49206266Y-48227847D02*
X49168171Y-48151657D01*
X49168171Y-48151657D02*
X49091980Y-48113561D01*
X49091980Y-48113561D02*
X48977694Y-48113561D01*
X48977694Y-48113561D02*
X48901504Y-48151657D01*
X48901504Y-48151657D02*
X48863409Y-48189752D01*
X49472933Y-48113561D02*
X49777695Y-48113561D01*
X49587219Y-47846895D02*
X49587219Y-48532609D01*
X49587219Y-48532609D02*
X49625314Y-48608800D01*
X49625314Y-48608800D02*
X49701504Y-48646895D01*
X49701504Y-48646895D02*
X49777695Y-48646895D01*
X51301505Y-48037371D02*
X51225314Y-47999276D01*
X51225314Y-47999276D02*
X51072933Y-47999276D01*
X51072933Y-47999276D02*
X50996743Y-48037371D01*
X50996743Y-48037371D02*
X50920552Y-48113561D01*
X50920552Y-48113561D02*
X50882457Y-48189752D01*
X50882457Y-48189752D02*
X50882457Y-48342133D01*
X50882457Y-48342133D02*
X50920552Y-48418323D01*
X50920552Y-48418323D02*
X50996743Y-48494514D01*
X50996743Y-48494514D02*
X51072933Y-48532609D01*
X51072933Y-48532609D02*
X51225314Y-48532609D01*
X51225314Y-48532609D02*
X51301505Y-48494514D01*
X51149124Y-47732609D02*
X50958648Y-47770704D01*
X50958648Y-47770704D02*
X50768171Y-47884990D01*
X50768171Y-47884990D02*
X50653886Y-48075466D01*
X50653886Y-48075466D02*
X50615790Y-48265942D01*
X50615790Y-48265942D02*
X50653886Y-48456419D01*
X50653886Y-48456419D02*
X50768171Y-48646895D01*
X50768171Y-48646895D02*
X50958648Y-48761180D01*
X50958648Y-48761180D02*
X51149124Y-48799276D01*
X51149124Y-48799276D02*
X51339600Y-48761180D01*
X51339600Y-48761180D02*
X51530076Y-48646895D01*
X51530076Y-48646895D02*
X51644362Y-48456419D01*
X51644362Y-48456419D02*
X51682457Y-48265942D01*
X51682457Y-48265942D02*
X51644362Y-48075466D01*
X51644362Y-48075466D02*
X51530076Y-47884990D01*
X51530076Y-47884990D02*
X51339600Y-47770704D01*
X51339600Y-47770704D02*
X51149124Y-47732609D01*
X52596743Y-47923085D02*
X52634839Y-47884990D01*
X52634839Y-47884990D02*
X52711029Y-47846895D01*
X52711029Y-47846895D02*
X52901505Y-47846895D01*
X52901505Y-47846895D02*
X52977696Y-47884990D01*
X52977696Y-47884990D02*
X53015791Y-47923085D01*
X53015791Y-47923085D02*
X53053886Y-47999276D01*
X53053886Y-47999276D02*
X53053886Y-48075466D01*
X53053886Y-48075466D02*
X53015791Y-48189752D01*
X53015791Y-48189752D02*
X52558648Y-48646895D01*
X52558648Y-48646895D02*
X53053886Y-48646895D01*
X53549125Y-47846895D02*
X53625315Y-47846895D01*
X53625315Y-47846895D02*
X53701506Y-47884990D01*
X53701506Y-47884990D02*
X53739601Y-47923085D01*
X53739601Y-47923085D02*
X53777696Y-47999276D01*
X53777696Y-47999276D02*
X53815791Y-48151657D01*
X53815791Y-48151657D02*
X53815791Y-48342133D01*
X53815791Y-48342133D02*
X53777696Y-48494514D01*
X53777696Y-48494514D02*
X53739601Y-48570704D01*
X53739601Y-48570704D02*
X53701506Y-48608800D01*
X53701506Y-48608800D02*
X53625315Y-48646895D01*
X53625315Y-48646895D02*
X53549125Y-48646895D01*
X53549125Y-48646895D02*
X53472934Y-48608800D01*
X53472934Y-48608800D02*
X53434839Y-48570704D01*
X53434839Y-48570704D02*
X53396744Y-48494514D01*
X53396744Y-48494514D02*
X53358648Y-48342133D01*
X53358648Y-48342133D02*
X53358648Y-48151657D01*
X53358648Y-48151657D02*
X53396744Y-47999276D01*
X53396744Y-47999276D02*
X53434839Y-47923085D01*
X53434839Y-47923085D02*
X53472934Y-47884990D01*
X53472934Y-47884990D02*
X53549125Y-47846895D01*
X54120553Y-47923085D02*
X54158649Y-47884990D01*
X54158649Y-47884990D02*
X54234839Y-47846895D01*
X54234839Y-47846895D02*
X54425315Y-47846895D01*
X54425315Y-47846895D02*
X54501506Y-47884990D01*
X54501506Y-47884990D02*
X54539601Y-47923085D01*
X54539601Y-47923085D02*
X54577696Y-47999276D01*
X54577696Y-47999276D02*
X54577696Y-48075466D01*
X54577696Y-48075466D02*
X54539601Y-48189752D01*
X54539601Y-48189752D02*
X54082458Y-48646895D01*
X54082458Y-48646895D02*
X54577696Y-48646895D01*
X55301506Y-47846895D02*
X54920554Y-47846895D01*
X54920554Y-47846895D02*
X54882458Y-48227847D01*
X54882458Y-48227847D02*
X54920554Y-48189752D01*
X54920554Y-48189752D02*
X54996744Y-48151657D01*
X54996744Y-48151657D02*
X55187220Y-48151657D01*
X55187220Y-48151657D02*
X55263411Y-48189752D01*
X55263411Y-48189752D02*
X55301506Y-48227847D01*
X55301506Y-48227847D02*
X55339601Y-48304038D01*
X55339601Y-48304038D02*
X55339601Y-48494514D01*
X55339601Y-48494514D02*
X55301506Y-48570704D01*
X55301506Y-48570704D02*
X55263411Y-48608800D01*
X55263411Y-48608800D02*
X55187220Y-48646895D01*
X55187220Y-48646895D02*
X54996744Y-48646895D01*
X54996744Y-48646895D02*
X54920554Y-48608800D01*
X54920554Y-48608800D02*
X54882458Y-48570704D01*
X56253887Y-48608800D02*
X56368173Y-48646895D01*
X56368173Y-48646895D02*
X56558649Y-48646895D01*
X56558649Y-48646895D02*
X56634840Y-48608800D01*
X56634840Y-48608800D02*
X56672935Y-48570704D01*
X56672935Y-48570704D02*
X56711030Y-48494514D01*
X56711030Y-48494514D02*
X56711030Y-48418323D01*
X56711030Y-48418323D02*
X56672935Y-48342133D01*
X56672935Y-48342133D02*
X56634840Y-48304038D01*
X56634840Y-48304038D02*
X56558649Y-48265942D01*
X56558649Y-48265942D02*
X56406268Y-48227847D01*
X56406268Y-48227847D02*
X56330078Y-48189752D01*
X56330078Y-48189752D02*
X56291983Y-48151657D01*
X56291983Y-48151657D02*
X56253887Y-48075466D01*
X56253887Y-48075466D02*
X56253887Y-47999276D01*
X56253887Y-47999276D02*
X56291983Y-47923085D01*
X56291983Y-47923085D02*
X56330078Y-47884990D01*
X56330078Y-47884990D02*
X56406268Y-47846895D01*
X56406268Y-47846895D02*
X56596745Y-47846895D01*
X56596745Y-47846895D02*
X56711030Y-47884990D01*
X57511031Y-48646895D02*
X57244364Y-48265942D01*
X57053888Y-48646895D02*
X57053888Y-47846895D01*
X57053888Y-47846895D02*
X57358650Y-47846895D01*
X57358650Y-47846895D02*
X57434840Y-47884990D01*
X57434840Y-47884990D02*
X57472935Y-47923085D01*
X57472935Y-47923085D02*
X57511031Y-47999276D01*
X57511031Y-47999276D02*
X57511031Y-48113561D01*
X57511031Y-48113561D02*
X57472935Y-48189752D01*
X57472935Y-48189752D02*
X57434840Y-48227847D01*
X57434840Y-48227847D02*
X57358650Y-48265942D01*
X57358650Y-48265942D02*
X57053888Y-48265942D01*
X58120554Y-48227847D02*
X58234840Y-48265942D01*
X58234840Y-48265942D02*
X58272935Y-48304038D01*
X58272935Y-48304038D02*
X58311031Y-48380228D01*
X58311031Y-48380228D02*
X58311031Y-48494514D01*
X58311031Y-48494514D02*
X58272935Y-48570704D01*
X58272935Y-48570704D02*
X58234840Y-48608800D01*
X58234840Y-48608800D02*
X58158650Y-48646895D01*
X58158650Y-48646895D02*
X57853888Y-48646895D01*
X57853888Y-48646895D02*
X57853888Y-47846895D01*
X57853888Y-47846895D02*
X58120554Y-47846895D01*
X58120554Y-47846895D02*
X58196745Y-47884990D01*
X58196745Y-47884990D02*
X58234840Y-47923085D01*
X58234840Y-47923085D02*
X58272935Y-47999276D01*
X58272935Y-47999276D02*
X58272935Y-48075466D01*
X58272935Y-48075466D02*
X58234840Y-48151657D01*
X58234840Y-48151657D02*
X58196745Y-48189752D01*
X58196745Y-48189752D02*
X58120554Y-48227847D01*
X58120554Y-48227847D02*
X57853888Y-48227847D01*
X59720555Y-48570704D02*
X59682459Y-48608800D01*
X59682459Y-48608800D02*
X59568174Y-48646895D01*
X59568174Y-48646895D02*
X59491983Y-48646895D01*
X59491983Y-48646895D02*
X59377697Y-48608800D01*
X59377697Y-48608800D02*
X59301507Y-48532609D01*
X59301507Y-48532609D02*
X59263412Y-48456419D01*
X59263412Y-48456419D02*
X59225316Y-48304038D01*
X59225316Y-48304038D02*
X59225316Y-48189752D01*
X59225316Y-48189752D02*
X59263412Y-48037371D01*
X59263412Y-48037371D02*
X59301507Y-47961180D01*
X59301507Y-47961180D02*
X59377697Y-47884990D01*
X59377697Y-47884990D02*
X59491983Y-47846895D01*
X59491983Y-47846895D02*
X59568174Y-47846895D01*
X59568174Y-47846895D02*
X59682459Y-47884990D01*
X59682459Y-47884990D02*
X59720555Y-47923085D01*
X60177697Y-48646895D02*
X60101507Y-48608800D01*
X60101507Y-48608800D02*
X60063412Y-48570704D01*
X60063412Y-48570704D02*
X60025316Y-48494514D01*
X60025316Y-48494514D02*
X60025316Y-48265942D01*
X60025316Y-48265942D02*
X60063412Y-48189752D01*
X60063412Y-48189752D02*
X60101507Y-48151657D01*
X60101507Y-48151657D02*
X60177697Y-48113561D01*
X60177697Y-48113561D02*
X60291983Y-48113561D01*
X60291983Y-48113561D02*
X60368174Y-48151657D01*
X60368174Y-48151657D02*
X60406269Y-48189752D01*
X60406269Y-48189752D02*
X60444364Y-48265942D01*
X60444364Y-48265942D02*
X60444364Y-48494514D01*
X60444364Y-48494514D02*
X60406269Y-48570704D01*
X60406269Y-48570704D02*
X60368174Y-48608800D01*
X60368174Y-48608800D02*
X60291983Y-48646895D01*
X60291983Y-48646895D02*
X60177697Y-48646895D01*
X60787222Y-48646895D02*
X60787222Y-48113561D01*
X60787222Y-48189752D02*
X60825317Y-48151657D01*
X60825317Y-48151657D02*
X60901507Y-48113561D01*
X60901507Y-48113561D02*
X61015793Y-48113561D01*
X61015793Y-48113561D02*
X61091984Y-48151657D01*
X61091984Y-48151657D02*
X61130079Y-48227847D01*
X61130079Y-48227847D02*
X61130079Y-48646895D01*
X61130079Y-48227847D02*
X61168174Y-48151657D01*
X61168174Y-48151657D02*
X61244365Y-48113561D01*
X61244365Y-48113561D02*
X61358650Y-48113561D01*
X61358650Y-48113561D02*
X61434841Y-48151657D01*
X61434841Y-48151657D02*
X61472936Y-48227847D01*
X61472936Y-48227847D02*
X61472936Y-48646895D01*
X61853889Y-48113561D02*
X61853889Y-48913561D01*
X61853889Y-48151657D02*
X61930079Y-48113561D01*
X61930079Y-48113561D02*
X62082460Y-48113561D01*
X62082460Y-48113561D02*
X62158651Y-48151657D01*
X62158651Y-48151657D02*
X62196746Y-48189752D01*
X62196746Y-48189752D02*
X62234841Y-48265942D01*
X62234841Y-48265942D02*
X62234841Y-48494514D01*
X62234841Y-48494514D02*
X62196746Y-48570704D01*
X62196746Y-48570704D02*
X62158651Y-48608800D01*
X62158651Y-48608800D02*
X62082460Y-48646895D01*
X62082460Y-48646895D02*
X61930079Y-48646895D01*
X61930079Y-48646895D02*
X61853889Y-48608800D01*
X62920556Y-48113561D02*
X62920556Y-48646895D01*
X62577699Y-48113561D02*
X62577699Y-48532609D01*
X62577699Y-48532609D02*
X62615794Y-48608800D01*
X62615794Y-48608800D02*
X62691984Y-48646895D01*
X62691984Y-48646895D02*
X62806270Y-48646895D01*
X62806270Y-48646895D02*
X62882461Y-48608800D01*
X62882461Y-48608800D02*
X62920556Y-48570704D01*
X63187223Y-48113561D02*
X63491985Y-48113561D01*
X63301509Y-47846895D02*
X63301509Y-48532609D01*
X63301509Y-48532609D02*
X63339604Y-48608800D01*
X63339604Y-48608800D02*
X63415794Y-48646895D01*
X63415794Y-48646895D02*
X63491985Y-48646895D01*
X64063414Y-48608800D02*
X63987223Y-48646895D01*
X63987223Y-48646895D02*
X63834842Y-48646895D01*
X63834842Y-48646895D02*
X63758652Y-48608800D01*
X63758652Y-48608800D02*
X63720556Y-48532609D01*
X63720556Y-48532609D02*
X63720556Y-48227847D01*
X63720556Y-48227847D02*
X63758652Y-48151657D01*
X63758652Y-48151657D02*
X63834842Y-48113561D01*
X63834842Y-48113561D02*
X63987223Y-48113561D01*
X63987223Y-48113561D02*
X64063414Y-48151657D01*
X64063414Y-48151657D02*
X64101509Y-48227847D01*
X64101509Y-48227847D02*
X64101509Y-48304038D01*
X64101509Y-48304038D02*
X63720556Y-48380228D01*
X64444366Y-48646895D02*
X64444366Y-48113561D01*
X64444366Y-48265942D02*
X64482461Y-48189752D01*
X64482461Y-48189752D02*
X64520556Y-48151657D01*
X64520556Y-48151657D02*
X64596747Y-48113561D01*
X64596747Y-48113561D02*
X64672937Y-48113561D01*
X66006271Y-48570704D02*
X65968175Y-48608800D01*
X65968175Y-48608800D02*
X65853890Y-48646895D01*
X65853890Y-48646895D02*
X65777699Y-48646895D01*
X65777699Y-48646895D02*
X65663413Y-48608800D01*
X65663413Y-48608800D02*
X65587223Y-48532609D01*
X65587223Y-48532609D02*
X65549128Y-48456419D01*
X65549128Y-48456419D02*
X65511032Y-48304038D01*
X65511032Y-48304038D02*
X65511032Y-48189752D01*
X65511032Y-48189752D02*
X65549128Y-48037371D01*
X65549128Y-48037371D02*
X65587223Y-47961180D01*
X65587223Y-47961180D02*
X65663413Y-47884990D01*
X65663413Y-47884990D02*
X65777699Y-47846895D01*
X65777699Y-47846895D02*
X65853890Y-47846895D01*
X65853890Y-47846895D02*
X65968175Y-47884990D01*
X65968175Y-47884990D02*
X66006271Y-47923085D01*
X66463413Y-48646895D02*
X66387223Y-48608800D01*
X66387223Y-48608800D02*
X66349128Y-48570704D01*
X66349128Y-48570704D02*
X66311032Y-48494514D01*
X66311032Y-48494514D02*
X66311032Y-48265942D01*
X66311032Y-48265942D02*
X66349128Y-48189752D01*
X66349128Y-48189752D02*
X66387223Y-48151657D01*
X66387223Y-48151657D02*
X66463413Y-48113561D01*
X66463413Y-48113561D02*
X66577699Y-48113561D01*
X66577699Y-48113561D02*
X66653890Y-48151657D01*
X66653890Y-48151657D02*
X66691985Y-48189752D01*
X66691985Y-48189752D02*
X66730080Y-48265942D01*
X66730080Y-48265942D02*
X66730080Y-48494514D01*
X66730080Y-48494514D02*
X66691985Y-48570704D01*
X66691985Y-48570704D02*
X66653890Y-48608800D01*
X66653890Y-48608800D02*
X66577699Y-48646895D01*
X66577699Y-48646895D02*
X66463413Y-48646895D01*
X67072938Y-48570704D02*
X67111033Y-48608800D01*
X67111033Y-48608800D02*
X67072938Y-48646895D01*
X67072938Y-48646895D02*
X67034842Y-48608800D01*
X67034842Y-48608800D02*
X67072938Y-48570704D01*
X67072938Y-48570704D02*
X67072938Y-48646895D01*
D12*
X46833333Y-29609580D02*
X46785714Y-29657200D01*
X46785714Y-29657200D02*
X46642857Y-29704819D01*
X46642857Y-29704819D02*
X46547619Y-29704819D01*
X46547619Y-29704819D02*
X46404762Y-29657200D01*
X46404762Y-29657200D02*
X46309524Y-29561961D01*
X46309524Y-29561961D02*
X46261905Y-29466723D01*
X46261905Y-29466723D02*
X46214286Y-29276247D01*
X46214286Y-29276247D02*
X46214286Y-29133390D01*
X46214286Y-29133390D02*
X46261905Y-28942914D01*
X46261905Y-28942914D02*
X46309524Y-28847676D01*
X46309524Y-28847676D02*
X46404762Y-28752438D01*
X46404762Y-28752438D02*
X46547619Y-28704819D01*
X46547619Y-28704819D02*
X46642857Y-28704819D01*
X46642857Y-28704819D02*
X46785714Y-28752438D01*
X46785714Y-28752438D02*
X46833333Y-28800057D01*
X47785714Y-29704819D02*
X47214286Y-29704819D01*
X47500000Y-29704819D02*
X47500000Y-28704819D01*
X47500000Y-28704819D02*
X47404762Y-28847676D01*
X47404762Y-28847676D02*
X47309524Y-28942914D01*
X47309524Y-28942914D02*
X47214286Y-28990533D01*
X50220833Y-56609580D02*
X50173214Y-56657200D01*
X50173214Y-56657200D02*
X50030357Y-56704819D01*
X50030357Y-56704819D02*
X49935119Y-56704819D01*
X49935119Y-56704819D02*
X49792262Y-56657200D01*
X49792262Y-56657200D02*
X49697024Y-56561961D01*
X49697024Y-56561961D02*
X49649405Y-56466723D01*
X49649405Y-56466723D02*
X49601786Y-56276247D01*
X49601786Y-56276247D02*
X49601786Y-56133390D01*
X49601786Y-56133390D02*
X49649405Y-55942914D01*
X49649405Y-55942914D02*
X49697024Y-55847676D01*
X49697024Y-55847676D02*
X49792262Y-55752438D01*
X49792262Y-55752438D02*
X49935119Y-55704819D01*
X49935119Y-55704819D02*
X50030357Y-55704819D01*
X50030357Y-55704819D02*
X50173214Y-55752438D01*
X50173214Y-55752438D02*
X50220833Y-55800057D01*
X51077976Y-56038152D02*
X51077976Y-56704819D01*
X50839881Y-55657200D02*
X50601786Y-56371485D01*
X50601786Y-56371485D02*
X51220833Y-56371485D01*
X67333333Y-35859580D02*
X67285714Y-35907200D01*
X67285714Y-35907200D02*
X67142857Y-35954819D01*
X67142857Y-35954819D02*
X67047619Y-35954819D01*
X67047619Y-35954819D02*
X66904762Y-35907200D01*
X66904762Y-35907200D02*
X66809524Y-35811961D01*
X66809524Y-35811961D02*
X66761905Y-35716723D01*
X66761905Y-35716723D02*
X66714286Y-35526247D01*
X66714286Y-35526247D02*
X66714286Y-35383390D01*
X66714286Y-35383390D02*
X66761905Y-35192914D01*
X66761905Y-35192914D02*
X66809524Y-35097676D01*
X66809524Y-35097676D02*
X66904762Y-35002438D01*
X66904762Y-35002438D02*
X67047619Y-34954819D01*
X67047619Y-34954819D02*
X67142857Y-34954819D01*
X67142857Y-34954819D02*
X67285714Y-35002438D01*
X67285714Y-35002438D02*
X67333333Y-35050057D01*
X67904762Y-35383390D02*
X67809524Y-35335771D01*
X67809524Y-35335771D02*
X67761905Y-35288152D01*
X67761905Y-35288152D02*
X67714286Y-35192914D01*
X67714286Y-35192914D02*
X67714286Y-35145295D01*
X67714286Y-35145295D02*
X67761905Y-35050057D01*
X67761905Y-35050057D02*
X67809524Y-35002438D01*
X67809524Y-35002438D02*
X67904762Y-34954819D01*
X67904762Y-34954819D02*
X68095238Y-34954819D01*
X68095238Y-34954819D02*
X68190476Y-35002438D01*
X68190476Y-35002438D02*
X68238095Y-35050057D01*
X68238095Y-35050057D02*
X68285714Y-35145295D01*
X68285714Y-35145295D02*
X68285714Y-35192914D01*
X68285714Y-35192914D02*
X68238095Y-35288152D01*
X68238095Y-35288152D02*
X68190476Y-35335771D01*
X68190476Y-35335771D02*
X68095238Y-35383390D01*
X68095238Y-35383390D02*
X67904762Y-35383390D01*
X67904762Y-35383390D02*
X67809524Y-35431009D01*
X67809524Y-35431009D02*
X67761905Y-35478628D01*
X67761905Y-35478628D02*
X67714286Y-35573866D01*
X67714286Y-35573866D02*
X67714286Y-35764342D01*
X67714286Y-35764342D02*
X67761905Y-35859580D01*
X67761905Y-35859580D02*
X67809524Y-35907200D01*
X67809524Y-35907200D02*
X67904762Y-35954819D01*
X67904762Y-35954819D02*
X68095238Y-35954819D01*
X68095238Y-35954819D02*
X68190476Y-35907200D01*
X68190476Y-35907200D02*
X68238095Y-35859580D01*
X68238095Y-35859580D02*
X68285714Y-35764342D01*
X68285714Y-35764342D02*
X68285714Y-35573866D01*
X68285714Y-35573866D02*
X68238095Y-35478628D01*
X68238095Y-35478628D02*
X68190476Y-35431009D01*
X68190476Y-35431009D02*
X68095238Y-35383390D01*
X56109580Y-39666666D02*
X56157200Y-39714285D01*
X56157200Y-39714285D02*
X56204819Y-39857142D01*
X56204819Y-39857142D02*
X56204819Y-39952380D01*
X56204819Y-39952380D02*
X56157200Y-40095237D01*
X56157200Y-40095237D02*
X56061961Y-40190475D01*
X56061961Y-40190475D02*
X55966723Y-40238094D01*
X55966723Y-40238094D02*
X55776247Y-40285713D01*
X55776247Y-40285713D02*
X55633390Y-40285713D01*
X55633390Y-40285713D02*
X55442914Y-40238094D01*
X55442914Y-40238094D02*
X55347676Y-40190475D01*
X55347676Y-40190475D02*
X55252438Y-40095237D01*
X55252438Y-40095237D02*
X55204819Y-39952380D01*
X55204819Y-39952380D02*
X55204819Y-39857142D01*
X55204819Y-39857142D02*
X55252438Y-39714285D01*
X55252438Y-39714285D02*
X55300057Y-39666666D01*
X55204819Y-38761904D02*
X55204819Y-39238094D01*
X55204819Y-39238094D02*
X55681009Y-39285713D01*
X55681009Y-39285713D02*
X55633390Y-39238094D01*
X55633390Y-39238094D02*
X55585771Y-39142856D01*
X55585771Y-39142856D02*
X55585771Y-38904761D01*
X55585771Y-38904761D02*
X55633390Y-38809523D01*
X55633390Y-38809523D02*
X55681009Y-38761904D01*
X55681009Y-38761904D02*
X55776247Y-38714285D01*
X55776247Y-38714285D02*
X56014342Y-38714285D01*
X56014342Y-38714285D02*
X56109580Y-38761904D01*
X56109580Y-38761904D02*
X56157200Y-38809523D01*
X56157200Y-38809523D02*
X56204819Y-38904761D01*
X56204819Y-38904761D02*
X56204819Y-39142856D01*
X56204819Y-39142856D02*
X56157200Y-39238094D01*
X56157200Y-39238094D02*
X56109580Y-39285713D01*
X65583333Y-40704819D02*
X65250000Y-40228628D01*
X65011905Y-40704819D02*
X65011905Y-39704819D01*
X65011905Y-39704819D02*
X65392857Y-39704819D01*
X65392857Y-39704819D02*
X65488095Y-39752438D01*
X65488095Y-39752438D02*
X65535714Y-39800057D01*
X65535714Y-39800057D02*
X65583333Y-39895295D01*
X65583333Y-39895295D02*
X65583333Y-40038152D01*
X65583333Y-40038152D02*
X65535714Y-40133390D01*
X65535714Y-40133390D02*
X65488095Y-40181009D01*
X65488095Y-40181009D02*
X65392857Y-40228628D01*
X65392857Y-40228628D02*
X65011905Y-40228628D01*
X66535714Y-40704819D02*
X65964286Y-40704819D01*
X66250000Y-40704819D02*
X66250000Y-39704819D01*
X66250000Y-39704819D02*
X66154762Y-39847676D01*
X66154762Y-39847676D02*
X66059524Y-39942914D01*
X66059524Y-39942914D02*
X65964286Y-39990533D01*
D10*
X77457419Y-47083333D02*
X78171704Y-47083333D01*
X78171704Y-47083333D02*
X78314561Y-47130952D01*
X78314561Y-47130952D02*
X78409800Y-47226190D01*
X78409800Y-47226190D02*
X78457419Y-47369047D01*
X78457419Y-47369047D02*
X78457419Y-47464285D01*
X77457419Y-46702380D02*
X77457419Y-46083333D01*
X77457419Y-46083333D02*
X77838371Y-46416666D01*
X77838371Y-46416666D02*
X77838371Y-46273809D01*
X77838371Y-46273809D02*
X77885990Y-46178571D01*
X77885990Y-46178571D02*
X77933609Y-46130952D01*
X77933609Y-46130952D02*
X78028847Y-46083333D01*
X78028847Y-46083333D02*
X78266942Y-46083333D01*
X78266942Y-46083333D02*
X78362180Y-46130952D01*
X78362180Y-46130952D02*
X78409800Y-46178571D01*
X78409800Y-46178571D02*
X78457419Y-46273809D01*
X78457419Y-46273809D02*
X78457419Y-46559523D01*
X78457419Y-46559523D02*
X78409800Y-46654761D01*
X78409800Y-46654761D02*
X78362180Y-46702380D01*
X84864895Y-49721428D02*
X84064895Y-49721428D01*
X84064895Y-49721428D02*
X84064895Y-49416666D01*
X84064895Y-49416666D02*
X84102990Y-49340476D01*
X84102990Y-49340476D02*
X84141085Y-49302381D01*
X84141085Y-49302381D02*
X84217276Y-49264285D01*
X84217276Y-49264285D02*
X84331561Y-49264285D01*
X84331561Y-49264285D02*
X84407752Y-49302381D01*
X84407752Y-49302381D02*
X84445847Y-49340476D01*
X84445847Y-49340476D02*
X84483942Y-49416666D01*
X84483942Y-49416666D02*
X84483942Y-49721428D01*
X84064895Y-48769047D02*
X84064895Y-48616666D01*
X84064895Y-48616666D02*
X84102990Y-48540476D01*
X84102990Y-48540476D02*
X84179180Y-48464285D01*
X84179180Y-48464285D02*
X84331561Y-48426190D01*
X84331561Y-48426190D02*
X84598228Y-48426190D01*
X84598228Y-48426190D02*
X84750609Y-48464285D01*
X84750609Y-48464285D02*
X84826800Y-48540476D01*
X84826800Y-48540476D02*
X84864895Y-48616666D01*
X84864895Y-48616666D02*
X84864895Y-48769047D01*
X84864895Y-48769047D02*
X84826800Y-48845238D01*
X84826800Y-48845238D02*
X84750609Y-48921428D01*
X84750609Y-48921428D02*
X84598228Y-48959524D01*
X84598228Y-48959524D02*
X84331561Y-48959524D01*
X84331561Y-48959524D02*
X84179180Y-48921428D01*
X84179180Y-48921428D02*
X84102990Y-48845238D01*
X84102990Y-48845238D02*
X84064895Y-48769047D01*
X84864895Y-47626190D02*
X84483942Y-47892857D01*
X84864895Y-48083333D02*
X84064895Y-48083333D01*
X84064895Y-48083333D02*
X84064895Y-47778571D01*
X84064895Y-47778571D02*
X84102990Y-47702381D01*
X84102990Y-47702381D02*
X84141085Y-47664286D01*
X84141085Y-47664286D02*
X84217276Y-47626190D01*
X84217276Y-47626190D02*
X84331561Y-47626190D01*
X84331561Y-47626190D02*
X84407752Y-47664286D01*
X84407752Y-47664286D02*
X84445847Y-47702381D01*
X84445847Y-47702381D02*
X84483942Y-47778571D01*
X84483942Y-47778571D02*
X84483942Y-48083333D01*
X84064895Y-47397619D02*
X84064895Y-46940476D01*
X84864895Y-47169048D02*
X84064895Y-47169048D01*
X84826800Y-46102381D02*
X84864895Y-45988095D01*
X84864895Y-45988095D02*
X84864895Y-45797619D01*
X84864895Y-45797619D02*
X84826800Y-45721428D01*
X84826800Y-45721428D02*
X84788704Y-45683333D01*
X84788704Y-45683333D02*
X84712514Y-45645238D01*
X84712514Y-45645238D02*
X84636323Y-45645238D01*
X84636323Y-45645238D02*
X84560133Y-45683333D01*
X84560133Y-45683333D02*
X84522038Y-45721428D01*
X84522038Y-45721428D02*
X84483942Y-45797619D01*
X84483942Y-45797619D02*
X84445847Y-45950000D01*
X84445847Y-45950000D02*
X84407752Y-46026190D01*
X84407752Y-46026190D02*
X84369657Y-46064285D01*
X84369657Y-46064285D02*
X84293466Y-46102381D01*
X84293466Y-46102381D02*
X84217276Y-46102381D01*
X84217276Y-46102381D02*
X84141085Y-46064285D01*
X84141085Y-46064285D02*
X84102990Y-46026190D01*
X84102990Y-46026190D02*
X84064895Y-45950000D01*
X84064895Y-45950000D02*
X84064895Y-45759523D01*
X84064895Y-45759523D02*
X84102990Y-45645238D01*
X84864895Y-45302380D02*
X84064895Y-45302380D01*
X84864895Y-44921428D02*
X84064895Y-44921428D01*
X84064895Y-44921428D02*
X84064895Y-44730952D01*
X84064895Y-44730952D02*
X84102990Y-44616666D01*
X84102990Y-44616666D02*
X84179180Y-44540476D01*
X84179180Y-44540476D02*
X84255371Y-44502381D01*
X84255371Y-44502381D02*
X84407752Y-44464285D01*
X84407752Y-44464285D02*
X84522038Y-44464285D01*
X84522038Y-44464285D02*
X84674419Y-44502381D01*
X84674419Y-44502381D02*
X84750609Y-44540476D01*
X84750609Y-44540476D02*
X84826800Y-44616666D01*
X84826800Y-44616666D02*
X84864895Y-44730952D01*
X84864895Y-44730952D02*
X84864895Y-44921428D01*
X84445847Y-44121428D02*
X84445847Y-43854762D01*
X84864895Y-43740476D02*
X84864895Y-44121428D01*
X84864895Y-44121428D02*
X84064895Y-44121428D01*
X84064895Y-44121428D02*
X84064895Y-43740476D01*
D12*
X53375595Y-55504819D02*
X53375595Y-56314342D01*
X53375595Y-56314342D02*
X53423214Y-56409580D01*
X53423214Y-56409580D02*
X53470833Y-56457200D01*
X53470833Y-56457200D02*
X53566071Y-56504819D01*
X53566071Y-56504819D02*
X53756547Y-56504819D01*
X53756547Y-56504819D02*
X53851785Y-56457200D01*
X53851785Y-56457200D02*
X53899404Y-56409580D01*
X53899404Y-56409580D02*
X53947023Y-56314342D01*
X53947023Y-56314342D02*
X53947023Y-55504819D01*
X54947023Y-56504819D02*
X54375595Y-56504819D01*
X54661309Y-56504819D02*
X54661309Y-55504819D01*
X54661309Y-55504819D02*
X54566071Y-55647676D01*
X54566071Y-55647676D02*
X54470833Y-55742914D01*
X54470833Y-55742914D02*
X54375595Y-55790533D01*
X80116666Y-24912319D02*
X80116666Y-25626604D01*
X80116666Y-25626604D02*
X80069047Y-25769461D01*
X80069047Y-25769461D02*
X79973809Y-25864700D01*
X79973809Y-25864700D02*
X79830952Y-25912319D01*
X79830952Y-25912319D02*
X79735714Y-25912319D01*
X80545238Y-25007557D02*
X80592857Y-24959938D01*
X80592857Y-24959938D02*
X80688095Y-24912319D01*
X80688095Y-24912319D02*
X80926190Y-24912319D01*
X80926190Y-24912319D02*
X81021428Y-24959938D01*
X81021428Y-24959938D02*
X81069047Y-25007557D01*
X81069047Y-25007557D02*
X81116666Y-25102795D01*
X81116666Y-25102795D02*
X81116666Y-25198033D01*
X81116666Y-25198033D02*
X81069047Y-25340890D01*
X81069047Y-25340890D02*
X80497619Y-25912319D01*
X80497619Y-25912319D02*
X81116666Y-25912319D01*
X59859580Y-36416666D02*
X59907200Y-36464285D01*
X59907200Y-36464285D02*
X59954819Y-36607142D01*
X59954819Y-36607142D02*
X59954819Y-36702380D01*
X59954819Y-36702380D02*
X59907200Y-36845237D01*
X59907200Y-36845237D02*
X59811961Y-36940475D01*
X59811961Y-36940475D02*
X59716723Y-36988094D01*
X59716723Y-36988094D02*
X59526247Y-37035713D01*
X59526247Y-37035713D02*
X59383390Y-37035713D01*
X59383390Y-37035713D02*
X59192914Y-36988094D01*
X59192914Y-36988094D02*
X59097676Y-36940475D01*
X59097676Y-36940475D02*
X59002438Y-36845237D01*
X59002438Y-36845237D02*
X58954819Y-36702380D01*
X58954819Y-36702380D02*
X58954819Y-36607142D01*
X58954819Y-36607142D02*
X59002438Y-36464285D01*
X59002438Y-36464285D02*
X59050057Y-36416666D01*
X58954819Y-35559523D02*
X58954819Y-35749999D01*
X58954819Y-35749999D02*
X59002438Y-35845237D01*
X59002438Y-35845237D02*
X59050057Y-35892856D01*
X59050057Y-35892856D02*
X59192914Y-35988094D01*
X59192914Y-35988094D02*
X59383390Y-36035713D01*
X59383390Y-36035713D02*
X59764342Y-36035713D01*
X59764342Y-36035713D02*
X59859580Y-35988094D01*
X59859580Y-35988094D02*
X59907200Y-35940475D01*
X59907200Y-35940475D02*
X59954819Y-35845237D01*
X59954819Y-35845237D02*
X59954819Y-35654761D01*
X59954819Y-35654761D02*
X59907200Y-35559523D01*
X59907200Y-35559523D02*
X59859580Y-35511904D01*
X59859580Y-35511904D02*
X59764342Y-35464285D01*
X59764342Y-35464285D02*
X59526247Y-35464285D01*
X59526247Y-35464285D02*
X59431009Y-35511904D01*
X59431009Y-35511904D02*
X59383390Y-35559523D01*
X59383390Y-35559523D02*
X59335771Y-35654761D01*
X59335771Y-35654761D02*
X59335771Y-35845237D01*
X59335771Y-35845237D02*
X59383390Y-35940475D01*
X59383390Y-35940475D02*
X59431009Y-35988094D01*
X59431009Y-35988094D02*
X59526247Y-36035713D01*
X52567319Y-50641666D02*
X52091128Y-50974999D01*
X52567319Y-51213094D02*
X51567319Y-51213094D01*
X51567319Y-51213094D02*
X51567319Y-50832142D01*
X51567319Y-50832142D02*
X51614938Y-50736904D01*
X51614938Y-50736904D02*
X51662557Y-50689285D01*
X51662557Y-50689285D02*
X51757795Y-50641666D01*
X51757795Y-50641666D02*
X51900652Y-50641666D01*
X51900652Y-50641666D02*
X51995890Y-50689285D01*
X51995890Y-50689285D02*
X52043509Y-50736904D01*
X52043509Y-50736904D02*
X52091128Y-50832142D01*
X52091128Y-50832142D02*
X52091128Y-51213094D01*
X51567319Y-50308332D02*
X51567319Y-49689285D01*
X51567319Y-49689285D02*
X51948271Y-50022618D01*
X51948271Y-50022618D02*
X51948271Y-49879761D01*
X51948271Y-49879761D02*
X51995890Y-49784523D01*
X51995890Y-49784523D02*
X52043509Y-49736904D01*
X52043509Y-49736904D02*
X52138747Y-49689285D01*
X52138747Y-49689285D02*
X52376842Y-49689285D01*
X52376842Y-49689285D02*
X52472080Y-49736904D01*
X52472080Y-49736904D02*
X52519700Y-49784523D01*
X52519700Y-49784523D02*
X52567319Y-49879761D01*
X52567319Y-49879761D02*
X52567319Y-50165475D01*
X52567319Y-50165475D02*
X52519700Y-50260713D01*
X52519700Y-50260713D02*
X52472080Y-50308332D01*
X64583333Y-47204819D02*
X64250000Y-46728628D01*
X64011905Y-47204819D02*
X64011905Y-46204819D01*
X64011905Y-46204819D02*
X64392857Y-46204819D01*
X64392857Y-46204819D02*
X64488095Y-46252438D01*
X64488095Y-46252438D02*
X64535714Y-46300057D01*
X64535714Y-46300057D02*
X64583333Y-46395295D01*
X64583333Y-46395295D02*
X64583333Y-46538152D01*
X64583333Y-46538152D02*
X64535714Y-46633390D01*
X64535714Y-46633390D02*
X64488095Y-46681009D01*
X64488095Y-46681009D02*
X64392857Y-46728628D01*
X64392857Y-46728628D02*
X64011905Y-46728628D01*
X64964286Y-46300057D02*
X65011905Y-46252438D01*
X65011905Y-46252438D02*
X65107143Y-46204819D01*
X65107143Y-46204819D02*
X65345238Y-46204819D01*
X65345238Y-46204819D02*
X65440476Y-46252438D01*
X65440476Y-46252438D02*
X65488095Y-46300057D01*
X65488095Y-46300057D02*
X65535714Y-46395295D01*
X65535714Y-46395295D02*
X65535714Y-46490533D01*
X65535714Y-46490533D02*
X65488095Y-46633390D01*
X65488095Y-46633390D02*
X64916667Y-47204819D01*
X64916667Y-47204819D02*
X65535714Y-47204819D01*
X68860733Y-26109580D02*
X68813114Y-26157200D01*
X68813114Y-26157200D02*
X68670257Y-26204819D01*
X68670257Y-26204819D02*
X68575019Y-26204819D01*
X68575019Y-26204819D02*
X68432162Y-26157200D01*
X68432162Y-26157200D02*
X68336924Y-26061961D01*
X68336924Y-26061961D02*
X68289305Y-25966723D01*
X68289305Y-25966723D02*
X68241686Y-25776247D01*
X68241686Y-25776247D02*
X68241686Y-25633390D01*
X68241686Y-25633390D02*
X68289305Y-25442914D01*
X68289305Y-25442914D02*
X68336924Y-25347676D01*
X68336924Y-25347676D02*
X68432162Y-25252438D01*
X68432162Y-25252438D02*
X68575019Y-25204819D01*
X68575019Y-25204819D02*
X68670257Y-25204819D01*
X68670257Y-25204819D02*
X68813114Y-25252438D01*
X68813114Y-25252438D02*
X68860733Y-25300057D01*
X69241686Y-25300057D02*
X69289305Y-25252438D01*
X69289305Y-25252438D02*
X69384543Y-25204819D01*
X69384543Y-25204819D02*
X69622638Y-25204819D01*
X69622638Y-25204819D02*
X69717876Y-25252438D01*
X69717876Y-25252438D02*
X69765495Y-25300057D01*
X69765495Y-25300057D02*
X69813114Y-25395295D01*
X69813114Y-25395295D02*
X69813114Y-25490533D01*
X69813114Y-25490533D02*
X69765495Y-25633390D01*
X69765495Y-25633390D02*
X69194067Y-26204819D01*
X69194067Y-26204819D02*
X69813114Y-26204819D01*
X55616666Y-46004819D02*
X55616666Y-46719104D01*
X55616666Y-46719104D02*
X55569047Y-46861961D01*
X55569047Y-46861961D02*
X55473809Y-46957200D01*
X55473809Y-46957200D02*
X55330952Y-47004819D01*
X55330952Y-47004819D02*
X55235714Y-47004819D01*
X56616666Y-47004819D02*
X56045238Y-47004819D01*
X56330952Y-47004819D02*
X56330952Y-46004819D01*
X56330952Y-46004819D02*
X56235714Y-46147676D01*
X56235714Y-46147676D02*
X56140476Y-46242914D01*
X56140476Y-46242914D02*
X56045238Y-46290533D01*
X60238095Y-37554819D02*
X60238095Y-38364342D01*
X60238095Y-38364342D02*
X60285714Y-38459580D01*
X60285714Y-38459580D02*
X60333333Y-38507200D01*
X60333333Y-38507200D02*
X60428571Y-38554819D01*
X60428571Y-38554819D02*
X60619047Y-38554819D01*
X60619047Y-38554819D02*
X60714285Y-38507200D01*
X60714285Y-38507200D02*
X60761904Y-38459580D01*
X60761904Y-38459580D02*
X60809523Y-38364342D01*
X60809523Y-38364342D02*
X60809523Y-37554819D01*
X61190476Y-37554819D02*
X61809523Y-37554819D01*
X61809523Y-37554819D02*
X61476190Y-37935771D01*
X61476190Y-37935771D02*
X61619047Y-37935771D01*
X61619047Y-37935771D02*
X61714285Y-37983390D01*
X61714285Y-37983390D02*
X61761904Y-38031009D01*
X61761904Y-38031009D02*
X61809523Y-38126247D01*
X61809523Y-38126247D02*
X61809523Y-38364342D01*
X61809523Y-38364342D02*
X61761904Y-38459580D01*
X61761904Y-38459580D02*
X61714285Y-38507200D01*
X61714285Y-38507200D02*
X61619047Y-38554819D01*
X61619047Y-38554819D02*
X61333333Y-38554819D01*
X61333333Y-38554819D02*
X61238095Y-38507200D01*
X61238095Y-38507200D02*
X61190476Y-38459580D01*
X45875595Y-55504819D02*
X45875595Y-56314342D01*
X45875595Y-56314342D02*
X45923214Y-56409580D01*
X45923214Y-56409580D02*
X45970833Y-56457200D01*
X45970833Y-56457200D02*
X46066071Y-56504819D01*
X46066071Y-56504819D02*
X46256547Y-56504819D01*
X46256547Y-56504819D02*
X46351785Y-56457200D01*
X46351785Y-56457200D02*
X46399404Y-56409580D01*
X46399404Y-56409580D02*
X46447023Y-56314342D01*
X46447023Y-56314342D02*
X46447023Y-55504819D01*
X46875595Y-55600057D02*
X46923214Y-55552438D01*
X46923214Y-55552438D02*
X47018452Y-55504819D01*
X47018452Y-55504819D02*
X47256547Y-55504819D01*
X47256547Y-55504819D02*
X47351785Y-55552438D01*
X47351785Y-55552438D02*
X47399404Y-55600057D01*
X47399404Y-55600057D02*
X47447023Y-55695295D01*
X47447023Y-55695295D02*
X47447023Y-55790533D01*
X47447023Y-55790533D02*
X47399404Y-55933390D01*
X47399404Y-55933390D02*
X46827976Y-56504819D01*
X46827976Y-56504819D02*
X47447023Y-56504819D01*
X57583333Y-56609580D02*
X57535714Y-56657200D01*
X57535714Y-56657200D02*
X57392857Y-56704819D01*
X57392857Y-56704819D02*
X57297619Y-56704819D01*
X57297619Y-56704819D02*
X57154762Y-56657200D01*
X57154762Y-56657200D02*
X57059524Y-56561961D01*
X57059524Y-56561961D02*
X57011905Y-56466723D01*
X57011905Y-56466723D02*
X56964286Y-56276247D01*
X56964286Y-56276247D02*
X56964286Y-56133390D01*
X56964286Y-56133390D02*
X57011905Y-55942914D01*
X57011905Y-55942914D02*
X57059524Y-55847676D01*
X57059524Y-55847676D02*
X57154762Y-55752438D01*
X57154762Y-55752438D02*
X57297619Y-55704819D01*
X57297619Y-55704819D02*
X57392857Y-55704819D01*
X57392857Y-55704819D02*
X57535714Y-55752438D01*
X57535714Y-55752438D02*
X57583333Y-55800057D01*
X57916667Y-55704819D02*
X58535714Y-55704819D01*
X58535714Y-55704819D02*
X58202381Y-56085771D01*
X58202381Y-56085771D02*
X58345238Y-56085771D01*
X58345238Y-56085771D02*
X58440476Y-56133390D01*
X58440476Y-56133390D02*
X58488095Y-56181009D01*
X58488095Y-56181009D02*
X58535714Y-56276247D01*
X58535714Y-56276247D02*
X58535714Y-56514342D01*
X58535714Y-56514342D02*
X58488095Y-56609580D01*
X58488095Y-56609580D02*
X58440476Y-56657200D01*
X58440476Y-56657200D02*
X58345238Y-56704819D01*
X58345238Y-56704819D02*
X58059524Y-56704819D01*
X58059524Y-56704819D02*
X57964286Y-56657200D01*
X57964286Y-56657200D02*
X57916667Y-56609580D01*
X62659580Y-36416666D02*
X62707200Y-36464285D01*
X62707200Y-36464285D02*
X62754819Y-36607142D01*
X62754819Y-36607142D02*
X62754819Y-36702380D01*
X62754819Y-36702380D02*
X62707200Y-36845237D01*
X62707200Y-36845237D02*
X62611961Y-36940475D01*
X62611961Y-36940475D02*
X62516723Y-36988094D01*
X62516723Y-36988094D02*
X62326247Y-37035713D01*
X62326247Y-37035713D02*
X62183390Y-37035713D01*
X62183390Y-37035713D02*
X61992914Y-36988094D01*
X61992914Y-36988094D02*
X61897676Y-36940475D01*
X61897676Y-36940475D02*
X61802438Y-36845237D01*
X61802438Y-36845237D02*
X61754819Y-36702380D01*
X61754819Y-36702380D02*
X61754819Y-36607142D01*
X61754819Y-36607142D02*
X61802438Y-36464285D01*
X61802438Y-36464285D02*
X61850057Y-36416666D01*
X61754819Y-36083332D02*
X61754819Y-35416666D01*
X61754819Y-35416666D02*
X62754819Y-35845237D01*
X49704819Y-50641666D02*
X49228628Y-50974999D01*
X49704819Y-51213094D02*
X48704819Y-51213094D01*
X48704819Y-51213094D02*
X48704819Y-50832142D01*
X48704819Y-50832142D02*
X48752438Y-50736904D01*
X48752438Y-50736904D02*
X48800057Y-50689285D01*
X48800057Y-50689285D02*
X48895295Y-50641666D01*
X48895295Y-50641666D02*
X49038152Y-50641666D01*
X49038152Y-50641666D02*
X49133390Y-50689285D01*
X49133390Y-50689285D02*
X49181009Y-50736904D01*
X49181009Y-50736904D02*
X49228628Y-50832142D01*
X49228628Y-50832142D02*
X49228628Y-51213094D01*
X49038152Y-49784523D02*
X49704819Y-49784523D01*
X48657200Y-50022618D02*
X49371485Y-50260713D01*
X49371485Y-50260713D02*
X49371485Y-49641666D01*
D13*
%TO.C,C1*%
X47480199Y-26055000D02*
X47880199Y-26055000D01*
X47680199Y-25855000D02*
X47680199Y-26255000D01*
X49750000Y-25170000D02*
X49750000Y-29330000D01*
X49790000Y-25170000D02*
X49790000Y-29330000D01*
X49830000Y-25172000D02*
X49830000Y-29328000D01*
X49870000Y-25173000D02*
X49870000Y-29327000D01*
X49910000Y-25176000D02*
X49910000Y-29324000D01*
X49950000Y-25179000D02*
X49950000Y-26410000D01*
X49950000Y-28090000D02*
X49950000Y-29321000D01*
X49990000Y-25184000D02*
X49990000Y-26410000D01*
X49990000Y-28090000D02*
X49990000Y-29316000D01*
X50030000Y-25189000D02*
X50030000Y-26410000D01*
X50030000Y-28090000D02*
X50030000Y-29311000D01*
X50070000Y-25194000D02*
X50070000Y-26410000D01*
X50070000Y-28090000D02*
X50070000Y-29306000D01*
X50110000Y-25201000D02*
X50110000Y-26410000D01*
X50110000Y-28090000D02*
X50110000Y-29299000D01*
X50150000Y-25208000D02*
X50150000Y-26410000D01*
X50150000Y-28090000D02*
X50150000Y-29292000D01*
X50190000Y-25216000D02*
X50190000Y-26410000D01*
X50190000Y-28090000D02*
X50190000Y-29284000D01*
X50230000Y-25225000D02*
X50230000Y-26410000D01*
X50230000Y-28090000D02*
X50230000Y-29275000D01*
X50270000Y-25235000D02*
X50270000Y-26410000D01*
X50270000Y-28090000D02*
X50270000Y-29265000D01*
X50310000Y-25245000D02*
X50310000Y-26410000D01*
X50310000Y-28090000D02*
X50310000Y-29255000D01*
X50350000Y-25257000D02*
X50350000Y-26410000D01*
X50350000Y-28090000D02*
X50350000Y-29243000D01*
X50390000Y-25269000D02*
X50390000Y-26410000D01*
X50390000Y-28090000D02*
X50390000Y-29231000D01*
X50430000Y-25282000D02*
X50430000Y-26410000D01*
X50430000Y-28090000D02*
X50430000Y-29218000D01*
X50470000Y-25296000D02*
X50470000Y-26410000D01*
X50470000Y-28090000D02*
X50470000Y-29204000D01*
X50510000Y-25311000D02*
X50510000Y-26410000D01*
X50510000Y-28090000D02*
X50510000Y-29189000D01*
X50550000Y-25327000D02*
X50550000Y-26410000D01*
X50550000Y-28090000D02*
X50550000Y-29173000D01*
X50590000Y-25344000D02*
X50590000Y-26410000D01*
X50590000Y-28090000D02*
X50590000Y-29156000D01*
X50630000Y-25361000D02*
X50630000Y-26410000D01*
X50630000Y-28090000D02*
X50630000Y-29139000D01*
X50670000Y-25380000D02*
X50670000Y-26410000D01*
X50670000Y-28090000D02*
X50670000Y-29120000D01*
X50710000Y-25400000D02*
X50710000Y-26410000D01*
X50710000Y-28090000D02*
X50710000Y-29100000D01*
X50750000Y-25421000D02*
X50750000Y-26410000D01*
X50750000Y-28090000D02*
X50750000Y-29079000D01*
X50790000Y-25443000D02*
X50790000Y-26410000D01*
X50790000Y-28090000D02*
X50790000Y-29057000D01*
X50830000Y-25466000D02*
X50830000Y-26410000D01*
X50830000Y-28090000D02*
X50830000Y-29034000D01*
X50870000Y-25490000D02*
X50870000Y-26410000D01*
X50870000Y-28090000D02*
X50870000Y-29010000D01*
X50910000Y-25516000D02*
X50910000Y-26410000D01*
X50910000Y-28090000D02*
X50910000Y-28984000D01*
X50950000Y-25542000D02*
X50950000Y-26410000D01*
X50950000Y-28090000D02*
X50950000Y-28958000D01*
X50990000Y-25570000D02*
X50990000Y-26410000D01*
X50990000Y-28090000D02*
X50990000Y-28930000D01*
X51030000Y-25600000D02*
X51030000Y-26410000D01*
X51030000Y-28090000D02*
X51030000Y-28900000D01*
X51070000Y-25631000D02*
X51070000Y-26410000D01*
X51070000Y-28090000D02*
X51070000Y-28869000D01*
X51110000Y-25664000D02*
X51110000Y-26410000D01*
X51110000Y-28090000D02*
X51110000Y-28836000D01*
X51150000Y-25698000D02*
X51150000Y-26410000D01*
X51150000Y-28090000D02*
X51150000Y-28802000D01*
X51190000Y-25734000D02*
X51190000Y-26410000D01*
X51190000Y-28090000D02*
X51190000Y-28766000D01*
X51230000Y-25772000D02*
X51230000Y-26410000D01*
X51230000Y-28090000D02*
X51230000Y-28728000D01*
X51270000Y-25812000D02*
X51270000Y-26410000D01*
X51270000Y-28090000D02*
X51270000Y-28688000D01*
X51310000Y-25854000D02*
X51310000Y-26410000D01*
X51310000Y-28090000D02*
X51310000Y-28646000D01*
X51350000Y-25899000D02*
X51350000Y-26410000D01*
X51350000Y-28090000D02*
X51350000Y-28601000D01*
X51390000Y-25947000D02*
X51390000Y-26410000D01*
X51390000Y-28090000D02*
X51390000Y-28553000D01*
X51430000Y-25997000D02*
X51430000Y-26410000D01*
X51430000Y-28090000D02*
X51430000Y-28503000D01*
X51470000Y-26051000D02*
X51470000Y-26410000D01*
X51470000Y-28090000D02*
X51470000Y-28449000D01*
X51510000Y-26108000D02*
X51510000Y-26410000D01*
X51510000Y-28090000D02*
X51510000Y-28392000D01*
X51550000Y-26170000D02*
X51550000Y-26410000D01*
X51550000Y-28090000D02*
X51550000Y-28330000D01*
X51590000Y-26237000D02*
X51590000Y-28263000D01*
X51630000Y-26310000D02*
X51630000Y-28190000D01*
X51670000Y-26391000D02*
X51670000Y-28109000D01*
X51710000Y-26482000D02*
X51710000Y-28018000D01*
X51750000Y-26587000D02*
X51750000Y-27913000D01*
X51790000Y-26713000D02*
X51790000Y-27787000D01*
X51830000Y-26880000D02*
X51830000Y-27620000D01*
X51870000Y-27250000D02*
G75*
G02*
X47630000Y-27250000I-2120000J0D01*
G01*
X47630000Y-27250000D02*
G75*
G02*
X51870000Y-27250000I2120000J0D01*
G01*
%TO.C,C4*%
X49877500Y-53865580D02*
X49877500Y-53584420D01*
X50897500Y-53865580D02*
X50897500Y-53584420D01*
%TO.C,C8*%
X65240000Y-37115580D02*
X65240000Y-36834420D01*
X66260000Y-37115580D02*
X66260000Y-36834420D01*
%TO.C,C5*%
X55490000Y-37140580D02*
X55490000Y-36859420D01*
X56510000Y-37140580D02*
X56510000Y-36859420D01*
%TO.C,R1*%
X65227500Y-42262742D02*
X65227500Y-42737258D01*
X66272500Y-42262742D02*
X66272500Y-42737258D01*
D10*
%TO.C,J3*%
X67500000Y-36750000D02*
X67500000Y-45750000D01*
X67500000Y-56750000D02*
X67500000Y-47750000D01*
X76100000Y-53650000D02*
X76600000Y-53650000D01*
X76600000Y-52650000D02*
X76100000Y-52650000D01*
X76600000Y-53650000D02*
X76600000Y-52650000D01*
X85500000Y-36750000D02*
X67500000Y-36750000D01*
X85500000Y-56750000D02*
X67500000Y-56750000D01*
X85500000Y-56750000D02*
X85500000Y-36750000D01*
X67500000Y-47750000D02*
G75*
G02*
X67500000Y-45750000I999999J1000000D01*
G01*
X77500000Y-52050000D02*
G75*
G02*
X76900000Y-52050000I-300000J0D01*
G01*
X76900000Y-52050000D02*
G75*
G02*
X77500000Y-52050000I300000J0D01*
G01*
X77500000Y-54250000D02*
G75*
G02*
X76900000Y-54250000I-300000J0D01*
G01*
X76900000Y-54250000D02*
G75*
G02*
X77500000Y-54250000I300000J0D01*
G01*
X80000000Y-53150000D02*
G75*
G02*
X76000000Y-53150000I-2000000J0D01*
G01*
X76000000Y-53150000D02*
G75*
G02*
X80000000Y-53150000I2000000J0D01*
G01*
X78300000Y-53150000D02*
G75*
G02*
X77700000Y-53150000I-300000J0D01*
G01*
X77700000Y-53150000D02*
G75*
G02*
X78300000Y-53150000I300000J0D01*
G01*
X78800000Y-51950000D02*
G75*
G02*
X78200000Y-51950000I-300000J0D01*
G01*
X78200000Y-51950000D02*
G75*
G02*
X78800000Y-51950000I300000J0D01*
G01*
X78800000Y-54350000D02*
G75*
G02*
X78200000Y-54350000I-300000J0D01*
G01*
X78200000Y-54350000D02*
G75*
G02*
X78800000Y-54350000I300000J0D01*
G01*
X79600000Y-53150000D02*
G75*
G02*
X79000000Y-53150000I-300000J0D01*
G01*
X79000000Y-53150000D02*
G75*
G02*
X79600000Y-53150000I300000J0D01*
G01*
D13*
%TO.C,U1*%
X53340000Y-51990000D02*
X55160000Y-51990000D01*
X53340000Y-52040000D02*
X53340000Y-51990000D01*
X53340000Y-53940000D02*
X53340000Y-53160000D01*
X53340000Y-55110000D02*
X53340000Y-55060000D01*
X55160000Y-51990000D02*
X55160000Y-52040000D01*
X55160000Y-55060000D02*
X55160000Y-55110000D01*
X55160000Y-55110000D02*
X53340000Y-55110000D01*
X55940000Y-55390000D02*
X55460000Y-55390000D01*
X55700000Y-55060000D01*
X55940000Y-55390000D01*
G36*
X55940000Y-55390000D02*
G01*
X55460000Y-55390000D01*
X55700000Y-55060000D01*
X55940000Y-55390000D01*
G37*
%TO.C,J2*%
X70900000Y-34957500D02*
X70900000Y-36007500D01*
X71100000Y-26607500D02*
X73000000Y-26607500D01*
X71100000Y-29307500D02*
X71100000Y-26607500D01*
X71100000Y-35807500D02*
X71100000Y-33207500D01*
X71950000Y-36007500D02*
X70900000Y-36007500D01*
X77000000Y-26607500D02*
X85800000Y-26607500D01*
X85800000Y-26607500D02*
X85800000Y-35807500D01*
X85800000Y-35807500D02*
X71100000Y-35807500D01*
%TO.C,C6*%
X57490000Y-37140580D02*
X57490000Y-36859420D01*
X58510000Y-37140580D02*
X58510000Y-36859420D01*
%TO.C,R3*%
X54487258Y-49952500D02*
X54012742Y-49952500D01*
X54487258Y-50997500D02*
X54012742Y-50997500D01*
%TO.C,R2*%
X64512742Y-44727500D02*
X64987258Y-44727500D01*
X64512742Y-45772500D02*
X64987258Y-45772500D01*
%TO.C,C2*%
X63920000Y-27620000D02*
X63920000Y-26880000D01*
X63960000Y-27787000D02*
X63960000Y-26713000D01*
X64000000Y-27913000D02*
X64000000Y-26587000D01*
X64040000Y-28018000D02*
X64040000Y-26482000D01*
X64080000Y-28109000D02*
X64080000Y-26391000D01*
X64120000Y-28190000D02*
X64120000Y-26310000D01*
X64160000Y-28263000D02*
X64160000Y-26237000D01*
X64200000Y-26410000D02*
X64200000Y-26170000D01*
X64200000Y-28330000D02*
X64200000Y-28090000D01*
X64240000Y-26410000D02*
X64240000Y-26108000D01*
X64240000Y-28392000D02*
X64240000Y-28090000D01*
X64280000Y-26410000D02*
X64280000Y-26051000D01*
X64280000Y-28449000D02*
X64280000Y-28090000D01*
X64320000Y-26410000D02*
X64320000Y-25997000D01*
X64320000Y-28503000D02*
X64320000Y-28090000D01*
X64360000Y-26410000D02*
X64360000Y-25947000D01*
X64360000Y-28553000D02*
X64360000Y-28090000D01*
X64400000Y-26410000D02*
X64400000Y-25899000D01*
X64400000Y-28601000D02*
X64400000Y-28090000D01*
X64440000Y-26410000D02*
X64440000Y-25854000D01*
X64440000Y-28646000D02*
X64440000Y-28090000D01*
X64480000Y-26410000D02*
X64480000Y-25812000D01*
X64480000Y-28688000D02*
X64480000Y-28090000D01*
X64520000Y-26410000D02*
X64520000Y-25772000D01*
X64520000Y-28728000D02*
X64520000Y-28090000D01*
X64560000Y-26410000D02*
X64560000Y-25734000D01*
X64560000Y-28766000D02*
X64560000Y-28090000D01*
X64600000Y-26410000D02*
X64600000Y-25698000D01*
X64600000Y-28802000D02*
X64600000Y-28090000D01*
X64640000Y-26410000D02*
X64640000Y-25664000D01*
X64640000Y-28836000D02*
X64640000Y-28090000D01*
X64680000Y-26410000D02*
X64680000Y-25631000D01*
X64680000Y-28869000D02*
X64680000Y-28090000D01*
X64720000Y-26410000D02*
X64720000Y-25600000D01*
X64720000Y-28900000D02*
X64720000Y-28090000D01*
X64760000Y-26410000D02*
X64760000Y-25570000D01*
X64760000Y-28930000D02*
X64760000Y-28090000D01*
X64800000Y-26410000D02*
X64800000Y-25542000D01*
X64800000Y-28958000D02*
X64800000Y-28090000D01*
X64840000Y-26410000D02*
X64840000Y-25516000D01*
X64840000Y-28984000D02*
X64840000Y-28090000D01*
X64880000Y-26410000D02*
X64880000Y-25490000D01*
X64880000Y-29010000D02*
X64880000Y-28090000D01*
X64920000Y-26410000D02*
X64920000Y-25466000D01*
X64920000Y-29034000D02*
X64920000Y-28090000D01*
X64960000Y-26410000D02*
X64960000Y-25443000D01*
X64960000Y-29057000D02*
X64960000Y-28090000D01*
X65000000Y-26410000D02*
X65000000Y-25421000D01*
X65000000Y-29079000D02*
X65000000Y-28090000D01*
X65040000Y-26410000D02*
X65040000Y-25400000D01*
X65040000Y-29100000D02*
X65040000Y-28090000D01*
X65080000Y-26410000D02*
X65080000Y-25380000D01*
X65080000Y-29120000D02*
X65080000Y-28090000D01*
X65120000Y-26410000D02*
X65120000Y-25361000D01*
X65120000Y-29139000D02*
X65120000Y-28090000D01*
X65160000Y-26410000D02*
X65160000Y-25344000D01*
X65160000Y-29156000D02*
X65160000Y-28090000D01*
X65200000Y-26410000D02*
X65200000Y-25327000D01*
X65200000Y-29173000D02*
X65200000Y-28090000D01*
X65240000Y-26410000D02*
X65240000Y-25311000D01*
X65240000Y-29189000D02*
X65240000Y-28090000D01*
X65280000Y-26410000D02*
X65280000Y-25296000D01*
X65280000Y-29204000D02*
X65280000Y-28090000D01*
X65320000Y-26410000D02*
X65320000Y-25282000D01*
X65320000Y-29218000D02*
X65320000Y-28090000D01*
X65360000Y-26410000D02*
X65360000Y-25269000D01*
X65360000Y-29231000D02*
X65360000Y-28090000D01*
X65400000Y-26410000D02*
X65400000Y-25257000D01*
X65400000Y-29243000D02*
X65400000Y-28090000D01*
X65440000Y-26410000D02*
X65440000Y-25245000D01*
X65440000Y-29255000D02*
X65440000Y-28090000D01*
X65480000Y-26410000D02*
X65480000Y-25235000D01*
X65480000Y-29265000D02*
X65480000Y-28090000D01*
X65520000Y-26410000D02*
X65520000Y-25225000D01*
X65520000Y-29275000D02*
X65520000Y-28090000D01*
X65560000Y-26410000D02*
X65560000Y-25216000D01*
X65560000Y-29284000D02*
X65560000Y-28090000D01*
X65600000Y-26410000D02*
X65600000Y-25208000D01*
X65600000Y-29292000D02*
X65600000Y-28090000D01*
X65640000Y-26410000D02*
X65640000Y-25201000D01*
X65640000Y-29299000D02*
X65640000Y-28090000D01*
X65680000Y-26410000D02*
X65680000Y-25194000D01*
X65680000Y-29306000D02*
X65680000Y-28090000D01*
X65720000Y-26410000D02*
X65720000Y-25189000D01*
X65720000Y-29311000D02*
X65720000Y-28090000D01*
X65760000Y-26410000D02*
X65760000Y-25184000D01*
X65760000Y-29316000D02*
X65760000Y-28090000D01*
X65800000Y-26410000D02*
X65800000Y-25179000D01*
X65800000Y-29321000D02*
X65800000Y-28090000D01*
X65840000Y-29324000D02*
X65840000Y-25176000D01*
X65880000Y-29327000D02*
X65880000Y-25173000D01*
X65920000Y-29328000D02*
X65920000Y-25172000D01*
X65960000Y-29330000D02*
X65960000Y-25170000D01*
X66000000Y-29330000D02*
X66000000Y-25170000D01*
X68069801Y-28645000D02*
X68069801Y-28245000D01*
X68269801Y-28445000D02*
X67869801Y-28445000D01*
X68120000Y-27250000D02*
G75*
G02*
X63880000Y-27250000I-2120000J0D01*
G01*
X63880000Y-27250000D02*
G75*
G02*
X68120000Y-27250000I2120000J0D01*
G01*
%TO.C,J1*%
X44030000Y-36000000D02*
X44030000Y-37000000D01*
X44030000Y-37000000D02*
X45030000Y-36500000D01*
X45030000Y-36500000D02*
X44030000Y-36000000D01*
X45420000Y-31290000D02*
X54540000Y-31290000D01*
X45420000Y-36990000D02*
X46730000Y-36990000D01*
X45420000Y-46790000D02*
X45420000Y-31290000D01*
X46730000Y-32590000D02*
X53230000Y-32590000D01*
X46730000Y-36990000D02*
X46730000Y-32590000D01*
X46730000Y-41090000D02*
X45420000Y-41090000D01*
X46730000Y-45490000D02*
X46730000Y-41090000D01*
X53230000Y-32590000D02*
X53230000Y-45490000D01*
X53230000Y-45490000D02*
X46730000Y-45490000D01*
X54540000Y-31290000D02*
X54540000Y-46790000D01*
X54540000Y-46790000D02*
X45420000Y-46790000D01*
%TO.C,U3*%
X58940000Y-38940000D02*
X63060000Y-38940000D01*
X58940000Y-39035000D02*
X58940000Y-38940000D01*
X58940000Y-44060000D02*
X58940000Y-43965000D01*
X63060000Y-38940000D02*
X63060000Y-39035000D01*
X63060000Y-43965000D02*
X63060000Y-44060000D01*
X63060000Y-44060000D02*
X58940000Y-44060000D01*
X58400000Y-39030000D02*
X58160000Y-38700000D01*
X58640000Y-38700000D01*
X58400000Y-39030000D01*
G36*
X58400000Y-39030000D02*
G01*
X58160000Y-38700000D01*
X58640000Y-38700000D01*
X58400000Y-39030000D01*
G37*
%TO.C,U2*%
X45977500Y-51990000D02*
X47797500Y-51990000D01*
X45977500Y-52040000D02*
X45977500Y-51990000D01*
X45977500Y-53940000D02*
X45977500Y-53160000D01*
X45977500Y-55110000D02*
X45977500Y-55060000D01*
X47797500Y-51990000D02*
X47797500Y-52040000D01*
X47797500Y-55060000D02*
X47797500Y-55110000D01*
X47797500Y-55110000D02*
X45977500Y-55110000D01*
X48577500Y-55390000D02*
X48097500Y-55390000D01*
X48337500Y-55060000D01*
X48577500Y-55390000D01*
G36*
X48577500Y-55390000D02*
G01*
X48097500Y-55390000D01*
X48337500Y-55060000D01*
X48577500Y-55390000D01*
G37*
%TO.C,C3*%
X57240000Y-53865580D02*
X57240000Y-53584420D01*
X58260000Y-53865580D02*
X58260000Y-53584420D01*
%TO.C,C7*%
X63240000Y-37115580D02*
X63240000Y-36834420D01*
X64260000Y-37115580D02*
X64260000Y-36834420D01*
%TO.C,R4*%
X47124758Y-49952500D02*
X46650242Y-49952500D01*
X47124758Y-50997500D02*
X46650242Y-50997500D01*
%TD*%
M02*
