%TF.GenerationSoftware,KiCad,Pcbnew,9.0.6*%
%TF.CreationDate,2025-11-23T17:05:16+00:00*%
%TF.ProjectId,sr-crt,73722d63-7274-42e6-9b69-6361645f7063,rev?*%
%TF.SameCoordinates,Original*%
%TF.FileFunction,Copper,L2,Inr*%
%TF.FilePolarity,Positive*%
%FSLAX46Y46*%
G04 Gerber Fmt 4.6, Leading zero omitted, Abs format (unit mm)*
G04 Created by KiCad (PCBNEW 9.0.6) date 2025-11-23 17:05:16*
%MOMM*%
%LPD*%
G01*
G04 APERTURE LIST*
G04 Aperture macros list*
%AMRoundRect*
0 Rectangle with rounded corners*
0 $1 Rounding radius*
0 $2 $3 $4 $5 $6 $7 $8 $9 X,Y pos of 4 corners*
0 Add a 4 corners polygon primitive as box body*
4,1,4,$2,$3,$4,$5,$6,$7,$8,$9,$2,$3,0*
0 Add four circle primitives for the rounded corners*
1,1,$1+$1,$2,$3*
1,1,$1+$1,$4,$5*
1,1,$1+$1,$6,$7*
1,1,$1+$1,$8,$9*
0 Add four rect primitives between the rounded corners*
20,1,$1+$1,$2,$3,$4,$5,0*
20,1,$1+$1,$4,$5,$6,$7,0*
20,1,$1+$1,$6,$7,$8,$9,0*
20,1,$1+$1,$8,$9,$2,$3,0*%
G04 Aperture macros list end*
%TA.AperFunction,ComponentPad*%
%ADD10RoundRect,0.250000X-0.350000X-0.350000X0.350000X-0.350000X0.350000X0.350000X-0.350000X0.350000X0*%
%TD*%
%TA.AperFunction,ComponentPad*%
%ADD11C,1.200000*%
%TD*%
%TA.AperFunction,ComponentPad*%
%ADD12C,2.540000*%
%TD*%
%TA.AperFunction,ComponentPad*%
%ADD13C,2.600000*%
%TD*%
%TA.AperFunction,ComponentPad*%
%ADD14R,3.500000X3.500000*%
%TD*%
%TA.AperFunction,ComponentPad*%
%ADD15RoundRect,0.750000X0.750000X1.000000X-0.750000X1.000000X-0.750000X-1.000000X0.750000X-1.000000X0*%
%TD*%
%TA.AperFunction,ComponentPad*%
%ADD16RoundRect,0.875000X0.875000X0.875000X-0.875000X0.875000X-0.875000X-0.875000X0.875000X-0.875000X0*%
%TD*%
%TA.AperFunction,ComponentPad*%
%ADD17RoundRect,0.250000X0.350000X0.350000X-0.350000X0.350000X-0.350000X-0.350000X0.350000X-0.350000X0*%
%TD*%
%TA.AperFunction,ComponentPad*%
%ADD18RoundRect,0.250000X-0.600000X-0.600000X0.600000X-0.600000X0.600000X0.600000X-0.600000X0.600000X0*%
%TD*%
%TA.AperFunction,ComponentPad*%
%ADD19C,1.700000*%
%TD*%
%TA.AperFunction,ViaPad*%
%ADD20C,0.600000*%
%TD*%
G04 APERTURE END LIST*
D10*
%TO.N,GND3_3*%
%TO.C,C1*%
X48750000Y-27250000D03*
D11*
%TO.N,VDD3_3*%
X50750000Y-27250000D03*
%TD*%
D12*
%TO.N,unconnected-(J3-Pad1)*%
%TO.C,J3*%
X74000000Y-54250000D03*
%TO.N,unconnected-(J3-Pad2)*%
X71000000Y-51750000D03*
%TO.N,unconnected-(J3-Pad3)*%
X68500000Y-46750000D03*
%TO.N,Net-(J3-Pad4)*%
X71000000Y-41750000D03*
%TO.N,GND5*%
X74000000Y-39250000D03*
%TO.N,Net-(J3-Pad6)*%
X73500000Y-46750000D03*
%TO.N,GND5*%
X83500000Y-51750000D03*
X83500000Y-41750000D03*
%TD*%
D13*
%TO.N,N/C*%
%TO.C,H2*%
X63750000Y-53750000D03*
%TD*%
D14*
%TO.N,VDD5*%
%TO.C,J2*%
X72000000Y-31207500D03*
D15*
%TO.N,GND5*%
X78000000Y-31207500D03*
D16*
X75000000Y-26507500D03*
%TD*%
D17*
%TO.N,GND5*%
%TO.C,C2*%
X67000000Y-27250000D03*
D11*
%TO.N,VDD5*%
X65000000Y-27250000D03*
%TD*%
D18*
%TO.N,GND3_3*%
%TO.C,J1*%
X48710000Y-36500000D03*
D19*
%TO.N,/SYNC+*%
X51250000Y-36500000D03*
%TO.N,/SYNC-*%
X48710000Y-39040000D03*
%TO.N,/PIXEL+*%
X51250000Y-39040000D03*
%TO.N,/PIXEL-*%
X48710000Y-41580000D03*
%TO.N,VDD3_3*%
X51250000Y-41580000D03*
%TD*%
D13*
%TO.N,N/C*%
%TO.C,H1*%
X56500000Y-27500000D03*
%TD*%
D20*
%TO.N,GND3_3*%
X51650000Y-53550000D03*
X59500000Y-38350000D03*
X59750000Y-25250000D03*
%TO.N,GND5*%
X70950000Y-46200000D03*
X70250000Y-44050000D03*
X62450000Y-38450000D03*
X62500000Y-25250000D03*
X84500000Y-25650000D03*
X85100000Y-56350000D03*
X62450000Y-45800000D03*
X62500000Y-56400000D03*
%TO.N,GND3_3*%
X50500000Y-44500000D03*
X58500000Y-44500000D03*
X55375000Y-56675000D03*
X56650000Y-53550000D03*
X49250000Y-53500000D03*
X56000000Y-35000000D03*
X58000000Y-35000000D03*
X55750000Y-42750000D03*
%TO.N,VDD3_3*%
X56650000Y-54500000D03*
X49250000Y-54500000D03*
X57000000Y-39500000D03*
%TO.N,VDD5*%
X65125000Y-39125000D03*
%TO.N,GND5*%
X64550000Y-44000000D03*
X63750000Y-35000000D03*
X65750000Y-35000000D03*
%TD*%
%TA.AperFunction,Conductor*%
%TO.N,GND5*%
G36*
X72898812Y-24770185D02*
G01*
X72944567Y-24822989D01*
X72954511Y-24892147D01*
X72938719Y-24937259D01*
X72879878Y-25037527D01*
X72797237Y-25256512D01*
X72752794Y-25486308D01*
X72752794Y-25486309D01*
X72750001Y-25538882D01*
X72750000Y-25538921D01*
X72750000Y-26257500D01*
X73566988Y-26257500D01*
X73534075Y-26314507D01*
X73500000Y-26441674D01*
X73500000Y-26573326D01*
X73534075Y-26700493D01*
X73566988Y-26757500D01*
X72750001Y-26757500D01*
X72750001Y-27476088D01*
X72752794Y-27528691D01*
X72797237Y-27758487D01*
X72879879Y-27977475D01*
X72998339Y-28179341D01*
X72998344Y-28179348D01*
X73149211Y-28358286D01*
X73149213Y-28358288D01*
X73328151Y-28509155D01*
X73328158Y-28509160D01*
X73530024Y-28627620D01*
X73749012Y-28710262D01*
X73754150Y-28711256D01*
X73816232Y-28743312D01*
X73851127Y-28803844D01*
X73847758Y-28873632D01*
X73807193Y-28930520D01*
X73742311Y-28956446D01*
X73730604Y-28957000D01*
X70202129Y-28957000D01*
X70202123Y-28957001D01*
X70142516Y-28963408D01*
X70007671Y-29013702D01*
X70007664Y-29013706D01*
X69892455Y-29099952D01*
X69892452Y-29099955D01*
X69806206Y-29215164D01*
X69806202Y-29215171D01*
X69755908Y-29350017D01*
X69749501Y-29409616D01*
X69749501Y-29409623D01*
X69749500Y-29409635D01*
X69749500Y-33005370D01*
X69749501Y-33005376D01*
X69755908Y-33064983D01*
X69806202Y-33199828D01*
X69806206Y-33199835D01*
X69892452Y-33315044D01*
X69892455Y-33315047D01*
X70007664Y-33401293D01*
X70007671Y-33401297D01*
X70142517Y-33451591D01*
X70142516Y-33451591D01*
X70149444Y-33452335D01*
X70202127Y-33458000D01*
X73797872Y-33457999D01*
X73857483Y-33451591D01*
X73992331Y-33401296D01*
X74107546Y-33315046D01*
X74193796Y-33199831D01*
X74244091Y-33064983D01*
X74250500Y-33005373D01*
X74250499Y-30143303D01*
X76000000Y-30143303D01*
X76000000Y-30957500D01*
X77500000Y-30957500D01*
X77500000Y-31457500D01*
X76000001Y-31457500D01*
X76000001Y-32271697D01*
X76010400Y-32403832D01*
X76065377Y-32622019D01*
X76158428Y-32826874D01*
X76158431Y-32826880D01*
X76286559Y-33011823D01*
X76286569Y-33011835D01*
X76445664Y-33170930D01*
X76445676Y-33170940D01*
X76630619Y-33299068D01*
X76630625Y-33299071D01*
X76835480Y-33392122D01*
X77053667Y-33447099D01*
X77185810Y-33457499D01*
X77749999Y-33457499D01*
X77750000Y-33457498D01*
X77750000Y-32640512D01*
X77807007Y-32673425D01*
X77934174Y-32707500D01*
X78065826Y-32707500D01*
X78192993Y-32673425D01*
X78250000Y-32640512D01*
X78250000Y-33457499D01*
X78814182Y-33457499D01*
X78814197Y-33457498D01*
X78946332Y-33447099D01*
X79164519Y-33392122D01*
X79369374Y-33299071D01*
X79369380Y-33299068D01*
X79554323Y-33170940D01*
X79554335Y-33170930D01*
X79713430Y-33011835D01*
X79713440Y-33011823D01*
X79841568Y-32826880D01*
X79841571Y-32826874D01*
X79934622Y-32622019D01*
X79989599Y-32403832D01*
X79999999Y-32271696D01*
X80000000Y-32271684D01*
X80000000Y-31457500D01*
X78500000Y-31457500D01*
X78500000Y-30957500D01*
X79999999Y-30957500D01*
X79999999Y-30143317D01*
X79999998Y-30143302D01*
X79989599Y-30011167D01*
X79934622Y-29792980D01*
X79841571Y-29588125D01*
X79841568Y-29588119D01*
X79713440Y-29403176D01*
X79713430Y-29403164D01*
X79554335Y-29244069D01*
X79554323Y-29244059D01*
X79369380Y-29115931D01*
X79369374Y-29115928D01*
X79164519Y-29022877D01*
X78946332Y-28967900D01*
X78814196Y-28957500D01*
X78250000Y-28957500D01*
X78250000Y-29774488D01*
X78192993Y-29741575D01*
X78065826Y-29707500D01*
X77934174Y-29707500D01*
X77807007Y-29741575D01*
X77750000Y-29774488D01*
X77750000Y-28957500D01*
X77185817Y-28957500D01*
X77185802Y-28957501D01*
X77053667Y-28967900D01*
X76835480Y-29022877D01*
X76630625Y-29115928D01*
X76630619Y-29115931D01*
X76445676Y-29244059D01*
X76445664Y-29244069D01*
X76286569Y-29403164D01*
X76286559Y-29403176D01*
X76158431Y-29588119D01*
X76158428Y-29588125D01*
X76065377Y-29792980D01*
X76010400Y-30011167D01*
X76000000Y-30143303D01*
X74250499Y-30143303D01*
X74250499Y-29409628D01*
X74244091Y-29350017D01*
X74204571Y-29244059D01*
X74193797Y-29215171D01*
X74193793Y-29215164D01*
X74107547Y-29099955D01*
X74107544Y-29099952D01*
X73992335Y-29013706D01*
X73992328Y-29013702D01*
X73943492Y-28995488D01*
X73887558Y-28953617D01*
X73863141Y-28888153D01*
X73877992Y-28819880D01*
X73927397Y-28770474D01*
X73993404Y-28755481D01*
X74031382Y-28757498D01*
X74031421Y-28757499D01*
X74749999Y-28757499D01*
X74750000Y-28757498D01*
X74750000Y-27007500D01*
X75250000Y-27007500D01*
X75250000Y-28757499D01*
X75968576Y-28757499D01*
X75968588Y-28757498D01*
X76021191Y-28754705D01*
X76250987Y-28710262D01*
X76469975Y-28627620D01*
X76671841Y-28509160D01*
X76671848Y-28509155D01*
X76850786Y-28358288D01*
X76850788Y-28358286D01*
X77001655Y-28179348D01*
X77001660Y-28179341D01*
X77120120Y-27977475D01*
X77202762Y-27758487D01*
X77247205Y-27528691D01*
X77247205Y-27528690D01*
X77249998Y-27476117D01*
X77250000Y-27476078D01*
X77250000Y-26757500D01*
X76433012Y-26757500D01*
X76465925Y-26700493D01*
X76500000Y-26573326D01*
X76500000Y-26441674D01*
X76465925Y-26314507D01*
X76433012Y-26257500D01*
X77249999Y-26257500D01*
X77249999Y-25538923D01*
X77249998Y-25538911D01*
X77247205Y-25486308D01*
X77202762Y-25256512D01*
X77120121Y-25037527D01*
X77061281Y-24937259D01*
X77044329Y-24869477D01*
X77066713Y-24803290D01*
X77121327Y-24759711D01*
X77168227Y-24750500D01*
X83742185Y-24750500D01*
X83751092Y-24750820D01*
X83999306Y-24768695D01*
X84015206Y-24770884D01*
X84255662Y-24820031D01*
X84271153Y-24824260D01*
X84450466Y-24885948D01*
X84503220Y-24904097D01*
X84518049Y-24910300D01*
X84737846Y-25019490D01*
X84751725Y-25027546D01*
X84955554Y-25164255D01*
X84968288Y-25174050D01*
X85152710Y-25335968D01*
X85164078Y-25347335D01*
X85326000Y-25531747D01*
X85335800Y-25544488D01*
X85472503Y-25748292D01*
X85480573Y-25762193D01*
X85589765Y-25981970D01*
X85595970Y-25996799D01*
X85657833Y-26176598D01*
X85675817Y-26228864D01*
X85680050Y-26244372D01*
X85729202Y-26484805D01*
X85731394Y-26500728D01*
X85749179Y-26747527D01*
X85749500Y-26756440D01*
X85749500Y-56875500D01*
X85729815Y-56942539D01*
X85677011Y-56988294D01*
X85625500Y-56999500D01*
X62124000Y-56999500D01*
X62056961Y-56979815D01*
X62011206Y-56927011D01*
X62000000Y-56875500D01*
X62000000Y-54782683D01*
X62019685Y-54715644D01*
X62072489Y-54669889D01*
X62141647Y-54659945D01*
X62205203Y-54688970D01*
X62231384Y-54720680D01*
X62249727Y-54752450D01*
X62249729Y-54752453D01*
X62249730Y-54752454D01*
X62393406Y-54939697D01*
X62393412Y-54939704D01*
X62560295Y-55106587D01*
X62560301Y-55106592D01*
X62747550Y-55250273D01*
X62878918Y-55326118D01*
X62951943Y-55368280D01*
X62951948Y-55368282D01*
X62951951Y-55368284D01*
X63170007Y-55458606D01*
X63397986Y-55519693D01*
X63631989Y-55550500D01*
X63631996Y-55550500D01*
X63868004Y-55550500D01*
X63868011Y-55550500D01*
X64102014Y-55519693D01*
X64329993Y-55458606D01*
X64548049Y-55368284D01*
X64752450Y-55250273D01*
X64939699Y-55106592D01*
X65106592Y-54939699D01*
X65250273Y-54752450D01*
X65368284Y-54548049D01*
X65458606Y-54329993D01*
X65511137Y-54133947D01*
X72229500Y-54133947D01*
X72229500Y-54366052D01*
X72259794Y-54596148D01*
X72319862Y-54820328D01*
X72408677Y-55034745D01*
X72408685Y-55034762D01*
X72524720Y-55235743D01*
X72524721Y-55235745D01*
X72666009Y-55419875D01*
X72666015Y-55419882D01*
X72830117Y-55583984D01*
X72830124Y-55583990D01*
X73014254Y-55725278D01*
X73014256Y-55725279D01*
X73215237Y-55841314D01*
X73215240Y-55841315D01*
X73215248Y-55841320D01*
X73429670Y-55930137D01*
X73653851Y-55990206D01*
X73883955Y-56020500D01*
X73883962Y-56020500D01*
X74116038Y-56020500D01*
X74116045Y-56020500D01*
X74346149Y-55990206D01*
X74570330Y-55930137D01*
X74784752Y-55841320D01*
X74985748Y-55725276D01*
X75169877Y-55583989D01*
X75333989Y-55419877D01*
X75475276Y-55235748D01*
X75591320Y-55034752D01*
X75680137Y-54820330D01*
X75740206Y-54596149D01*
X75770500Y-54366045D01*
X75770500Y-54133955D01*
X75740206Y-53903851D01*
X75680137Y-53679670D01*
X75591320Y-53465248D01*
X75571049Y-53430137D01*
X75475279Y-53264256D01*
X75475278Y-53264254D01*
X75420921Y-53193415D01*
X75333990Y-53080124D01*
X75333984Y-53080117D01*
X75169882Y-52916015D01*
X75169875Y-52916009D01*
X74985745Y-52774721D01*
X74985743Y-52774720D01*
X74784762Y-52658685D01*
X74784754Y-52658681D01*
X74784752Y-52658680D01*
X74570330Y-52569863D01*
X74570331Y-52569863D01*
X74570328Y-52569862D01*
X74428203Y-52531780D01*
X74346149Y-52509794D01*
X74317386Y-52506007D01*
X74116052Y-52479500D01*
X74116045Y-52479500D01*
X73883955Y-52479500D01*
X73883947Y-52479500D01*
X73653851Y-52509794D01*
X73429671Y-52569862D01*
X73215254Y-52658677D01*
X73215237Y-52658685D01*
X73014256Y-52774720D01*
X73014254Y-52774721D01*
X72830124Y-52916009D01*
X72830117Y-52916015D01*
X72666015Y-53080117D01*
X72666009Y-53080124D01*
X72524721Y-53264254D01*
X72524720Y-53264256D01*
X72408685Y-53465237D01*
X72408677Y-53465254D01*
X72319862Y-53679671D01*
X72259794Y-53903851D01*
X72229500Y-54133947D01*
X65511137Y-54133947D01*
X65519693Y-54102014D01*
X65550500Y-53868011D01*
X65550500Y-53631989D01*
X65519693Y-53397986D01*
X65458606Y-53170007D01*
X65368284Y-52951951D01*
X65368282Y-52951948D01*
X65368280Y-52951943D01*
X65304084Y-52840754D01*
X65250273Y-52747550D01*
X65113929Y-52569863D01*
X65106593Y-52560302D01*
X65106587Y-52560295D01*
X64939704Y-52393412D01*
X64939697Y-52393406D01*
X64752454Y-52249730D01*
X64752453Y-52249729D01*
X64752450Y-52249727D01*
X64670957Y-52202677D01*
X64548056Y-52131719D01*
X64548045Y-52131714D01*
X64329993Y-52041394D01*
X64102010Y-51980306D01*
X63868020Y-51949501D01*
X63868017Y-51949500D01*
X63868011Y-51949500D01*
X63631989Y-51949500D01*
X63631983Y-51949500D01*
X63631979Y-51949501D01*
X63397989Y-51980306D01*
X63170006Y-52041394D01*
X62951954Y-52131714D01*
X62951943Y-52131719D01*
X62747545Y-52249730D01*
X62560302Y-52393406D01*
X62560295Y-52393412D01*
X62393412Y-52560295D01*
X62393406Y-52560302D01*
X62249728Y-52747548D01*
X62231386Y-52779317D01*
X62180819Y-52827532D01*
X62112212Y-52840754D01*
X62047347Y-52814786D01*
X62006819Y-52757871D01*
X62000000Y-52717316D01*
X62000000Y-51633947D01*
X69229500Y-51633947D01*
X69229500Y-51866052D01*
X69259794Y-52096148D01*
X69319862Y-52320328D01*
X69408677Y-52534745D01*
X69408685Y-52534762D01*
X69524720Y-52735743D01*
X69524721Y-52735745D01*
X69666009Y-52919875D01*
X69666015Y-52919882D01*
X69830117Y-53083984D01*
X69830124Y-53083990D01*
X70014254Y-53225278D01*
X70014256Y-53225279D01*
X70215237Y-53341314D01*
X70215240Y-53341315D01*
X70215248Y-53341320D01*
X70429670Y-53430137D01*
X70653851Y-53490206D01*
X70883955Y-53520500D01*
X70883962Y-53520500D01*
X71116038Y-53520500D01*
X71116045Y-53520500D01*
X71346149Y-53490206D01*
X71570330Y-53430137D01*
X71784752Y-53341320D01*
X71985748Y-53225276D01*
X72169877Y-53083989D01*
X72333989Y-52919877D01*
X72475276Y-52735748D01*
X72591320Y-52534752D01*
X72680137Y-52320330D01*
X72740206Y-52096149D01*
X72770500Y-51866045D01*
X72770500Y-51633994D01*
X81730000Y-51633994D01*
X81730000Y-51866005D01*
X81730001Y-51866022D01*
X81760283Y-52096040D01*
X81760286Y-52096053D01*
X81820336Y-52320167D01*
X81909124Y-52534521D01*
X81909132Y-52534538D01*
X82025136Y-52735461D01*
X82025142Y-52735469D01*
X82084117Y-52812327D01*
X82918092Y-51978353D01*
X82946132Y-52046048D01*
X83014531Y-52148414D01*
X83101586Y-52235469D01*
X83203952Y-52303868D01*
X83271646Y-52331907D01*
X82437671Y-53165881D01*
X82514530Y-53224857D01*
X82514538Y-53224863D01*
X82715461Y-53340867D01*
X82715478Y-53340875D01*
X82929832Y-53429663D01*
X83153946Y-53489713D01*
X83153959Y-53489716D01*
X83383977Y-53519998D01*
X83383995Y-53520000D01*
X83616005Y-53520000D01*
X83616022Y-53519998D01*
X83846040Y-53489716D01*
X83846053Y-53489713D01*
X84070167Y-53429663D01*
X84284521Y-53340875D01*
X84284538Y-53340867D01*
X84485475Y-53224855D01*
X84562327Y-53165883D01*
X84562327Y-53165880D01*
X83728353Y-52331907D01*
X83796048Y-52303868D01*
X83898414Y-52235469D01*
X83985469Y-52148414D01*
X84053868Y-52046048D01*
X84081907Y-51978353D01*
X84915880Y-52812327D01*
X84915883Y-52812327D01*
X84974855Y-52735475D01*
X85090867Y-52534538D01*
X85090875Y-52534521D01*
X85179663Y-52320167D01*
X85239713Y-52096053D01*
X85239716Y-52096040D01*
X85269998Y-51866022D01*
X85270000Y-51866005D01*
X85270000Y-51633994D01*
X85269998Y-51633977D01*
X85239716Y-51403959D01*
X85239713Y-51403946D01*
X85179663Y-51179832D01*
X85090875Y-50965478D01*
X85090867Y-50965461D01*
X84974863Y-50764538D01*
X84974857Y-50764530D01*
X84915881Y-50687671D01*
X84081907Y-51521645D01*
X84053868Y-51453952D01*
X83985469Y-51351586D01*
X83898414Y-51264531D01*
X83796048Y-51196132D01*
X83728353Y-51168092D01*
X84562327Y-50334117D01*
X84485469Y-50275142D01*
X84485461Y-50275136D01*
X84284538Y-50159132D01*
X84284521Y-50159124D01*
X84070167Y-50070336D01*
X83846053Y-50010286D01*
X83846040Y-50010283D01*
X83616022Y-49980001D01*
X83616005Y-49980000D01*
X83383995Y-49980000D01*
X83383977Y-49980001D01*
X83153959Y-50010283D01*
X83153946Y-50010286D01*
X82929832Y-50070336D01*
X82715478Y-50159124D01*
X82715461Y-50159132D01*
X82514541Y-50275134D01*
X82514533Y-50275140D01*
X82437671Y-50334116D01*
X82437671Y-50334117D01*
X83271646Y-51168092D01*
X83203952Y-51196132D01*
X83101586Y-51264531D01*
X83014531Y-51351586D01*
X82946132Y-51453952D01*
X82918092Y-51521645D01*
X82084117Y-50687671D01*
X82084116Y-50687671D01*
X82025140Y-50764533D01*
X82025134Y-50764541D01*
X81909132Y-50965461D01*
X81909124Y-50965478D01*
X81820336Y-51179832D01*
X81760286Y-51403946D01*
X81760283Y-51403959D01*
X81730001Y-51633977D01*
X81730000Y-51633994D01*
X72770500Y-51633994D01*
X72770500Y-51633955D01*
X72740206Y-51403851D01*
X72680137Y-51179670D01*
X72591320Y-50965248D01*
X72591314Y-50965237D01*
X72475279Y-50764256D01*
X72475278Y-50764254D01*
X72333990Y-50580124D01*
X72333984Y-50580117D01*
X72169882Y-50416015D01*
X72169875Y-50416009D01*
X71985745Y-50274721D01*
X71985743Y-50274720D01*
X71784762Y-50158685D01*
X71784754Y-50158681D01*
X71784752Y-50158680D01*
X71570330Y-50069863D01*
X71570331Y-50069863D01*
X71570328Y-50069862D01*
X71428203Y-50031780D01*
X71346149Y-50009794D01*
X71317386Y-50006007D01*
X71116052Y-49979500D01*
X71116045Y-49979500D01*
X70883955Y-49979500D01*
X70883947Y-49979500D01*
X70653851Y-50009794D01*
X70429671Y-50069862D01*
X70215254Y-50158677D01*
X70215237Y-50158685D01*
X70014256Y-50274720D01*
X70014254Y-50274721D01*
X69830124Y-50416009D01*
X69830117Y-50416015D01*
X69666015Y-50580117D01*
X69666009Y-50580124D01*
X69524721Y-50764254D01*
X69524720Y-50764256D01*
X69408685Y-50965237D01*
X69408677Y-50965254D01*
X69319862Y-51179671D01*
X69259794Y-51403851D01*
X69229500Y-51633947D01*
X62000000Y-51633947D01*
X62000000Y-46633947D01*
X66729500Y-46633947D01*
X66729500Y-46866052D01*
X66759794Y-47096148D01*
X66819862Y-47320328D01*
X66908677Y-47534745D01*
X66908685Y-47534762D01*
X67024720Y-47735743D01*
X67024721Y-47735745D01*
X67166009Y-47919875D01*
X67166015Y-47919882D01*
X67330117Y-48083984D01*
X67330124Y-48083990D01*
X67514254Y-48225278D01*
X67514256Y-48225279D01*
X67715237Y-48341314D01*
X67715240Y-48341315D01*
X67715248Y-48341320D01*
X67929670Y-48430137D01*
X68153851Y-48490206D01*
X68383955Y-48520500D01*
X68383962Y-48520500D01*
X68616038Y-48520500D01*
X68616045Y-48520500D01*
X68846149Y-48490206D01*
X69070330Y-48430137D01*
X69284752Y-48341320D01*
X69485748Y-48225276D01*
X69669877Y-48083989D01*
X69833989Y-47919877D01*
X69975276Y-47735748D01*
X70091320Y-47534752D01*
X70180137Y-47320330D01*
X70240206Y-47096149D01*
X70270500Y-46866045D01*
X70270500Y-46633955D01*
X70270499Y-46633947D01*
X71729500Y-46633947D01*
X71729500Y-46866052D01*
X71759794Y-47096148D01*
X71819862Y-47320328D01*
X71908677Y-47534745D01*
X71908685Y-47534762D01*
X72024720Y-47735743D01*
X72024721Y-47735745D01*
X72166009Y-47919875D01*
X72166015Y-47919882D01*
X72330117Y-48083984D01*
X72330124Y-48083990D01*
X72514254Y-48225278D01*
X72514256Y-48225279D01*
X72715237Y-48341314D01*
X72715240Y-48341315D01*
X72715248Y-48341320D01*
X72929670Y-48430137D01*
X73153851Y-48490206D01*
X73383955Y-48520500D01*
X73383962Y-48520500D01*
X73616038Y-48520500D01*
X73616045Y-48520500D01*
X73846149Y-48490206D01*
X74070330Y-48430137D01*
X74284752Y-48341320D01*
X74485748Y-48225276D01*
X74669877Y-48083989D01*
X74833989Y-47919877D01*
X74975276Y-47735748D01*
X75091320Y-47534752D01*
X75180137Y-47320330D01*
X75240206Y-47096149D01*
X75270500Y-46866045D01*
X75270500Y-46633955D01*
X75240206Y-46403851D01*
X75180137Y-46179670D01*
X75091320Y-45965248D01*
X75091314Y-45965237D01*
X74975279Y-45764256D01*
X74975278Y-45764254D01*
X74833990Y-45580124D01*
X74833984Y-45580117D01*
X74669882Y-45416015D01*
X74669875Y-45416009D01*
X74485745Y-45274721D01*
X74485743Y-45274720D01*
X74284762Y-45158685D01*
X74284754Y-45158681D01*
X74284752Y-45158680D01*
X74070330Y-45069863D01*
X74070331Y-45069863D01*
X74070328Y-45069862D01*
X73928203Y-45031780D01*
X73846149Y-45009794D01*
X73817386Y-45006007D01*
X73616052Y-44979500D01*
X73616045Y-44979500D01*
X73383955Y-44979500D01*
X73383947Y-44979500D01*
X73153851Y-45009794D01*
X72929671Y-45069862D01*
X72715254Y-45158677D01*
X72715237Y-45158685D01*
X72514256Y-45274720D01*
X72514254Y-45274721D01*
X72330124Y-45416009D01*
X72330117Y-45416015D01*
X72166015Y-45580117D01*
X72166009Y-45580124D01*
X72024721Y-45764254D01*
X72024720Y-45764256D01*
X71908685Y-45965237D01*
X71908677Y-45965254D01*
X71819862Y-46179671D01*
X71759794Y-46403851D01*
X71729500Y-46633947D01*
X70270499Y-46633947D01*
X70240206Y-46403851D01*
X70180137Y-46179670D01*
X70091320Y-45965248D01*
X70091314Y-45965237D01*
X69975279Y-45764256D01*
X69975278Y-45764254D01*
X69833990Y-45580124D01*
X69833984Y-45580117D01*
X69669882Y-45416015D01*
X69669875Y-45416009D01*
X69485745Y-45274721D01*
X69485743Y-45274720D01*
X69284762Y-45158685D01*
X69284754Y-45158681D01*
X69284752Y-45158680D01*
X69070330Y-45069863D01*
X69070331Y-45069863D01*
X69070328Y-45069862D01*
X68928203Y-45031780D01*
X68846149Y-45009794D01*
X68817386Y-45006007D01*
X68616052Y-44979500D01*
X68616045Y-44979500D01*
X68383955Y-44979500D01*
X68383947Y-44979500D01*
X68153851Y-45009794D01*
X67929671Y-45069862D01*
X67715254Y-45158677D01*
X67715237Y-45158685D01*
X67514256Y-45274720D01*
X67514254Y-45274721D01*
X67330124Y-45416009D01*
X67330117Y-45416015D01*
X67166015Y-45580117D01*
X67166009Y-45580124D01*
X67024721Y-45764254D01*
X67024720Y-45764256D01*
X66908685Y-45965237D01*
X66908677Y-45965254D01*
X66819862Y-46179671D01*
X66759794Y-46403851D01*
X66729500Y-46633947D01*
X62000000Y-46633947D01*
X62000000Y-41633947D01*
X69229500Y-41633947D01*
X69229500Y-41866052D01*
X69259794Y-42096148D01*
X69319862Y-42320328D01*
X69408677Y-42534745D01*
X69408685Y-42534762D01*
X69524720Y-42735743D01*
X69524721Y-42735745D01*
X69666009Y-42919875D01*
X69666015Y-42919882D01*
X69830117Y-43083984D01*
X69830124Y-43083990D01*
X70014254Y-43225278D01*
X70014256Y-43225279D01*
X70215237Y-43341314D01*
X70215240Y-43341315D01*
X70215248Y-43341320D01*
X70429670Y-43430137D01*
X70653851Y-43490206D01*
X70883955Y-43520500D01*
X70883962Y-43520500D01*
X71116038Y-43520500D01*
X71116045Y-43520500D01*
X71346149Y-43490206D01*
X71570330Y-43430137D01*
X71784752Y-43341320D01*
X71985748Y-43225276D01*
X72169877Y-43083989D01*
X72169882Y-43083984D01*
X72223619Y-43030248D01*
X72333984Y-42919882D01*
X72333989Y-42919877D01*
X72475276Y-42735748D01*
X72591320Y-42534752D01*
X72680137Y-42320330D01*
X72740206Y-42096149D01*
X72770500Y-41866045D01*
X72770500Y-41633994D01*
X81730000Y-41633994D01*
X81730000Y-41866005D01*
X81730001Y-41866022D01*
X81760283Y-42096040D01*
X81760286Y-42096053D01*
X81820336Y-42320167D01*
X81909124Y-42534521D01*
X81909132Y-42534538D01*
X82025136Y-42735461D01*
X82025142Y-42735469D01*
X82084117Y-42812327D01*
X82918092Y-41978353D01*
X82946132Y-42046048D01*
X83014531Y-42148414D01*
X83101586Y-42235469D01*
X83203952Y-42303868D01*
X83271646Y-42331907D01*
X82437671Y-43165881D01*
X82514530Y-43224857D01*
X82514538Y-43224863D01*
X82715461Y-43340867D01*
X82715478Y-43340875D01*
X82929832Y-43429663D01*
X83153946Y-43489713D01*
X83153959Y-43489716D01*
X83383977Y-43519998D01*
X83383995Y-43520000D01*
X83616005Y-43520000D01*
X83616022Y-43519998D01*
X83846040Y-43489716D01*
X83846053Y-43489713D01*
X84070167Y-43429663D01*
X84284521Y-43340875D01*
X84284538Y-43340867D01*
X84485475Y-43224855D01*
X84562327Y-43165883D01*
X84562327Y-43165880D01*
X83728353Y-42331907D01*
X83796048Y-42303868D01*
X83898414Y-42235469D01*
X83985469Y-42148414D01*
X84053868Y-42046048D01*
X84081907Y-41978353D01*
X84915880Y-42812327D01*
X84915883Y-42812327D01*
X84974855Y-42735475D01*
X85090867Y-42534538D01*
X85090875Y-42534521D01*
X85179663Y-42320167D01*
X85239713Y-42096053D01*
X85239716Y-42096040D01*
X85269998Y-41866022D01*
X85270000Y-41866005D01*
X85270000Y-41633994D01*
X85269998Y-41633977D01*
X85239716Y-41403959D01*
X85239713Y-41403946D01*
X85179663Y-41179832D01*
X85090875Y-40965478D01*
X85090867Y-40965461D01*
X84974863Y-40764538D01*
X84974857Y-40764530D01*
X84915881Y-40687671D01*
X84081907Y-41521645D01*
X84053868Y-41453952D01*
X83985469Y-41351586D01*
X83898414Y-41264531D01*
X83796048Y-41196132D01*
X83728353Y-41168092D01*
X84562327Y-40334117D01*
X84485469Y-40275142D01*
X84485461Y-40275136D01*
X84284538Y-40159132D01*
X84284521Y-40159124D01*
X84070167Y-40070336D01*
X83846053Y-40010286D01*
X83846040Y-40010283D01*
X83616022Y-39980001D01*
X83616005Y-39980000D01*
X83383995Y-39980000D01*
X83383977Y-39980001D01*
X83153959Y-40010283D01*
X83153946Y-40010286D01*
X82929832Y-40070336D01*
X82715478Y-40159124D01*
X82715461Y-40159132D01*
X82514541Y-40275134D01*
X82514533Y-40275140D01*
X82437671Y-40334116D01*
X82437671Y-40334117D01*
X83271646Y-41168092D01*
X83203952Y-41196132D01*
X83101586Y-41264531D01*
X83014531Y-41351586D01*
X82946132Y-41453952D01*
X82918092Y-41521645D01*
X82084117Y-40687671D01*
X82084116Y-40687671D01*
X82025140Y-40764533D01*
X82025134Y-40764541D01*
X81909132Y-40965461D01*
X81909124Y-40965478D01*
X81820336Y-41179832D01*
X81760286Y-41403946D01*
X81760283Y-41403959D01*
X81730001Y-41633977D01*
X81730000Y-41633994D01*
X72770500Y-41633994D01*
X72770500Y-41633955D01*
X72740206Y-41403851D01*
X72680137Y-41179670D01*
X72591320Y-40965248D01*
X72591314Y-40965237D01*
X72475279Y-40764256D01*
X72475278Y-40764254D01*
X72420921Y-40693415D01*
X72333990Y-40580124D01*
X72333984Y-40580117D01*
X72169882Y-40416015D01*
X72169875Y-40416009D01*
X71985745Y-40274721D01*
X71985743Y-40274720D01*
X71784762Y-40158685D01*
X71784754Y-40158681D01*
X71784752Y-40158680D01*
X71570330Y-40069863D01*
X71570331Y-40069863D01*
X71570328Y-40069862D01*
X71428203Y-40031780D01*
X71346149Y-40009794D01*
X71317386Y-40006007D01*
X71116052Y-39979500D01*
X71116045Y-39979500D01*
X70883955Y-39979500D01*
X70883947Y-39979500D01*
X70653851Y-40009794D01*
X70429671Y-40069862D01*
X70215254Y-40158677D01*
X70215237Y-40158685D01*
X70014256Y-40274720D01*
X70014254Y-40274721D01*
X69830124Y-40416009D01*
X69830117Y-40416015D01*
X69666015Y-40580117D01*
X69666009Y-40580124D01*
X69524721Y-40764254D01*
X69524720Y-40764256D01*
X69408685Y-40965237D01*
X69408677Y-40965254D01*
X69319862Y-41179671D01*
X69259794Y-41403851D01*
X69229500Y-41633947D01*
X62000000Y-41633947D01*
X62000000Y-39046153D01*
X64324500Y-39046153D01*
X64324500Y-39203846D01*
X64355261Y-39358489D01*
X64355264Y-39358501D01*
X64415602Y-39504172D01*
X64415609Y-39504185D01*
X64503210Y-39635288D01*
X64503213Y-39635292D01*
X64614707Y-39746786D01*
X64614711Y-39746789D01*
X64745814Y-39834390D01*
X64745827Y-39834397D01*
X64843853Y-39875000D01*
X64891503Y-39894737D01*
X65046153Y-39925499D01*
X65046156Y-39925500D01*
X65046158Y-39925500D01*
X65203844Y-39925500D01*
X65203845Y-39925499D01*
X65358497Y-39894737D01*
X65504179Y-39834394D01*
X65635289Y-39746789D01*
X65746789Y-39635289D01*
X65834394Y-39504179D01*
X65894737Y-39358497D01*
X65925500Y-39203842D01*
X65925500Y-39133994D01*
X72230000Y-39133994D01*
X72230000Y-39366005D01*
X72230001Y-39366022D01*
X72260283Y-39596040D01*
X72260286Y-39596053D01*
X72320336Y-39820167D01*
X72409124Y-40034521D01*
X72409132Y-40034538D01*
X72525136Y-40235461D01*
X72525142Y-40235469D01*
X72584117Y-40312327D01*
X73418092Y-39478353D01*
X73446132Y-39546048D01*
X73514531Y-39648414D01*
X73601586Y-39735469D01*
X73703952Y-39803868D01*
X73771646Y-39831907D01*
X72937671Y-40665881D01*
X73014530Y-40724857D01*
X73014538Y-40724863D01*
X73215461Y-40840867D01*
X73215478Y-40840875D01*
X73429832Y-40929663D01*
X73653946Y-40989713D01*
X73653959Y-40989716D01*
X73883977Y-41019998D01*
X73883995Y-41020000D01*
X74116005Y-41020000D01*
X74116022Y-41019998D01*
X74346040Y-40989716D01*
X74346053Y-40989713D01*
X74570167Y-40929663D01*
X74784521Y-40840875D01*
X74784538Y-40840867D01*
X74985475Y-40724855D01*
X75062327Y-40665883D01*
X75062327Y-40665880D01*
X74228353Y-39831907D01*
X74296048Y-39803868D01*
X74398414Y-39735469D01*
X74485469Y-39648414D01*
X74553868Y-39546048D01*
X74581907Y-39478353D01*
X75415880Y-40312327D01*
X75415883Y-40312327D01*
X75420291Y-40306583D01*
X75420291Y-40306582D01*
X75474857Y-40235471D01*
X75590867Y-40034538D01*
X75590875Y-40034521D01*
X75679663Y-39820167D01*
X75739713Y-39596053D01*
X75739716Y-39596040D01*
X75769998Y-39366022D01*
X75770000Y-39366005D01*
X75770000Y-39133994D01*
X75769998Y-39133977D01*
X75739716Y-38903959D01*
X75739713Y-38903946D01*
X75679663Y-38679832D01*
X75590875Y-38465478D01*
X75590867Y-38465461D01*
X75474863Y-38264538D01*
X75474857Y-38264530D01*
X75415881Y-38187671D01*
X74581907Y-39021645D01*
X74553868Y-38953952D01*
X74485469Y-38851586D01*
X74398414Y-38764531D01*
X74296048Y-38696132D01*
X74228353Y-38668092D01*
X75062327Y-37834117D01*
X74985469Y-37775142D01*
X74985461Y-37775136D01*
X74784538Y-37659132D01*
X74784521Y-37659124D01*
X74570167Y-37570336D01*
X74346053Y-37510286D01*
X74346040Y-37510283D01*
X74116022Y-37480001D01*
X74116005Y-37480000D01*
X73883995Y-37480000D01*
X73883977Y-37480001D01*
X73653959Y-37510283D01*
X73653946Y-37510286D01*
X73429832Y-37570336D01*
X73215478Y-37659124D01*
X73215461Y-37659132D01*
X73014541Y-37775134D01*
X73014533Y-37775140D01*
X72937671Y-37834116D01*
X72937671Y-37834117D01*
X73771646Y-38668092D01*
X73703952Y-38696132D01*
X73601586Y-38764531D01*
X73514531Y-38851586D01*
X73446132Y-38953952D01*
X73418092Y-39021646D01*
X72584117Y-38187671D01*
X72584116Y-38187671D01*
X72525140Y-38264533D01*
X72525134Y-38264541D01*
X72409132Y-38465461D01*
X72409124Y-38465478D01*
X72320336Y-38679832D01*
X72260286Y-38903946D01*
X72260283Y-38903959D01*
X72230001Y-39133977D01*
X72230000Y-39133994D01*
X65925500Y-39133994D01*
X65925500Y-39046158D01*
X65925500Y-39046155D01*
X65925499Y-39046153D01*
X65907159Y-38953952D01*
X65894737Y-38891503D01*
X65842144Y-38764531D01*
X65834397Y-38745827D01*
X65834390Y-38745814D01*
X65746789Y-38614711D01*
X65746786Y-38614707D01*
X65635292Y-38503213D01*
X65635288Y-38503210D01*
X65504185Y-38415609D01*
X65504172Y-38415602D01*
X65358501Y-38355264D01*
X65358489Y-38355261D01*
X65203845Y-38324500D01*
X65203842Y-38324500D01*
X65046158Y-38324500D01*
X65046155Y-38324500D01*
X64891510Y-38355261D01*
X64891498Y-38355264D01*
X64745827Y-38415602D01*
X64745814Y-38415609D01*
X64614711Y-38503210D01*
X64614707Y-38503213D01*
X64503213Y-38614707D01*
X64503210Y-38614711D01*
X64415609Y-38745814D01*
X64415602Y-38745827D01*
X64355264Y-38891498D01*
X64355261Y-38891510D01*
X64324500Y-39046153D01*
X62000000Y-39046153D01*
X62000000Y-27163389D01*
X63899500Y-27163389D01*
X63899500Y-27336611D01*
X63907677Y-27388239D01*
X63921595Y-27476117D01*
X63926598Y-27507701D01*
X63980127Y-27672445D01*
X64058768Y-27826788D01*
X64160586Y-27966928D01*
X64283072Y-28089414D01*
X64423212Y-28191232D01*
X64577555Y-28269873D01*
X64742299Y-28323402D01*
X64913389Y-28350500D01*
X64913390Y-28350500D01*
X65086610Y-28350500D01*
X65086611Y-28350500D01*
X65257701Y-28323402D01*
X65422445Y-28269873D01*
X65576788Y-28191232D01*
X65716928Y-28089414D01*
X65824836Y-27981505D01*
X65886155Y-27948023D01*
X65955847Y-27953007D01*
X66011781Y-27994878D01*
X66018053Y-28004093D01*
X66057682Y-28068343D01*
X66181654Y-28192315D01*
X66330875Y-28284356D01*
X66330880Y-28284358D01*
X66497302Y-28339505D01*
X66497309Y-28339506D01*
X66600019Y-28349999D01*
X66749999Y-28349999D01*
X67250000Y-28349999D01*
X67399972Y-28349999D01*
X67399986Y-28349998D01*
X67502697Y-28339505D01*
X67669119Y-28284358D01*
X67669124Y-28284356D01*
X67818345Y-28192315D01*
X67942315Y-28068345D01*
X68034356Y-27919124D01*
X68034358Y-27919119D01*
X68089505Y-27752697D01*
X68089506Y-27752690D01*
X68099999Y-27649986D01*
X68100000Y-27649973D01*
X68100000Y-27500000D01*
X67250000Y-27500000D01*
X67250000Y-28349999D01*
X66749999Y-28349999D01*
X66750000Y-28349998D01*
X66750000Y-27416988D01*
X66759940Y-27434205D01*
X66815795Y-27490060D01*
X66884204Y-27529556D01*
X66960504Y-27550000D01*
X67039496Y-27550000D01*
X67115796Y-27529556D01*
X67184205Y-27490060D01*
X67240060Y-27434205D01*
X67279556Y-27365796D01*
X67300000Y-27289496D01*
X67300000Y-27210504D01*
X67279556Y-27134204D01*
X67240060Y-27065795D01*
X67184205Y-27009940D01*
X67166988Y-27000000D01*
X67250000Y-27000000D01*
X68099999Y-27000000D01*
X68099999Y-26850028D01*
X68099998Y-26850013D01*
X68089505Y-26747302D01*
X68034358Y-26580880D01*
X68034356Y-26580875D01*
X67942315Y-26431654D01*
X67818345Y-26307684D01*
X67669124Y-26215643D01*
X67669119Y-26215641D01*
X67502697Y-26160494D01*
X67502690Y-26160493D01*
X67399986Y-26150000D01*
X67250000Y-26150000D01*
X67250000Y-27000000D01*
X67166988Y-27000000D01*
X67115796Y-26970444D01*
X67039496Y-26950000D01*
X66960504Y-26950000D01*
X66884204Y-26970444D01*
X66815795Y-27009940D01*
X66759940Y-27065795D01*
X66750000Y-27083011D01*
X66750000Y-26150000D01*
X66600027Y-26150000D01*
X66600012Y-26150001D01*
X66497302Y-26160494D01*
X66330880Y-26215641D01*
X66330875Y-26215643D01*
X66181654Y-26307684D01*
X66057684Y-26431654D01*
X66018053Y-26495907D01*
X65966105Y-26542631D01*
X65897142Y-26553853D01*
X65833060Y-26526010D01*
X65824833Y-26518491D01*
X65716930Y-26410588D01*
X65716928Y-26410586D01*
X65576788Y-26308768D01*
X65422445Y-26230127D01*
X65257701Y-26176598D01*
X65257699Y-26176597D01*
X65257698Y-26176597D01*
X65126271Y-26155781D01*
X65086611Y-26149500D01*
X64913389Y-26149500D01*
X64873728Y-26155781D01*
X64742302Y-26176597D01*
X64577552Y-26230128D01*
X64423211Y-26308768D01*
X64343256Y-26366859D01*
X64283072Y-26410586D01*
X64283070Y-26410588D01*
X64283069Y-26410588D01*
X64160588Y-26533069D01*
X64160588Y-26533070D01*
X64160586Y-26533072D01*
X64153641Y-26542631D01*
X64058768Y-26673211D01*
X63980128Y-26827552D01*
X63926597Y-26992302D01*
X63914957Y-27065795D01*
X63899500Y-27163389D01*
X62000000Y-27163389D01*
X62000000Y-24874500D01*
X62019685Y-24807461D01*
X62072489Y-24761706D01*
X62124000Y-24750500D01*
X72831773Y-24750500D01*
X72898812Y-24770185D01*
G37*
%TD.AperFunction*%
%TD*%
%TA.AperFunction,Conductor*%
%TO.N,GND3_3*%
G36*
X60193039Y-24770185D02*
G01*
X60238794Y-24822989D01*
X60250000Y-24874500D01*
X60250000Y-56875500D01*
X60230315Y-56942539D01*
X60177511Y-56988294D01*
X60126000Y-56999500D01*
X46254067Y-56999500D01*
X46245957Y-56999235D01*
X45997116Y-56982925D01*
X45981035Y-56980807D01*
X45740464Y-56932954D01*
X45724797Y-56928756D01*
X45492520Y-56849909D01*
X45477534Y-56843702D01*
X45257539Y-56735212D01*
X45243492Y-56727102D01*
X45039539Y-56590825D01*
X45026671Y-56580951D01*
X44842250Y-56419218D01*
X44830781Y-56407749D01*
X44669048Y-56223328D01*
X44659174Y-56210460D01*
X44522897Y-56006507D01*
X44514787Y-55992460D01*
X44408855Y-55777652D01*
X44406294Y-55772458D01*
X44400090Y-55757479D01*
X44321243Y-55525202D01*
X44317045Y-55509535D01*
X44309186Y-55470026D01*
X44269190Y-55268953D01*
X44267075Y-55252895D01*
X44250765Y-55004043D01*
X44250500Y-54995933D01*
X44250500Y-54421153D01*
X48449500Y-54421153D01*
X48449500Y-54578846D01*
X48480261Y-54733489D01*
X48480264Y-54733501D01*
X48540602Y-54879172D01*
X48540609Y-54879185D01*
X48628210Y-55010288D01*
X48628213Y-55010292D01*
X48739707Y-55121786D01*
X48739711Y-55121789D01*
X48870814Y-55209390D01*
X48870827Y-55209397D01*
X48995378Y-55260987D01*
X49016503Y-55269737D01*
X49171153Y-55300499D01*
X49171156Y-55300500D01*
X49171158Y-55300500D01*
X49328844Y-55300500D01*
X49328845Y-55300499D01*
X49483497Y-55269737D01*
X49629179Y-55209394D01*
X49760289Y-55121789D01*
X49871789Y-55010289D01*
X49959394Y-54879179D01*
X50019737Y-54733497D01*
X50050500Y-54578842D01*
X50050500Y-54421158D01*
X50050500Y-54421155D01*
X50050499Y-54421153D01*
X55849500Y-54421153D01*
X55849500Y-54578846D01*
X55880261Y-54733489D01*
X55880264Y-54733501D01*
X55940602Y-54879172D01*
X55940609Y-54879185D01*
X56028210Y-55010288D01*
X56028213Y-55010292D01*
X56139707Y-55121786D01*
X56139711Y-55121789D01*
X56270814Y-55209390D01*
X56270827Y-55209397D01*
X56395378Y-55260987D01*
X56416503Y-55269737D01*
X56571153Y-55300499D01*
X56571156Y-55300500D01*
X56571158Y-55300500D01*
X56728844Y-55300500D01*
X56728845Y-55300499D01*
X56883497Y-55269737D01*
X57029179Y-55209394D01*
X57160289Y-55121789D01*
X57271789Y-55010289D01*
X57359394Y-54879179D01*
X57419737Y-54733497D01*
X57450500Y-54578842D01*
X57450500Y-54421158D01*
X57450500Y-54421155D01*
X57450499Y-54421153D01*
X57419738Y-54266510D01*
X57419737Y-54266503D01*
X57419735Y-54266498D01*
X57359397Y-54120827D01*
X57359390Y-54120814D01*
X57271789Y-53989711D01*
X57271786Y-53989707D01*
X57160292Y-53878213D01*
X57160288Y-53878210D01*
X57029185Y-53790609D01*
X57029172Y-53790602D01*
X56883501Y-53730264D01*
X56883489Y-53730261D01*
X56728845Y-53699500D01*
X56728842Y-53699500D01*
X56571158Y-53699500D01*
X56571155Y-53699500D01*
X56416510Y-53730261D01*
X56416498Y-53730264D01*
X56270827Y-53790602D01*
X56270814Y-53790609D01*
X56139711Y-53878210D01*
X56139707Y-53878213D01*
X56028213Y-53989707D01*
X56028210Y-53989711D01*
X55940609Y-54120814D01*
X55940602Y-54120827D01*
X55880264Y-54266498D01*
X55880261Y-54266510D01*
X55849500Y-54421153D01*
X50050499Y-54421153D01*
X50019738Y-54266510D01*
X50019737Y-54266503D01*
X50019735Y-54266498D01*
X49959397Y-54120827D01*
X49959390Y-54120814D01*
X49871789Y-53989711D01*
X49871786Y-53989707D01*
X49760292Y-53878213D01*
X49760288Y-53878210D01*
X49629185Y-53790609D01*
X49629172Y-53790602D01*
X49483501Y-53730264D01*
X49483489Y-53730261D01*
X49328845Y-53699500D01*
X49328842Y-53699500D01*
X49171158Y-53699500D01*
X49171155Y-53699500D01*
X49016510Y-53730261D01*
X49016498Y-53730264D01*
X48870827Y-53790602D01*
X48870814Y-53790609D01*
X48739711Y-53878210D01*
X48739707Y-53878213D01*
X48628213Y-53989707D01*
X48628210Y-53989711D01*
X48540609Y-54120814D01*
X48540602Y-54120827D01*
X48480264Y-54266498D01*
X48480261Y-54266510D01*
X48449500Y-54421153D01*
X44250500Y-54421153D01*
X44250500Y-38933713D01*
X47359500Y-38933713D01*
X47359500Y-39146286D01*
X47378541Y-39266510D01*
X47392754Y-39356243D01*
X47413846Y-39421158D01*
X47458444Y-39558414D01*
X47554951Y-39747820D01*
X47679890Y-39919786D01*
X47830213Y-40070109D01*
X48002182Y-40195050D01*
X48010946Y-40199516D01*
X48061742Y-40247491D01*
X48078536Y-40315312D01*
X48055998Y-40381447D01*
X48010946Y-40420484D01*
X48002182Y-40424949D01*
X47830213Y-40549890D01*
X47679890Y-40700213D01*
X47554951Y-40872179D01*
X47458444Y-41061585D01*
X47392753Y-41263760D01*
X47359500Y-41473713D01*
X47359500Y-41686286D01*
X47392753Y-41896239D01*
X47458444Y-42098414D01*
X47554951Y-42287820D01*
X47679890Y-42459786D01*
X47830213Y-42610109D01*
X48002179Y-42735048D01*
X48002181Y-42735049D01*
X48002184Y-42735051D01*
X48191588Y-42831557D01*
X48393757Y-42897246D01*
X48603713Y-42930500D01*
X48603714Y-42930500D01*
X48816286Y-42930500D01*
X48816287Y-42930500D01*
X49026243Y-42897246D01*
X49228412Y-42831557D01*
X49417816Y-42735051D01*
X49439789Y-42719086D01*
X49589786Y-42610109D01*
X49589788Y-42610106D01*
X49589792Y-42610104D01*
X49740104Y-42459792D01*
X49740106Y-42459788D01*
X49740109Y-42459786D01*
X49865048Y-42287820D01*
X49865047Y-42287820D01*
X49865051Y-42287816D01*
X49869514Y-42279054D01*
X49917488Y-42228259D01*
X49985308Y-42211463D01*
X50051444Y-42233999D01*
X50090486Y-42279056D01*
X50094951Y-42287820D01*
X50219890Y-42459786D01*
X50370213Y-42610109D01*
X50542179Y-42735048D01*
X50542181Y-42735049D01*
X50542184Y-42735051D01*
X50731588Y-42831557D01*
X50933757Y-42897246D01*
X51143713Y-42930500D01*
X51143714Y-42930500D01*
X51356286Y-42930500D01*
X51356287Y-42930500D01*
X51566243Y-42897246D01*
X51768412Y-42831557D01*
X51957816Y-42735051D01*
X51979789Y-42719086D01*
X52129786Y-42610109D01*
X52129788Y-42610106D01*
X52129792Y-42610104D01*
X52280104Y-42459792D01*
X52280106Y-42459788D01*
X52280109Y-42459786D01*
X52405048Y-42287820D01*
X52405047Y-42287820D01*
X52405051Y-42287816D01*
X52501557Y-42098412D01*
X52567246Y-41896243D01*
X52600500Y-41686287D01*
X52600500Y-41473713D01*
X52567246Y-41263757D01*
X52501557Y-41061588D01*
X52405051Y-40872184D01*
X52405049Y-40872181D01*
X52405048Y-40872179D01*
X52280109Y-40700213D01*
X52129786Y-40549890D01*
X51957820Y-40424951D01*
X51957115Y-40424591D01*
X51949054Y-40420485D01*
X51898259Y-40372512D01*
X51881463Y-40304692D01*
X51903999Y-40238556D01*
X51949054Y-40199515D01*
X51957816Y-40195051D01*
X51979789Y-40179086D01*
X52129786Y-40070109D01*
X52129788Y-40070106D01*
X52129792Y-40070104D01*
X52280104Y-39919792D01*
X52280106Y-39919788D01*
X52280109Y-39919786D01*
X52405048Y-39747820D01*
X52405047Y-39747820D01*
X52405051Y-39747816D01*
X52501557Y-39558412D01*
X52546155Y-39421153D01*
X56199500Y-39421153D01*
X56199500Y-39578846D01*
X56230261Y-39733489D01*
X56230264Y-39733501D01*
X56290602Y-39879172D01*
X56290609Y-39879185D01*
X56378210Y-40010288D01*
X56378213Y-40010292D01*
X56489707Y-40121786D01*
X56489711Y-40121789D01*
X56620814Y-40209390D01*
X56620827Y-40209397D01*
X56766498Y-40269735D01*
X56766503Y-40269737D01*
X56876199Y-40291557D01*
X56921153Y-40300499D01*
X56921156Y-40300500D01*
X56921158Y-40300500D01*
X57078844Y-40300500D01*
X57078845Y-40300499D01*
X57233497Y-40269737D01*
X57379179Y-40209394D01*
X57510289Y-40121789D01*
X57621789Y-40010289D01*
X57709394Y-39879179D01*
X57769737Y-39733497D01*
X57800500Y-39578842D01*
X57800500Y-39421158D01*
X57800500Y-39421155D01*
X57800499Y-39421153D01*
X57791666Y-39376747D01*
X57769737Y-39266503D01*
X57769735Y-39266498D01*
X57709397Y-39120827D01*
X57709390Y-39120814D01*
X57621789Y-38989711D01*
X57621786Y-38989707D01*
X57510292Y-38878213D01*
X57510288Y-38878210D01*
X57379185Y-38790609D01*
X57379172Y-38790602D01*
X57233501Y-38730264D01*
X57233489Y-38730261D01*
X57078845Y-38699500D01*
X57078842Y-38699500D01*
X56921158Y-38699500D01*
X56921155Y-38699500D01*
X56766510Y-38730261D01*
X56766498Y-38730264D01*
X56620827Y-38790602D01*
X56620814Y-38790609D01*
X56489711Y-38878210D01*
X56489707Y-38878213D01*
X56378213Y-38989707D01*
X56378210Y-38989711D01*
X56290609Y-39120814D01*
X56290602Y-39120827D01*
X56230264Y-39266498D01*
X56230261Y-39266510D01*
X56199500Y-39421153D01*
X52546155Y-39421153D01*
X52567246Y-39356243D01*
X52600500Y-39146287D01*
X52600500Y-38933713D01*
X52567246Y-38723757D01*
X52501557Y-38521588D01*
X52405051Y-38332184D01*
X52405049Y-38332181D01*
X52405048Y-38332179D01*
X52280109Y-38160213D01*
X52129786Y-38009890D01*
X51957820Y-37884951D01*
X51950136Y-37881036D01*
X51949054Y-37880485D01*
X51898259Y-37832512D01*
X51881463Y-37764692D01*
X51903999Y-37698556D01*
X51949054Y-37659515D01*
X51957816Y-37655051D01*
X51979789Y-37639086D01*
X52129786Y-37530109D01*
X52129788Y-37530106D01*
X52129792Y-37530104D01*
X52280104Y-37379792D01*
X52280106Y-37379788D01*
X52280109Y-37379786D01*
X52405048Y-37207820D01*
X52405047Y-37207820D01*
X52405051Y-37207816D01*
X52501557Y-37018412D01*
X52567246Y-36816243D01*
X52600500Y-36606287D01*
X52600500Y-36393713D01*
X52567246Y-36183757D01*
X52501557Y-35981588D01*
X52405051Y-35792184D01*
X52405049Y-35792181D01*
X52405048Y-35792179D01*
X52280109Y-35620213D01*
X52129786Y-35469890D01*
X51957820Y-35344951D01*
X51768414Y-35248444D01*
X51768413Y-35248443D01*
X51768412Y-35248443D01*
X51566243Y-35182754D01*
X51566241Y-35182753D01*
X51566240Y-35182753D01*
X51404957Y-35157208D01*
X51356287Y-35149500D01*
X51143713Y-35149500D01*
X51095042Y-35157208D01*
X50933760Y-35182753D01*
X50731585Y-35248444D01*
X50542179Y-35344951D01*
X50370213Y-35469890D01*
X50219892Y-35620211D01*
X50215974Y-35625605D01*
X50160643Y-35668270D01*
X50091029Y-35674248D01*
X50029235Y-35641641D01*
X49997951Y-35591723D01*
X49994357Y-35580878D01*
X49994356Y-35580875D01*
X49902315Y-35431654D01*
X49778345Y-35307684D01*
X49629124Y-35215643D01*
X49629119Y-35215641D01*
X49462697Y-35160494D01*
X49462690Y-35160493D01*
X49359986Y-35150000D01*
X48960000Y-35150000D01*
X48960000Y-36066988D01*
X48902993Y-36034075D01*
X48775826Y-36000000D01*
X48644174Y-36000000D01*
X48517007Y-36034075D01*
X48460000Y-36066988D01*
X48460000Y-35150000D01*
X48060028Y-35150000D01*
X48060012Y-35150001D01*
X47957302Y-35160494D01*
X47790880Y-35215641D01*
X47790875Y-35215643D01*
X47641654Y-35307684D01*
X47517684Y-35431654D01*
X47425643Y-35580875D01*
X47425641Y-35580880D01*
X47370494Y-35747302D01*
X47370493Y-35747309D01*
X47360000Y-35850013D01*
X47360000Y-36250000D01*
X48276988Y-36250000D01*
X48244075Y-36307007D01*
X48210000Y-36434174D01*
X48210000Y-36565826D01*
X48244075Y-36692993D01*
X48276988Y-36750000D01*
X47360001Y-36750000D01*
X47360001Y-37149986D01*
X47370494Y-37252697D01*
X47425641Y-37419119D01*
X47425643Y-37419124D01*
X47517684Y-37568345D01*
X47641654Y-37692315D01*
X47790875Y-37784356D01*
X47790878Y-37784357D01*
X47801723Y-37787951D01*
X47859167Y-37827724D01*
X47885990Y-37892240D01*
X47873675Y-37961016D01*
X47835605Y-38005974D01*
X47830211Y-38009892D01*
X47679890Y-38160213D01*
X47554951Y-38332179D01*
X47458444Y-38521585D01*
X47392753Y-38723760D01*
X47359500Y-38933713D01*
X44250500Y-38933713D01*
X44250500Y-27649986D01*
X47650001Y-27649986D01*
X47660494Y-27752697D01*
X47715641Y-27919119D01*
X47715643Y-27919124D01*
X47807684Y-28068345D01*
X47931654Y-28192315D01*
X48080875Y-28284356D01*
X48080880Y-28284358D01*
X48247302Y-28339505D01*
X48247309Y-28339506D01*
X48350019Y-28349999D01*
X48499999Y-28349999D01*
X48500000Y-28349998D01*
X48500000Y-27500000D01*
X47650001Y-27500000D01*
X47650001Y-27649986D01*
X44250500Y-27649986D01*
X44250500Y-27210504D01*
X48450000Y-27210504D01*
X48450000Y-27289496D01*
X48470444Y-27365796D01*
X48509940Y-27434205D01*
X48565795Y-27490060D01*
X48634204Y-27529556D01*
X48710504Y-27550000D01*
X48789496Y-27550000D01*
X48865796Y-27529556D01*
X48934205Y-27490060D01*
X48990060Y-27434205D01*
X49000000Y-27416988D01*
X49000000Y-28349999D01*
X49149972Y-28349999D01*
X49149986Y-28349998D01*
X49252697Y-28339505D01*
X49419119Y-28284358D01*
X49419124Y-28284356D01*
X49568345Y-28192315D01*
X49692315Y-28068345D01*
X49731945Y-28004094D01*
X49783893Y-27957368D01*
X49852855Y-27946145D01*
X49916937Y-27973988D01*
X49925166Y-27981508D01*
X50033072Y-28089414D01*
X50173212Y-28191232D01*
X50327555Y-28269873D01*
X50492299Y-28323402D01*
X50663389Y-28350500D01*
X50663390Y-28350500D01*
X50836610Y-28350500D01*
X50836611Y-28350500D01*
X51007701Y-28323402D01*
X51172445Y-28269873D01*
X51326788Y-28191232D01*
X51466928Y-28089414D01*
X51589414Y-27966928D01*
X51691232Y-27826788D01*
X51769873Y-27672445D01*
X51823402Y-27507701D01*
X51843312Y-27381995D01*
X54699500Y-27381995D01*
X54699500Y-27618004D01*
X54699501Y-27618020D01*
X54717231Y-27752697D01*
X54730307Y-27852014D01*
X54761099Y-27966930D01*
X54791394Y-28079993D01*
X54881714Y-28298045D01*
X54881719Y-28298056D01*
X54952677Y-28420957D01*
X54999727Y-28502450D01*
X54999729Y-28502453D01*
X54999730Y-28502454D01*
X55143406Y-28689697D01*
X55143412Y-28689704D01*
X55310295Y-28856587D01*
X55310301Y-28856592D01*
X55497550Y-29000273D01*
X55628918Y-29076118D01*
X55701943Y-29118280D01*
X55701948Y-29118282D01*
X55701951Y-29118284D01*
X55920007Y-29208606D01*
X56147986Y-29269693D01*
X56381989Y-29300500D01*
X56381996Y-29300500D01*
X56618004Y-29300500D01*
X56618011Y-29300500D01*
X56852014Y-29269693D01*
X57079993Y-29208606D01*
X57298049Y-29118284D01*
X57502450Y-29000273D01*
X57689699Y-28856592D01*
X57856592Y-28689699D01*
X58000273Y-28502450D01*
X58118284Y-28298049D01*
X58208606Y-28079993D01*
X58269693Y-27852014D01*
X58300500Y-27618011D01*
X58300500Y-27381989D01*
X58269693Y-27147986D01*
X58208606Y-26920007D01*
X58118284Y-26701951D01*
X58118282Y-26701948D01*
X58118280Y-26701943D01*
X58076118Y-26628918D01*
X58000273Y-26497550D01*
X57856592Y-26310301D01*
X57856587Y-26310295D01*
X57689704Y-26143412D01*
X57689697Y-26143406D01*
X57502454Y-25999730D01*
X57502453Y-25999729D01*
X57502450Y-25999727D01*
X57420957Y-25952677D01*
X57298056Y-25881719D01*
X57298045Y-25881714D01*
X57079993Y-25791394D01*
X56852010Y-25730306D01*
X56618020Y-25699501D01*
X56618017Y-25699500D01*
X56618011Y-25699500D01*
X56381989Y-25699500D01*
X56381983Y-25699500D01*
X56381979Y-25699501D01*
X56147989Y-25730306D01*
X55920006Y-25791394D01*
X55701954Y-25881714D01*
X55701943Y-25881719D01*
X55497545Y-25999730D01*
X55310302Y-26143406D01*
X55310295Y-26143412D01*
X55143412Y-26310295D01*
X55143406Y-26310302D01*
X54999730Y-26497545D01*
X54999727Y-26497549D01*
X54999727Y-26497550D01*
X54992014Y-26510909D01*
X54881719Y-26701943D01*
X54881714Y-26701954D01*
X54791394Y-26920006D01*
X54730306Y-27147989D01*
X54699501Y-27381979D01*
X54699500Y-27381995D01*
X51843312Y-27381995D01*
X51850500Y-27336611D01*
X51850500Y-27163389D01*
X51823402Y-26992299D01*
X51769873Y-26827555D01*
X51691232Y-26673212D01*
X51589414Y-26533072D01*
X51466928Y-26410586D01*
X51326788Y-26308768D01*
X51172445Y-26230127D01*
X51007701Y-26176598D01*
X51007699Y-26176597D01*
X51007698Y-26176597D01*
X50876271Y-26155781D01*
X50836611Y-26149500D01*
X50663389Y-26149500D01*
X50623728Y-26155781D01*
X50492302Y-26176597D01*
X50327552Y-26230128D01*
X50173211Y-26308768D01*
X50033073Y-26410585D01*
X49925166Y-26518492D01*
X49863843Y-26551976D01*
X49794151Y-26546992D01*
X49738218Y-26505120D01*
X49731946Y-26495906D01*
X49692317Y-26431656D01*
X49568345Y-26307684D01*
X49419124Y-26215643D01*
X49419119Y-26215641D01*
X49252697Y-26160494D01*
X49252690Y-26160493D01*
X49149986Y-26150000D01*
X49000000Y-26150000D01*
X49000000Y-27083011D01*
X48990060Y-27065795D01*
X48934205Y-27009940D01*
X48865796Y-26970444D01*
X48789496Y-26950000D01*
X48710504Y-26950000D01*
X48634204Y-26970444D01*
X48565795Y-27009940D01*
X48509940Y-27065795D01*
X48470444Y-27134204D01*
X48450000Y-27210504D01*
X44250500Y-27210504D01*
X44250500Y-26850013D01*
X47650000Y-26850013D01*
X47650000Y-27000000D01*
X48500000Y-27000000D01*
X48500000Y-26150000D01*
X48350027Y-26150000D01*
X48350012Y-26150001D01*
X48247302Y-26160494D01*
X48080880Y-26215641D01*
X48080875Y-26215643D01*
X47931654Y-26307684D01*
X47807684Y-26431654D01*
X47715643Y-26580875D01*
X47715641Y-26580880D01*
X47660494Y-26747302D01*
X47660493Y-26747309D01*
X47650000Y-26850013D01*
X44250500Y-26850013D01*
X44250500Y-26754066D01*
X44250765Y-26745956D01*
X44255533Y-26673211D01*
X44267075Y-26497102D01*
X44269190Y-26481048D01*
X44317045Y-26240462D01*
X44321243Y-26224797D01*
X44397644Y-25999727D01*
X44400093Y-25992512D01*
X44406291Y-25977547D01*
X44514790Y-25757533D01*
X44522893Y-25743498D01*
X44659182Y-25539527D01*
X44669039Y-25526681D01*
X44830786Y-25342244D01*
X44842244Y-25330786D01*
X45026681Y-25169039D01*
X45039527Y-25159182D01*
X45243498Y-25022893D01*
X45257533Y-25014790D01*
X45477547Y-24906291D01*
X45492512Y-24900093D01*
X45719653Y-24822989D01*
X45724797Y-24821243D01*
X45740464Y-24817045D01*
X45981048Y-24769190D01*
X45997102Y-24767075D01*
X46245957Y-24750765D01*
X46254067Y-24750500D01*
X60126000Y-24750500D01*
X60193039Y-24770185D01*
G37*
%TD.AperFunction*%
%TD*%
M02*
